<svg xmlns="http://www.w3.org/2000/svg" viewBox="0 0 500 500" width="500" height="500">
	<style>
		tspan { white-space:pre }
		.shp0 { fill: #e9fbff } 
		.shp1 { fill: #1d3542 } 
		.shp2 { opacity: 0.22;fill: #1d3542 } 
		.shp3 { fill: #575988 } 
		.shp4 { opacity: 0.231;fill: #575988 } 
		.shp5 { opacity: 0.231;fill: #d25a5c } 
		.shp6 { fill: #aa353b } 
		.shp7 { fill: #d25a5c } 
		.shp8 { fill: #f4a082 } 
		.shp9 { opacity: 0.212;fill: #d18161 } 
		.shp10 { opacity: 0.341;fill: #d18161 } 
		.shp11 { fill: #ffd2b9 } 
		.shp12 { fill: #fcebe6 } 
		.shp13 { opacity: 0.18;fill: #a05940 } 
		.shp14 { fill: #2e2430 } 
		.shp15 { fill: #a34f31 } 
		.shp16 { opacity: 0.561;fill: #575988 } 
	</style>
	<g id="BACKGROUND">
	</g>
	<g id="OBJECTS">
		<g id="XMLID_25_">
			<g id="XMLID_1_">
				<g id="XMLID_2_">
					<path id="XMLID_3_" class="shp0" d="M250.5 121.5C237.2 120.1 224.1 123.8 212.2 129.6C201.4 134.8 191.2 141.6 182.1 149.3C164.9 163.8 150.4 182.7 143.8 204.5C137.1 226.3 139.8 249.3 150.4 269.4C161.5 290.5 179.7 307.3 200 319.4C222.3 332.6 247.8 340.4 273.6 341.9C297.3 343.3 322.6 339.5 342.5 325.8C360.6 313.3 371.3 293.2 374.1 271.5C377 249.2 371.8 226.7 360.7 207.2C348.9 186.5 331.4 169.6 312.1 156C291.1 141.1 266.6 128.1 240.5 126.2C234.2 125.7 227.9 126 221.7 127C220.7 127.2 221.1 128.6 222.1 128.5C248.7 124.2 274.9 134.6 297.3 148.2C317.1 160.2 335.6 175.1 349.7 193.5C363.4 211.4 372.4 232.6 373.3 255.3C374.1 276.4 368 298.4 353.5 314.2C337.4 331.8 313.4 339.2 290.2 340.5C265.3 341.8 239.9 336.7 217.1 326.5C176.2 308.3 136.9 269 141.9 220.8C144.2 198.5 155.8 178.1 170.9 161.9C178.6 153.7 187.2 146.4 196.6 140.2C207.2 133.2 218.8 127.1 231.3 124.2C237.6 122.8 244 122.3 250.5 123C251.5 123.1 251.5 121.6 250.5 121.5L250.5 121.5Z" />
				</g>
				<g id="XMLID_4_">
					<path id="XMLID_5_" class="shp0" d="M260.6 347.1C247 351.8 232.2 349.7 218.3 347.5C205 345.3 191.8 342.2 179.2 337.6C155.3 328.9 133.1 314.3 118.7 292.9C105.4 273.1 100.9 249.3 106.7 226.1C112.3 203.6 126.3 183.4 144.2 168.9C185.3 135.3 244 133 294.3 139.4C309 141.2 323.6 144.1 337.8 148.2C349.7 151.6 362.1 155.7 371.9 163.6C382.2 171.9 387.3 184.1 386.9 197.3C386.5 211 380.5 223.7 372.8 234.8C358.5 255.6 339.6 273.9 319.8 289.3C299.8 304.9 277.8 317.8 254.4 327.5C248.8 329.8 243.1 332 237.3 334C236.4 334.3 236.8 335.8 237.7 335.5C287.1 318.6 331.6 288 364.8 247.7C380.7 228.5 396.3 201.7 384.2 176.5C379 165.6 368.8 158.5 358.1 153.7C345.2 148 331.2 144.5 317.4 141.7C289.4 136 260.1 133.7 231.6 136.1C205.4 138.2 179.1 144.8 156.4 158.5C116.5 182.6 89.6 233.5 109.1 278.9C119 301.9 138.2 319.7 160.1 331.1C172.3 337.5 185.5 342 198.9 345.3C212.6 348.6 227 351.4 241.1 351.6C247.8 351.7 254.5 351 260.9 348.7C261.9 348.2 261.5 346.7 260.6 347.1L260.6 347.1Z" />
				</g>
				<path id="Layer" class="shp0" d="M143.4 211.7C139.2 211.7 135.8 208.3 135.8 204.1C135.8 199.9 139.2 196.5 143.4 196.5C147.6 196.5 151 199.9 151 204.1C151 208.3 147.6 211.7 143.4 211.7Z" />
				<path id="XMLID_6_" class="shp0" d="M156.6 124.9C154.06 124.9 152 122.84 152 120.3C152 117.76 154.06 115.7 156.6 115.7C159.14 115.7 161.2 117.76 161.2 120.3C161.2 122.84 159.14 124.9 156.6 124.9Z" />
				<path id="XMLID_7_" class="shp0" d="M131.2 278.8C128.66 278.8 126.6 276.74 126.6 274.2C126.6 271.66 128.66 269.6 131.2 269.6C133.74 269.6 135.8 271.66 135.8 274.2C135.8 276.74 133.74 278.8 131.2 278.8Z" />
				<path id="XMLID_8_" class="shp0" d="M324.4 204.1C322.3 204.1 320.6 202.4 320.6 200.3C320.6 198.2 322.3 196.5 324.4 196.5C326.5 196.5 328.2 198.2 328.2 200.3C328.2 202.4 326.5 204.1 324.4 204.1Z" />
				<path id="XMLID_9_" class="shp0" d="M194.9 200.1C193.9 200.1 193.1 199.3 193.1 198.3C193.1 197.3 193.9 196.5 194.9 196.5C195.9 196.5 196.7 197.3 196.7 198.3C196.7 199.3 195.9 200.1 194.9 200.1Z" />
				<path id="XMLID_10_" class="shp0" d="M309.1 101C307.55 101 306.3 99.75 306.3 98.2C306.3 96.65 307.55 95.4 309.1 95.4C310.65 95.4 311.9 96.65 311.9 98.2C311.9 99.75 310.65 101 309.1 101Z" />
				<path id="XMLID_11_" class="shp0" d="M309.1 327.5C307.55 327.5 306.3 326.25 306.3 324.7C306.3 323.15 307.55 321.9 309.1 321.9C310.65 321.9 311.9 323.15 311.9 324.7C311.9 326.25 310.65 327.5 309.1 327.5Z" />
				<path id="XMLID_12_" class="shp0" d="M413.5 269.6C409.85 269.6 406.9 266.65 406.9 263C406.9 259.35 409.85 256.4 413.5 256.4C417.15 256.4 420.1 259.35 420.1 263C420.1 266.65 417.15 269.6 413.5 269.6Z" />
				<path id="Layer" class="shp0" d="M92.1 322.9C88.17 322.9 85 319.73 85 315.8C85 311.87 88.17 308.7 92.1 308.7C96.03 308.7 99.2 311.87 99.2 315.8C99.2 319.73 96.03 322.9 92.1 322.9Z" />
				<path id="XMLID_13_" class="shp0" d="M82.7 161.5C81.15 161.5 79.9 160.25 79.9 158.7C79.9 157.15 81.15 155.9 82.7 155.9C84.25 155.9 85.5 157.15 85.5 158.7C85.5 160.25 84.25 161.5 82.7 161.5Z" />
				<path id="Layer" class="shp0" d="M255.6 75.1C251.12 75.1 247.5 71.48 247.5 67C247.5 62.52 251.12 58.9 255.6 58.9C260.08 58.9 263.7 62.52 263.7 67C263.7 71.48 260.08 75.1 255.6 75.1Z" />
				<path id="Layer" class="shp0" d="M298.2 415.3C295.1 415.3 292.6 412.8 292.6 409.7C292.6 406.6 295.1 404.1 298.2 404.1C301.3 404.1 303.8 406.6 303.8 409.7C303.8 412.8 301.3 415.3 298.2 415.3Z" />
				<path id="Layer" class="shp0" d="M374.9 181.8C371.25 181.8 368.3 178.85 368.3 175.2C368.3 171.55 371.25 168.6 374.9 168.6C378.55 168.6 381.5 171.55 381.5 175.2C381.5 178.85 378.55 181.8 374.9 181.8Z" />
			</g>
			<g id="Layer">
				<path id="XMLID_15_" class="shp1" d="M188 296.6L193.2 292.3C190.9 287 185.3 286.1 182.2 286L176.9 288.8C178.4 296.6 188 296.6 188 296.6Z" />
				<path id="XMLID_16_" class="shp1" d="M231.4 291.1C231.4 291.1 222.9 285.9 217.2 292.5C217.2 292.5 212 288.2 203 294.9L199.7 296.3C199.7 296.3 208.7 303.4 218.7 298.2C218.7 298.2 234.3 300.6 234.8 296.3C235.2 292.1 231.4 291.1 231.4 291.1Z" />
				<g id="XMLID_17_">
					<path id="XMLID_19_" class="shp1" d="M258.6 194.6C258.6 194.6 286.1 182.7 291.3 159.5C296.5 136.3 276.6 110.7 276.6 110.7C276.6 110.7 194.1 181.3 212.1 196C221.4 203.6 258.6 200.3 258.6 200.3" />
					<path id="XMLID_18_" class="shp2" d="M225.9 168.6C225.9 168.6 234.9 191.4 251.5 190.4C268.1 189.5 279.8 168.3 280.8 157.5C281.9 146.8 224 156.7 225.9 168.6Z" />
				</g>
				<g id="XMLID_20_">
					<path id="XMLID_57_" class="shp3" d="M226.9 308.9C226.9 308.9 208.9 336.4 207.9 340.7C207.9 340.7 146.7 344 132.5 350.2C118.3 356.4 113.1 374.9 125.4 384.3C137.7 393.7 219.7 397.1 242.5 389C242.5 389 360.1 404.6 380 381.9C399.9 359.1 344 336.9 296.6 339.2C296.6 339.2 280 306.5 271 302.2C261.9 298 226.9 308.9 226.9 308.9Z" />
					<path id="XMLID_21_" class="shp4" d="M250.4 390C250.4 390 226.9 388.1 205.6 372.9C205.6 372.9 218.9 391.4 234 394.2C249.1 397.1 250.4 390 250.4 390Z" />
					<path id="XMLID_22_" class="shp5" d="M161 351.6C160.1 352.6 155.3 354.9 160.1 356.8C164.8 358.7 190.9 372.9 197.6 371C204.1 369.1 165.7 346.4 161 351.6Z" />
					<path id="XMLID_23_" class="shp5" d="M301.2 368.6C302.2 368.7 322.6 363.5 331.6 359.7C340.6 355.9 342.5 353.1 344.9 353.1C347.3 353.1 346.8 348.4 340.2 348.8C333.6 349.3 306.1 361.1 306.1 361.1L301.3 369.3" />
					<path id="XMLID_24_" class="shp4" d="M294.7 356.8C294.7 356.8 272.9 361.5 269.6 361.1C266.3 360.6 276.2 340.2 299.5 338.3C299.5 338.3 276.7 337.8 261.6 354.9C246.4 372 233.6 350.6 224.1 345.9C224.1 345.9 239.3 365.1 240 367.6C240 367.6 263.6 364.6 270.4 365.7C270.4 365.7 287.6 365.9 295.9 356.6L294.7 356.8Z" />
					<g id="Layer">
						<g id="XMLID_113_">
							<path id="XMLID_117_" class="shp6" d="M213.5 366C222.2 369.7 231.4 368.8 240.6 367.9C251.6 366.7 262.7 365.9 273.8 366.1C282 366.2 290.2 366.6 298.1 368.8C303.7 370.4 309.3 372 314.7 374C315.1 374.2 315.3 373.5 314.9 373.3C302.7 368.7 290.8 365.9 277.7 365.4C266.9 365 256 365.6 245.3 366.7C234.7 367.8 223.9 369.6 213.7 365.3C213.3 365.1 213.1 365.8 213.5 366L213.5 366Z" />
						</g>
					</g>
					<g id="Layer">
						<g id="XMLID_107_">
							<path id="XMLID_111_" class="shp6" d="M206.8 375C219.3 382.2 232.7 387.3 246.8 390.2C247.2 390.3 247.4 389.6 247 389.5C232.9 386.6 219.6 381.5 207.1 374.4C206.8 374.1 206.4 374.8 206.8 375L206.8 375Z" />
						</g>
					</g>
					<g id="Layer">
						<g id="XMLID_81_">
							<path id="XMLID_105_" class="shp6" d="M182.4 360.2C175 358.4 167.6 356.9 160.1 359.3C159.7 359.4 159.9 360.1 160.3 360C167.6 357.6 174.9 359.1 182.2 360.9C182.7 360.9 182.9 360.3 182.4 360.2L182.4 360.2Z" />
						</g>
					</g>
					<g id="Layer" style="opacity: 0.49">
						<path id="XMLID_78_" class="shp7" d="M239.1 367.1C236.5 363.3 233.8 359.5 231.2 355.6" />
					</g>
					<g id="Layer">
						<g id="XMLID_73_">
							<path id="XMLID_77_" class="shp6" d="M300.6 337.7C294.2 338.1 287.6 340.2 281.9 343.2C281.5 343.4 281.9 344 282.3 343.8C287.9 340.9 294.3 338.8 300.6 338.4C301 338.4 301 337.7 300.6 337.7L300.6 337.7Z" />
						</g>
					</g>
					<g id="Layer">
						<g id="XMLID_53_">
							<path id="XMLID_71_" class="shp6" d="M205.5 340.6C210.6 340.9 215.2 342.9 218.8 346.6C219.1 346.9 219.6 346.4 219.3 346.1C215.6 342.3 210.8 340.2 205.5 339.9C205.1 339.8 205.1 340.6 205.5 340.6L205.5 340.6Z" />
						</g>
					</g>
					<g id="Layer">
						<g id="XMLID_47_">
							<path id="XMLID_51_" class="shp6" d="M292.2 359.7C286.1 362.8 280.1 365.1 273.1 365.3C272.6 365.3 272.6 366 273.1 366C280.1 365.8 286.3 363.5 292.5 360.3C292.9 360.1 292.6 359.4 292.2 359.7L292.2 359.7Z" />
						</g>
					</g>
				</g>
				<g id="XMLID_58_">
					<path id="XMLID_60_" class="shp8" d="M206.3 216.1C206.3 217 204.3 223.8 202.3 241.4C200.3 259.1 190 283.3 190.2 286.1C190.3 288.9 183.8 291.6 178.7 303.7C173.6 315.8 162.6 324.4 159.8 326.9C159.8 326.9 154 325.3 147.9 326C141.8 326.8 136 325.1 135 323.3C135 323.3 132.3 325.8 134.7 328.1C137.2 330.4 142.8 328.2 144.3 331C145.9 333.8 142.3 338.2 138.9 336.9C135.5 335.6 134.5 333.3 133.9 331.9C133.4 330.5 135.5 324.7 131.1 323.5C131.1 323.5 129.8 331.4 130.4 333.3C130.4 333.3 124.4 326.9 121.2 329.9C121.2 329.9 127.1 334.8 127.7 336.2C127.7 336.2 122.9 334.1 121.6 337C121.6 337 126 339.6 127.9 340C129.8 340.4 131.3 340.8 132.3 342.2C132.3 342.2 127 341.5 126.7 344.4C126.7 344.4 131.9 344.2 134.3 345C136.7 345.8 145.8 346.4 149 344.3C152.2 342.3 196.7 317.9 206.5 295.1C206.5 295.1 218.4 254.7 218.4 245.2" />
					<path id="XMLID_59_" class="shp9" d="M197.5 263.4C197.5 263.4 207.5 283.8 220.3 291.8C233 299.9 214.1 248.7 197.5 263.4Z" />
				</g>
				<g id="XMLID_61_">
					<path id="XMLID_63_" class="shp8" d="M300.8 217.9C300.7 218.8 302 221.6 303.9 239.3C305.8 257 315.9 281.3 315.7 284.1C315.5 286.9 322 289.7 327.1 301.8C332.1 313.9 343.1 322.6 345.8 325.1C345.8 325.1 351.6 323.5 357.7 324.3C363.8 325.1 369.6 323.5 370.7 321.7C370.7 321.7 373.4 324.2 370.9 326.5C368.4 328.7 362.8 326.5 361.3 329.3C359.7 332.1 363.3 336.5 366.7 335.3C370.1 334.1 371.2 331.7 371.7 330.3C372.3 328.9 370.2 323.1 374.5 321.9C374.5 321.9 375.7 329.8 375.2 331.7C375.2 331.7 381.2 325.4 384.4 328.4C384.4 328.4 378.4 333.3 377.9 334.7C377.9 334.7 382.8 332.6 384 335.5C384 335.5 379.6 338.1 377.7 338.5C375.8 338.9 374.3 339.3 373.3 340.6C373.3 340.6 378.6 339.9 378.9 342.8C378.9 342.8 373.7 342.5 371.3 343.3C368.9 344.1 359.8 344.6 356.6 342.5C353.4 340.4 309.1 315.7 299.5 292.9C299.5 292.9 287.9 252.4 288 242.9" />
					<path id="XMLID_62_" class="shp9" d="M299.4 301.3C299.4 301.3 308.4 286.1 316.5 284.2C324.5 282.4 295.1 265.3 299.4 301.3Z" />
				</g>
				<g id="XMLID_64_">
					<path id="XMLID_66_" class="shp8" d="M225.9 310.8L216.9 246.3L205.6 219.7C205.6 219.7 203.4 213 228.7 200.8C254.3 188.5 299.3 203.2 301 219.4C302.8 237.3 289.9 243 289.9 243L279.9 310.8C280 310.8 256.7 322.7 225.9 310.8Z" />
					<path id="XMLID_65_" class="shp9" d="M220.2 291.8C220.1 292.9 263.9 322.1 285 306C306 289.9 224.5 257.7 220.2 291.8Z" />
				</g>
				<g id="XMLID_67_">
					<path id="XMLID_68_" class="shp8" d="M231.5 200.7C230.7 203.1 244.9 186 243.5 161.4L259.5 161.4C259.5 161.4 259.5 192 275.7 201.6C275.7 201.7 250.2 225.3 231.5 200.7Z" />
					<path id="Layer" class="shp10" d="M251.3 190.4C243.28 190.4 236.8 185.21 236.8 178.8C236.8 172.39 243.28 167.2 251.3 167.2C259.32 167.2 265.8 172.39 265.8 178.8C265.8 185.21 259.32 190.4 251.3 190.4Z" />
				</g>
				<path id="XMLID_69_" class="shp8" d="M212.6 365.8C212.6 365.8 210.7 360.6 208.8 354.9C206.9 349.2 198.8 348.7 192.7 352.1C186.5 355.4 173.7 347.8 169 347.4C164.3 346.9 157.6 347.4 159 351.2C160.7 355.6 166.6 351.7 169 354.5C171.4 357.3 198.9 375.4 206.9 375.4C206.9 375.3 212.6 373.9 212.6 365.8Z" />
				<path id="Layer" class="shp8" d="M292.9 358.9C292.9 358.9 295.3 353.9 297.7 348.4C300.1 342.9 308.2 343.2 314 347.1C319.8 351 333.3 344.7 338.1 344.7C342.9 344.7 349.4 345.8 347.6 349.4C345.5 353.7 340 349.1 337.4 351.7C334.8 354.3 305.7 369.6 297.6 368.8C297.7 368.9 292.1 366.9 292.9 358.9Z" />
				<g id="XMLID_70_">
					<path id="XMLID_83_" class="shp11" d="M208.3 214.1C208.9 214.1 287.7 243.1 302.5 228.1C302.5 228.1 305.5 252.2 308.9 261.4C312.7 271.8 316.5 283.7 316.5 284.2C316.5 284.2 311.3 283.3 295.2 299.4C273.4 321.2 226.2 301.4 197.4 263.2C197.3 263.2 200.6 213.7 208.3 214.1Z" />
					<g id="Layer">
						<path id="XMLID_42_" class="shp12" d="M193.3 237.1C202.4 232.7 214.4 239.6 223.6 235.3C224.6 234.8 225.6 234.2 226.7 234C227.7 233.8 228.8 234 229.8 234.1C239.7 235.5 249.6 236.9 259.4 238.4C262 238.8 264.7 239.2 267.4 239.2C270.9 239.2 274.5 238.6 277.9 239.6C279.5 240.1 280.9 240.9 282.5 241.4C286.6 242.8 291.1 242.3 295.5 241.7C301.4 241 307.3 240.2 313.2 239.5C314.9 239.3 317.2 239.5 317.4 241.1C317.5 242.8 315 243.2 313.2 243.2C307.8 243.2 302.4 244.7 297 245.3C293.1 245.7 289.2 245.6 285.2 245.4C266.4 244.8 247.5 243.9 228.7 242.8C225.1 242.6 221.4 242.4 217.9 241.8C216.6 241.6 215.3 241.3 214.1 241.6C213.1 241.8 212.1 242.4 211.1 242.7C207.1 243.9 203.1 240.5 199 240.8C197.2 240.9 195.4 241.7 193.6 241.6C191.8 241.5 190 239.5 191.1 238.2" />
					</g>
					<g id="Layer">
						<path id="XMLID_40_" class="shp12" d="M189.8 252.1C190.2 250.1 193.1 249.4 195.3 250C197.4 250.6 199.2 252.1 201.3 252.8C207.7 255.2 214.7 250.5 221.6 250.8C226.3 251 230.7 253.5 235.3 253C236.7 252.8 238 252.4 239.3 252.3C242.2 252 245.1 252.8 247.9 253.4C257.2 255.4 266.9 255.6 276.5 255.8C282.4 255.9 288.2 256 294.1 256.1C299.4 256.2 304.8 256.3 309.9 255C311.9 254.5 313.8 253.8 315.9 253.8C317.9 253.8 320.2 254.7 320.9 256.4C315 257.2 309.1 257.9 303.2 258.7C300.3 259.1 297.5 259.5 294.6 259.5C290.2 259.6 285.8 259.1 281.4 258.9C267.7 258.3 253.9 261 240.4 259.1C236.8 258.6 233.3 257.7 229.7 258C226.6 258.2 223.6 259.2 220.5 259.1C218.2 259 216 258.4 213.7 257.8C205.9 255.9 197.7 255.3 189.6 256.1C188.6 254.7 187.6 253.2 186.7 251.8C187.9 251.8 189.1 251.7 190.3 251.7" />
					</g>
					<g id="Layer">
						<path id="XMLID_38_" class="shp12" d="M189.9 267.5C194.1 265 199.6 265.6 204.3 266.9C209.1 268.3 213.7 270.3 218.7 270.3C223.4 270.3 227.9 268.6 232.5 268.4C239.9 268.1 247.2 271.5 254.5 270.6C257.6 270.2 260.6 269 263.7 268.8C266 268.6 268.3 269 270.6 269.4C275.2 270.2 279.8 270.9 284.3 271.7C285.7 271.9 287.1 272.2 288.6 272.1C290.5 272 292.2 271.3 294 270.7C298.4 269.2 302.9 268 307.5 267.1C310 266.6 312.7 266.3 314.9 267.3C315.8 267.7 316.5 268.3 317.5 268.6C319.3 269.1 321.2 268.1 323 267.7C324.8 267.3 327.4 268.1 327.3 269.8C322.1 271.5 316.3 270.7 310.8 270.9C304.9 271.2 299.2 272.7 293.4 273.6C284.3 275 275 274.9 265.9 273.4C262.8 272.9 259.7 272.1 256.6 272C252.9 271.9 249.2 272.6 245.5 273C236.2 274.1 226.9 273.5 217.6 272.8C212.5 272.5 207.4 272.1 202.3 271.8C198.4 271.5 194.4 271.3 190.5 270.4C189.7 270.2 188.8 269.9 188.3 269.3C187.8 268.6 188.2 267.5 189.1 267.5" />
					</g>
					<g id="Layer">
						<path id="XMLID_36_" class="shp12" d="M207.1 284.4C210.7 282.9 214.8 283.4 218.6 284.5C222.3 285.6 226 287.1 229.8 287.5C240.8 288.8 252.3 281.1 262.6 285.1C264.4 285.8 266.1 286.8 268.1 286.8C269.6 286.7 270.9 286 272.3 285.7C276.3 284.6 280.6 286.1 284.4 287.5C285.8 288 287.4 288.6 288.9 288.2C290 287.9 290.9 287.1 291.9 286.6C294.3 285.6 297 286.6 299.6 286.9C303.4 287.4 307.2 286.5 311.1 286C314.9 285.5 319.1 285.5 322.2 287.5C319.9 289.1 316.8 289.6 313.9 289.7C304.2 290.3 294.3 288.8 284.9 291.1C283.4 291.5 281.9 291.9 280.4 291.9C278.7 291.8 277.1 291.2 275.5 290.7C269.4 288.7 262.9 288.7 256.5 288.7C253.9 288.7 251.2 288.7 248.6 288.9C242.5 289.5 236.5 291.6 230.4 291.4C223 291.1 216 287.6 208.6 287.5C207.5 287.5 206.4 287.5 205.4 287.2C204.4 286.8 203.6 285.8 204 284.8C204.4 283.8 206.2 283.7 206.4 284.7" />
					</g>
					<g id="Layer">
						<path id="XMLID_34_" class="shp12" d="M192.8 226C194.7 222.7 199.3 221.5 203.3 221.8C207.3 222.1 211.1 223.7 215.1 224.5C219.2 225.4 223.4 225.5 227.6 224.9C229.8 224.6 232 224.1 234.2 224.4C236.3 224.7 238.2 225.7 240.3 226.3C247.6 228.3 255 224 262.5 223.1C267.5 222.5 272.7 223.3 277.7 224.2C289.9 226.4 302.4 228.7 314.7 227.1C314.6 229.9 310.7 230.8 307.7 230.9C295.8 231.3 283.9 230.9 272 229.7C266.1 229.1 260.1 228.4 254.1 228.7C249.9 228.9 245.8 229.7 241.6 229.5C234.6 229.2 227.8 226.4 220.8 226.3C217.2 226.2 213.6 226.9 210 227.3C205.1 227.8 200.1 227.7 195.2 227C194.2 226.9 193.1 226.7 192.4 225.9C191.8 225.2 192 223.8 193 223.6" />
					</g>
					<g id="Layer">
						<path id="XMLID_32_" class="shp12" d="M232.6 299C243.7 299.3 254.9 299.5 266 298.1C268.5 297.8 270.9 297.4 273.4 297.4C275.6 297.4 277.8 297.8 279.9 298.2C287.9 299.5 295.9 300.6 304 301.2C297 304.3 288.9 303.9 281.2 303C273.5 302 265.8 300.4 258.2 301.3C253.8 301.8 249.4 303.1 245 303C241.6 302.9 238.2 301.9 235.4 300.2" />
					</g>
				</g>
				<g id="XMLID_84_">
					<path id="XMLID_86_" class="shp8" d="M282.7 151.1C282.7 170.7 260.8 186.6 251.5 186.6C242.3 186.6 220.3 170.7 220.3 151.1C220.3 131.5 233.7 106.9 250.9 106.9C268.1 106.9 282.7 131.5 282.7 151.1Z" />
					<path id="XMLID_85_" class="shp13" d="M250.7 117.4C250.7 117.4 261.9 141 279.9 149.6C297.9 158.2 279.9 149.6 279.9 149.6L257.6 116.7L244.3 113.8C244.3 113.8 224.5 143.4 227.4 152.3C230.3 161.2 227.4 152.3 227.4 152.3C227.4 152.3 243.8 120.6 254.3 117.4C264.8 114.2 248.6 112.7 248.6 112.7" />
				</g>
				<g id="XMLID_87_">
					<path id="XMLID_89_" class="shp1" d="M251 118.3C251 118.3 234.9 128.7 227.3 152.4C227.3 152.4 223 162.8 225.9 168.5C228.7 174.2 239.6 181.8 237.3 188.9C237.3 188.9 237.8 201.2 226.9 209.8C226.9 209.8 237.3 205.5 246.3 222.1C246.3 222.1 265.3 212.1 279 229.7C279 229.7 289 218.3 298.9 233C298.9 233 307.9 226.8 312.6 238.7C312.6 238.7 319.7 233 317.3 248.7C317.3 248.7 325.4 255.3 315.4 261.5C315.4 261.5 316.8 264.8 311.1 268.1L308.3 260C308.3 260 309.7 258.6 313 258.6C313 258.6 310.2 252 314.9 248.6C314.9 248.6 307.3 246.7 307.3 238.6C307.3 238.6 298.8 244.3 293.1 234.3C293.1 234.3 279.4 245.7 268.4 230.5C268.4 230.5 246.6 245.2 236.6 225.8C236.6 225.8 209.6 238.1 208.2 213.9C208.2 213.9 194 194.5 212 183.1C212 183.1 195.5 161.2 205.4 141.9C215.8 121.5 225.8 91.2 248.5 104C248.5 104 288.3 86.5 282.6 151.9C282.8 152 262.9 136.8 251 118.3Z" />
					<path id="XMLID_88_" class="shp2" d="M225.9 168.6C225.9 168.6 234.9 191.4 251.5 190.4C268.1 189.5 279.8 168.3 280.8 157.5C281.9 146.8 224 156.7 225.9 168.6Z" />
				</g>
				<path id="Layer" class="shp8" d="M224.94 161.81C222.47 162.41 219.74 159.91 218.83 156.2C217.92 152.5 219.19 149.01 221.66 148.4C224.13 147.8 226.86 150.3 227.77 154.01C228.68 157.72 227.41 161.2 224.94 161.81Z" />
				<path id="Layer" class="shp8" d="M285.66 145.07C288.13 145.68 289.39 149.16 288.48 152.87C287.57 156.57 284.84 159.08 282.37 158.47C279.9 157.87 278.64 154.38 279.54 150.67C280.45 146.97 283.19 144.46 285.66 145.07Z" />
				<path id="XMLID_90_" class="shp1" d="M199.8 259.6C189.8 256.3 185.6 268.1 185.6 268.1C178.5 265.3 176.6 274.3 176.6 274.3C170.4 279.5 176.6 286.6 176.6 286.6C176.6 287.4 176.7 288.1 176.8 288.8L182.1 286C180.8 286 179.9 286.1 179.9 286.1C182.3 281.4 178.5 276.1 178.5 276.1C185.6 276.6 188 270.4 188 270.4C213.6 279.9 220.2 250.5 220.2 250.5C220.2 250.5 209.8 262.9 199.8 259.6Z" />
				<path id="XMLID_91_" class="shp14" d="M233.2 153.1C235.3 153.6 237.3 153.8 239.4 153.7C241.4 153.6 243.4 153.1 245.4 152.3C243.8 153.7 241.6 154.5 239.4 154.7C237.2 154.8 235 154.4 233.2 153.1Z" />
				<g id="XMLID_92_">
					<path id="XMLID_93_" class="shp15" d="M247.3 174.9C250.2 176.1 253.3 175.8 256 174.3C256.5 174 256 173.3 255.6 173.6C253.1 175.1 250.2 175.2 247.5 174.1C247 173.9 246.8 174.7 247.3 174.9L247.3 174.9Z" />
				</g>
				<path id="XMLID_94_" class="shp15" d="M247.4 166.9C248.2 166.9 248.9 167 249.6 167C250.3 167 251 167 251.6 166.9C252.3 166.9 252.9 166.8 253.6 166.7C254.3 166.6 255 166.5 255.8 166.3C255.3 166.9 254.7 167.4 254 167.7C253.3 168 252.5 168.2 251.7 168.3C250.9 168.4 250.1 168.3 249.4 168C248.6 167.9 247.9 167.5 247.4 166.9Z" />
				<path id="XMLID_95_" class="shp14" d="M258.8 153.2C260.9 153.7 262.9 153.9 265 153.8C267 153.7 269 153.2 271 152.4C269.4 153.8 267.2 154.6 265 154.8C262.8 154.9 260.6 154.4 258.8 153.2Z" />
				<g id="XMLID_96_">
					<path id="XMLID_97_" class="shp1" d="M233 148.5C235.8 145.3 239.9 143.8 244.1 144.6C244.8 144.7 245.1 143.6 244.4 143.5C239.8 142.6 235.3 144.1 232.2 147.6C231.7 148.2 232.5 149.1 233 148.5L233 148.5Z" />
				</g>
				<g id="XMLID_98_">
					<path id="XMLID_99_" class="shp1" d="M271.3 147.2C268.2 143.7 263.7 142.2 259.1 143.1C258.4 143.2 258.7 144.3 259.4 144.2C263.6 143.4 267.7 144.8 270.5 148.1C271 148.6 271.8 147.8 271.3 147.2L271.3 147.2Z" />
				</g>
				<path id="XMLID_100_" class="shp1" d="M252 116.7C252.6 119.7 253.8 122.7 255.3 125.5C256.8 128.3 258.5 131 260.6 133.4C262.7 135.8 265 138.1 267.6 139.9C268.8 140.9 270.2 141.7 271.6 142.6C273 143.4 274.4 144.1 275.9 144.9C274.4 144.2 272.9 143.6 271.5 142.8C270.1 142 268.7 141.3 267.4 140.3C264.7 138.5 262.3 136.4 260 134C257.8 131.6 255.8 129 254.2 126.2C252.6 123.4 251.2 120.4 250.3 117.1L252 116.7Z" />
				<path id="XMLID_101_" class="shp1" d="M252.6 114.7C251.9 116.2 251.5 117.9 251.2 119.7C250.9 121.4 250.8 123.2 250.9 124.9C251 126.7 251.4 128.4 252 130.1C252.6 131.8 253.5 133.3 254.6 134.8C253.4 133.4 252.3 132 251.6 130.3C250.8 128.7 250.3 126.9 250 125.1C249.7 123.3 249.7 121.4 249.8 119.6C250 117.7 250.3 116 250.9 114.1L252.6 114.7Z" />
				<path id="XMLID_102_" class="shp1" d="M254.2 116.5C253.4 117 252.5 117.7 251.7 118.4C250.9 119.1 250.2 119.9 249.5 120.7C248.8 121.5 248.2 122.4 247.6 123.3C247 124.2 246.5 125.2 246.1 126.2C246.4 125.2 246.8 124.1 247.2 123.1C247.6 122.1 248.2 121.1 248.8 120.2C249.4 119.3 250 118.3 250.8 117.5C251.5 116.6 252.3 115.8 253.2 115L254.2 116.5Z" />
			</g>
			<path id="XMLID_14_" class="shp16" d="M259.1 436.6C177.42 436.6 111.4 434.54 111.4 432C111.4 429.46 177.42 427.4 259.1 427.4C340.78 427.4 406.8 429.46 406.8 432C406.8 434.54 340.78 436.6 259.1 436.6Z" />
		</g>
	</g>
</svg>