<svg xmlns="http://www.w3.org/2000/svg" viewBox="0 0 500 500" width="500" height="500">
	<style>
		tspan { white-space:pre }
		.shp0 { fill: #fff5f0 } 
		.shp1 { fill: none;stroke: #ffffff;stroke-width: 2.216 } 
		.shp2 { fill: none;stroke: #ffffff;stroke-width: 1.748 } 
		.shp3 { fill: none;stroke: #ffffff;stroke-width: 1.933 } 
		.shp4 { fill: #ffffff } 
		.shp5 { fill: #feece4 } 
		.shp6 { fill: #cddce5 } 
		.shp7 { fill: none;stroke: #fff5f0;stroke-width: 1.046 } 
		.shp8 { fill: #76ced9 } 
		.shp9 { fill: #f7d2c3 } 
		.shp10 { fill: none;stroke: #eec4b0;stroke-width: 2.062 } 
		.shp11 { fill: none;stroke: #eec4b0;stroke-width: 1.906 } 
		.shp12 { fill: #575988 } 
		.shp13 { fill: #fab59c } 
		.shp14 { fill: none;stroke: #4d2939;stroke-linecap:round;stroke-width: 1.295 } 
		.shp15 { fill: #212121 } 
		.shp16 { fill: #e6e3e2 } 
		.shp17 { fill: none;stroke: #f19e82;stroke-width: 0.953 } 
		.shp18 { fill: #4d2a3a } 
		.shp19 { fill: none;stroke: #4d2939;stroke-linecap:round;stroke-width: 1.554 } 
		.shp20 { fill: #f1636d } 
	</style>
	<g id="XMLID_98_">
		<g id="XMLID_165_">
			<g id="XMLID_227_">
				<g id="XMLID_235_">
					<g id="XMLID_238_">
						<path id="XMLID_96_" class="shp0" d="M445.3 318.8C445.3 212.4 359.1 126.2 252.7 126.2C146.3 126.2 60.1 212.4 60.1 318.8C60.1 331.3 61.3 343.5 63.6 355.3L441.9 355.3C444.1 343.5 445.3 331.3 445.3 318.8Z" />
					</g>
					<path id="XMLID_95_" class="shp0" d="M72.3 163.5C52.28 163.5 36.1 147.32 36.1 127.3C36.1 107.28 52.28 91.1 72.3 91.1C92.32 91.1 108.5 107.28 108.5 127.3C108.5 147.32 92.32 163.5 72.3 163.5Z" />
					<path id="XMLID_94_" class="shp0" d="M466 213.2C452.95 213.2 442.4 202.65 442.4 189.6C442.4 176.55 452.95 166 466 166C479.05 166 489.6 176.55 489.6 189.6C489.6 202.65 479.05 213.2 466 213.2Z" />
				</g>
				<g id="XMLID_228_">
					<path id="XMLID_93_" class="shp1" d="M321.7 161.5L428.7 161.5C428.7 161.5 428.2 156.7 416.3 152.9C404.4 149.1 395.9 158.9 382.5 152.9C369.1 146.9 361.9 138.3 344.6 143.1C327.2 147.8 321.7 161.5 321.7 161.5Z" />
					<path id="XMLID_92_" class="shp2" d="M70.7 200.3L143.9 200.3C143.9 200.3 143.5 196.8 135.4 193.9C127.3 191.1 121.4 198.3 112.2 193.9C103 189.5 98.1 183.1 86.3 186.7C74.5 190.3 70.7 200.3 70.7 200.3Z" />
					<path id="XMLID_91_" class="shp3" d="M488.5 255C486.12 255 484.2 253.08 484.2 250.7C484.2 248.32 486.12 246.4 488.5 246.4C490.88 246.4 492.8 248.32 492.8 250.7C492.8 253.08 490.88 255 488.5 255Z" />
					<path id="XMLID_90_" class="shp3" d="M185 102.9C182.62 102.9 180.7 100.98 180.7 98.6C180.7 96.22 182.62 94.3 185 94.3C187.38 94.3 189.3 96.22 189.3 98.6C189.3 100.98 187.38 102.9 185 102.9Z" />
					<path id="XMLID_89_" class="shp4" d="M388.3 118.3C386.59 118.3 385.2 116.91 385.2 115.2C385.2 113.49 386.59 112.1 388.3 112.1C390.01 112.1 391.4 113.49 391.4 115.2C391.4 116.91 390.01 118.3 388.3 118.3Z" />
					<path id="XMLID_88_" class="shp3" d="M12.1 257.5C8.73 257.5 6 254.73 6 251.3C6 247.87 8.73 245.1 12.1 245.1C15.47 245.1 18.2 247.87 18.2 251.3C18.2 254.73 15.47 257.5 12.1 257.5Z" />
				</g>
			</g>
			<g id="XMLID_166_">
				<g id="XMLID_220_">
					<path id="XMLID_87_" class="shp5" d="M298.9 298.2C302.1 283.5 306.5 269.5 314.8 254.8C323.1 240 335.2 224.6 353.6 205.9C353.6 205.9 353 209.7 351.5 216C350 222.3 347.4 231 343.4 240.7C335.3 260.2 320.9 283.7 298.9 298.2Z" />
					<path id="XMLID_86_" class="shp5" d="M292.5 307.3C298.8 295.8 296.1 280.4 291.3 266.7C286.4 252.9 279.4 240.9 277.4 234.9C277.4 234.9 272.7 248.9 271.8 264.9C271.1 280.8 274.1 299.1 292.5 307.3Z" />
					<path id="XMLID_85_" class="shp5" d="M291.3 309.9C304 298.1 319.9 292.5 335.4 289.3C350.8 286 365.6 285.1 375.2 283.3C375.2 283.3 372.4 286.5 367.4 291C362.5 295.5 355.4 301.1 347.2 306C330.7 315.7 309.1 321.7 291.3 309.9Z" />
					<path id="XMLID_84_" class="shp5" d="M272.1 335C282.7 321.3 277.9 303.2 270.3 289.1C262.7 274.9 252.5 264.4 252.5 264.4C252.5 264.4 251.7 267.6 251 272.7C250.3 277.8 249.6 284.7 249.9 292.3C250.6 307.5 254.8 325.4 272.1 335Z" />
					<path id="XMLID_83_" class="shp5" d="M272.8 334.1C284.8 325.4 301.4 320.9 318.2 320.4C335 319.9 352.3 323.6 365.2 332.5C365.2 332.5 356.6 337.8 344.5 341.6C332.4 345.4 316.9 347.6 303.7 342C290.4 336.5 282.8 334.4 278.3 333.8C274 333.3 272.8 334.1 272.8 334.1Z" />
					<path id="XMLID_82_" class="shp5" d="M257.7 347.8C257.8 348.2 257.8 348.7 257.8 349.1C258 349.1 258.2 349.2 258.4 349.2C258.8 349.2 259.2 349.2 259.5 349.2C262.6 341.1 261.1 330.5 255.5 321C248.6 309.2 235.5 299.1 218.4 296.6C218.4 296.6 219.6 303.3 223.3 311.3C227 319.3 233.1 328.8 243.5 333.8C253.8 338.6 257 343.8 257.7 347.8Z" />
				</g>
				<g id="XMLID_213_">
					<path id="XMLID_81_" class="shp5" d="M149.1 302.2C139.2 294.5 130.3 286.2 122.1 274.6C113.9 263 106.4 248.2 98.6 227.5C98.6 227.5 101.2 229.3 105.4 232.7C109.6 236.1 115.2 241.1 121.1 247.7C132.9 260.7 145.6 280.1 149.1 302.2Z" />
					<path id="XMLID_80_" class="shp5" d="M153.8 310.3C147.3 301.4 135 297.9 123.2 296.8C111.3 295.7 100 296.8 95 296.2C95 296.2 103.9 304.8 115.4 311.1C127 317.3 141.6 321.5 153.8 310.3Z" />
					<path id="XMLID_79_" class="shp5" d="M155.3 312.1C150.8 298.2 151.9 284 154.6 271C157.3 258.1 161.5 246.3 163.4 238.3C163.4 238.3 164.9 241.6 166.5 247C168.2 252.3 170 259.8 170.9 267.8C172.6 284 170 302.6 155.3 312.1Z" />
					<path id="XMLID_78_" class="shp5" d="M167.6 335.7C160.9 322.7 145.9 320 132.9 320.8C119.8 321.6 108.7 325.7 108.7 325.7C108.7 325.7 110.8 327.5 114.4 329.8C117.9 332.2 122.9 335.2 128.6 337.6C140.1 342.5 154.7 345.6 167.6 335.7Z" />
					<path id="XMLID_77_" class="shp5" d="M167.2 334.9C164.7 322.6 166.9 308.3 172 295.2C177.2 282.1 185.7 270.2 196.6 263.5C196.6 263.5 197.7 272 196.5 282.6C195.3 293.2 191.8 305.8 183.3 314C174.8 322.2 170.7 327.3 168.8 330.5C167 333.7 167.2 334.9 167.2 334.9Z" />
					<path id="XMLID_76_" class="shp5" d="M175.9 352.1C172 344.1 174.4 332.7 181.1 323.3C187.9 313.9 199.1 306.3 213.5 307.2C213.5 307.2 212.1 313.3 208.3 320C204.5 326.7 198.3 333.9 189.3 336.4C180.6 338.8 177.3 342.8 176.1 346.1C174.9 349.4 175.9 352.1 175.9 352.1Z" />
				</g>
				<g id="XMLID_208_">
					<g id="XMLID_211_">
						<path id="XMLID_75_" fill-rule="evenodd" class="shp6" d="M163.4 355.5C163.8 355.5 164.3 355.5 164.8 355.6C167.4 356 170.2 355.5 172.9 355.4C172.9 355.4 172.9 355.4 173 355.3C175.6 352.1 169.8 353.9 178.8 343C183.3 337.5 179.9 318.8 164.1 302.6C170.5 315.3 167.8 332.8 166.4 328C164.9 323.1 165 302.1 156.9 296.2C149.2 290.5 138.9 284.7 127.1 281.3C139.1 295.8 142 309 137.9 309.1C136.1 309.1 128.3 281 115.3 278.6C104.5 276.6 92.2 276.3 78.2 277.6C79.4 289.1 80.1 299.8 84.4 308.1C94.6 327.8 126 325.7 128.4 331.2C130.2 335.4 101.4 331.7 88.9 321.2C94.6 334.6 105.2 346.7 112.9 352.1C120.6 357.5 139.8 347.9 144.9 347.9C149.8 347.8 148.3 352.4 135.1 355.4C136 355.3 134.2 355.5 135.1 355.4C136.6 355.1 136.6 355.6 138.1 355.3C139.5 355 141 354.9 142 355.4C144.5 355.2 146.9 355.4 149.4 355.4C150.7 355.4 151.7 355.2 152.9 355.4C156.4 354.7 159.7 355.2 163.4 355.5Z" />
					</g>
					<path id="XMLID_74_" class="shp7" d="M93.1 292.1C93.1 292.1 124.1 309.9 167 354.9" />
					<path id="XMLID_73_" class="shp7" d="M119 298.1L125.1 315.5" />
				</g>
				<g id="XMLID_203_">
					<g id="XMLID_206_">
						<path id="XMLID_72_" fill-rule="evenodd" class="shp6" d="M419.5 314.7C424.1 306 424.9 294.8 426.2 282.9C411.6 281.5 398.7 281.8 387.5 283.8C373.9 286.2 365.6 315.6 363.7 315.5C359.3 315.4 362.4 301.6 375.1 286.5C362.8 290 352 296 343.9 301.9C335.4 308.1 335.4 330 333.8 335.1C332.3 340 329.5 321.8 336.3 308.5C319.7 325.3 316 344.8 320.7 350.6C330 362 337.4 349.4 340.1 352.8C340.9 353.7 341.1 354.1 340.2 355.3C341.5 355 342 355.4 343.2 355.3C344.7 355.2 346.6 354.7 347.8 355.1C348.6 355.1 349.1 355 349.9 354.9C350.2 354.9 351.1 354.9 351.4 354.9C357.4 354.6 362.4 355.1 368.4 355.1C369.4 355.1 370.4 355.1 371.4 355.2C379.6 354.7 387.8 354.3 396 354.9C402.8 348.3 410.3 338.6 414.8 328.1C401.7 339 371.7 342.8 373.5 338.4C375.9 332.9 408.7 335.2 419.5 314.7Z" />
					</g>
					<path id="XMLID_71_" class="shp7" d="M410.4 297.9C410.4 297.9 386.5 308.3 341.5 355.1" />
					<path id="XMLID_70_" class="shp7" d="M383.2 304L377.2 321" />
				</g>
				<g id="XMLID_200_">
					<path id="XMLID_69_" fill-rule="evenodd" class="shp8" d="M226.6 355C227.8 350.7 228.6 345.8 228.8 340.6C226.6 346.9 222.1 352.4 218.4 355.7C221.2 355.5 223.9 355.1 226.6 355Z" />
					<path id="XMLID_68_" fill-rule="evenodd" class="shp8" d="M177.4 355.3C178.6 355.3 179.8 355.3 181 355.3C179.4 354 177.5 352.5 175.2 350.5C175.6 352.2 176 353.8 176.3 355.4C176.7 355.4 177 355.3 177.4 355.3Z" />
				</g>
				<g id="XMLID_195_">
					<path id="XMLID_67_" class="shp9" d="M192.2 354C193.3 353.9 194.2 354.1 195 354.5C197.4 354.2 199.9 354.1 202.4 354.1C203.5 354 204.6 354 205.7 354C207.5 353.8 209.3 353.5 211.2 353.4C213.4 353.2 215.6 353.3 217.8 353.3C208.2 325.7 180.8 259.6 130.9 232.9C130.9 232.9 119.1 278.7 182.3 355C184.9 354.8 187.5 354.5 190 354.3C190.7 354.1 191.5 354.1 192.2 354Z" />
					<path id="XMLID_66_" class="shp7" d="M140.2 253.6L199.7 353.7" />
					<path id="XMLID_65_" class="shp7" d="M168.7 301.6L170.9 278.9" />
					<path id="XMLID_64_" class="shp7" d="M174.3 328.9L187.9 333.8" />
				</g>
				<g id="XMLID_190_">
					<path id="XMLID_63_" class="shp9" d="M278.2 350.5C281.9 351.1 285.8 351.6 289.5 352.2C290.9 352.4 292 352.4 293.5 352.8C294.8 352.7 295.8 353.5 296.9 353.7C297.1 353.7 297.3 353.8 297.5 353.8C367.2 278 356.8 230.2 356.8 230.2C285.8 268.2 281.2 310.5 267.6 348.7C270.2 349.2 272.8 349.7 275.5 350.1C276.3 350.3 277.6 350.1 278.2 350.5Z" />
					<path id="XMLID_62_" class="shp7" d="M346.6 250.7L281.6 351" />
					<path id="XMLID_61_" class="shp7" d="M316.3 297.4L315 275.3" />
					<path id="XMLID_60_" class="shp7" d="M309.6 324.5L295.9 328.9" />
				</g>
				<g id="XMLID_179_">
					<g id="XMLID_185_">
						<path id="XMLID_59_" class="shp10" d="M94.3 355.6C94.3 355.6 57 329.9 61.6 278.1" />
						<g id="XMLID_186_">
							<path id="XMLID_58_" class="shp6" d="M62.1 281.9C58.23 281.9 55.1 278.77 55.1 274.9C55.1 271.03 58.23 267.9 62.1 267.9C65.97 267.9 69.1 271.03 69.1 274.9C69.1 278.77 65.97 281.9 62.1 281.9Z" />
							<path id="XMLID_57_" class="shp6" d="M63 269.3C60.79 269.3 59 267.51 59 265.3C59 263.09 60.79 261.3 63 261.3C65.21 261.3 67 263.09 67 265.3C67 267.51 65.21 269.3 63 269.3Z" />
						</g>
					</g>
					<g id="XMLID_180_">
						<path id="XMLID_56_" class="shp10" d="M93.4 354.6C93.4 354.6 54.6 358.6 38.2 320.7" />
						<g id="XMLID_181_">
							<path id="XMLID_55_" class="shp6" d="M37.5 323.9C34.4 323.9 31.9 321.4 31.9 318.3C31.9 315.2 34.4 312.7 37.5 312.7C40.6 312.7 43.1 315.2 43.1 318.3C43.1 321.4 40.6 323.9 37.5 323.9Z" />
							<path id="XMLID_54_" class="shp6" d="M34.5 314.6C32.73 314.6 31.3 313.17 31.3 311.4C31.3 309.63 32.73 308.2 34.5 308.2C36.27 308.2 37.7 309.63 37.7 311.4C37.7 313.17 36.27 314.6 34.5 314.6Z" />
						</g>
					</g>
				</g>
				<g id="XMLID_168_">
					<g id="XMLID_174_">
						<path id="XMLID_53_" class="shp10" d="M408.2 355.6C408.2 355.6 445.5 329.9 440.9 278.1" />
						<g id="XMLID_175_">
							<path id="XMLID_52_" class="shp6" d="M440.4 281.9C436.53 281.9 433.4 278.77 433.4 274.9C433.4 271.03 436.53 267.9 440.4 267.9C444.27 267.9 447.4 271.03 447.4 274.9C447.4 278.77 444.27 281.9 440.4 281.9Z" />
							<path id="XMLID_51_" class="shp6" d="M439.5 269.3C437.29 269.3 435.5 267.51 435.5 265.3C435.5 263.09 437.29 261.3 439.5 261.3C441.71 261.3 443.5 263.09 443.5 265.3C443.5 267.51 441.71 269.3 439.5 269.3Z" />
						</g>
					</g>
					<g id="XMLID_169_">
						<path id="XMLID_50_" class="shp10" d="M409.1 354.6C409.1 354.6 447.9 358.6 464.3 320.7" />
						<g id="XMLID_170_">
							<path id="XMLID_49_" class="shp6" d="M465 323.9C461.9 323.9 459.4 321.4 459.4 318.3C459.4 315.2 461.9 312.7 465 312.7C468.1 312.7 470.6 315.2 470.6 318.3C470.6 321.4 468.1 323.9 465 323.9Z" />
							<path id="XMLID_48_" class="shp6" d="M468 314.6C466.23 314.6 464.8 313.17 464.8 311.4C464.8 309.63 466.23 308.2 468 308.2C469.77 308.2 471.2 309.63 471.2 311.4C471.2 313.17 469.77 314.6 468 314.6Z" />
						</g>
					</g>
				</g>
				<path id="XMLID_47_" class="shp11" d="M17.7 355.6L486.9 355.6" />
			</g>
		</g>
		<g id="XMLID_99_">
			<path id="XMLID_46_" class="shp11" d="M125.1 368.6L57 398.9L444.4 398.9L378.2 368.6L125.1 368.6Z" />
			<g id="XMLID_100_">
				<g id="XMLID_151_">
					<path id="XMLID_45_" class="shp12" d="M226.9 308.9L213.5 330.6L239.2 361L265.1 361L289.2 330.1L274.2 308.9L226.9 308.9Z" />
					<path id="XMLID_44_" class="shp12" d="M213.5 330.6C213.5 330.6 156 335 141.5 350.1C127.1 365.2 135.4 375.2 147.9 381.5C165.5 390.5 217.6 388.6 250.6 377.7L256 346.3L213.5 330.6Z" />
					<path id="XMLID_43_" class="shp12" d="M287.7 329.8C287.7 329.8 347.9 335 362.4 350.1C376.8 365.2 368.5 375.2 356 381.5C338.4 390.5 274.8 389 241.8 378.1L247.9 346.2L287.7 329.8Z" />
					<g id="XMLID_158_">
						<path id="XMLID_42_" class="shp13" d="M301.2 355.5L288.2 354L286.2 348.9L291.3 346.6C291.3 346.6 290.6 339.4 296.8 338.2C303 337 310.4 342 317.6 338.8C324.3 335.8 332.4 333.1 340 337.2C341.1 337.8 341.6 339.1 341.3 340.4L341.3 340.5C340.9 341.7 339.7 342.5 338.4 342.4C335.7 342.1 330.9 342.2 326.2 345C321.5 347.9 309.9 352.3 301.2 355.5L301.2 355.5Z" />
						<path id="XMLID_41_" class="shp14" d="M260.1 352.1L285.5 349.6" />
					</g>
					<g id="XMLID_152_">
						<path id="XMLID_40_" class="shp14" d="M245.5 379.3C225.2 374.6 204 362.6 204 362.6L205.3 360.5" />
						<path id="XMLID_39_" class="shp14" d="M212.8 351.8C212.8 351.8 306.6 348.9 330.7 364.1" />
						<path id="XMLID_38_" class="shp14" d="M167.2 357.8C167.2 357.8 184.2 349.8 195.8 355.1" />
						<path id="XMLID_37_" class="shp13" d="M206.6 361L212.8 351.5L206.6 348.1C206.6 348.1 207.9 341 201.8 339.3C195.7 337.6 187.9 342 181 338.2C174.6 334.7 166.7 331.3 158.8 334.9C157.6 335.4 157 336.7 157.3 338L157.3 338.1C157.6 339.4 158.7 340.2 160 340.2C162.7 340.1 167.5 340.6 171.9 343.8C179.7 349.4 206.6 361 206.6 361Z" />
						<path id="XMLID_36_" class="shp14" d="M227.7 341.1L241.9 351.4" />
					</g>
				</g>
				<path id="XMLID_35_" class="shp15" d="M288.4 213.7C278.8 198.2 277.2 172.7 277.2 172.7L253.6 163L253.6 162.2L252.2 162.6L250.8 162.2L250.8 163L227.4 172.5C227.4 172.5 224.9 199 215.3 214.5C205.8 229.8 212.6 248.9 252.3 246.1C291.8 248.9 297.9 229 288.4 213.7Z" />
				<g id="XMLID_127_">
					<path id="XMLID_34_" class="shp16" d="M265.3 225.5L288.1 232.8C292.4 234.4 293.5 239.1 292.3 243.5L274.1 308.9L226.8 308.9L210.4 242.2C209.7 239.1 211.2 234.7 214.1 233.5L238.8 224.4L265.3 225.5Z" />
					<g id="XMLID_139_">
						<g id="XMLID_144_">
							<path id="XMLID_33_" class="shp13" d="M282.2 259.4L306.1 312.8C308 318 313.4 321 318.8 319.8L318.8 319.8C325.3 318.4 329.1 311.6 326.9 305.4C322.2 292.1 308.1 265.1 303.2 251.8C300.8 245.3 293.2 242.5 287.2 245.9L287.2 245.9C282.4 248.6 280.3 254.2 282.2 259.4Z" />
							<g id="XMLID_145_">
								<path id="XMLID_32_" class="shp16" d="M289 233.4C289 233.4 296.8 234.1 306.5 259.7L283.8 271.5L276.4 249.6L289 233.4Z" />
								<path id="XMLID_31_" class="shp14" d="M285.4 270.1L288.6 255.6" />
							</g>
						</g>
						<g id="XMLID_140_">
							<path id="XMLID_30_" class="shp13" d="M311.8 294.8C311.2 294.6 311.5 296 254.3 271.7L251.8 275C251.7 278.4 252.5 281.7 254.6 283.1L311.1 318.7L311.8 294.8Z" />
							<path id="XMLID_29_" class="shp13" d="M251.8 275L251.5 247.1C251.5 246.5 252 246 252.6 246L252.6 246C253.2 246 253.6 246.4 253.7 247L261.3 280L251.8 275Z" />
							<path id="XMLID_28_" class="shp17" d="M295.3 288.7L306.5 293.1" />
						</g>
					</g>
					<g id="XMLID_128_">
						<g id="XMLID_134_">
							<path id="XMLID_27_" class="shp13" d="M221 259.4L197.1 312.8C195.2 318 189.8 321 184.4 319.8L184.4 319.8C177.9 318.4 174.1 311.6 176.3 305.4C181 292.1 195.1 265.1 200 251.8C202.4 245.3 210 242.5 216 245.9L216 245.9C220.8 248.6 222.9 254.2 221 259.4Z" />
							<g id="XMLID_135_">
								<path id="XMLID_26_" class="shp16" d="M214.2 233.4C214.2 233.4 206.4 234.1 196.7 259.7L219.4 271.5L226.8 249.6L214.2 233.4Z" />
								<path id="XMLID_25_" class="shp14" d="M217.2 270.1L214 255.6" />
							</g>
						</g>
						<g id="XMLID_129_">
							<path id="XMLID_24_" class="shp13" d="M191.4 294.8C192 294.6 191.7 296 248.9 271.7L251.4 275C251.6 278.9 250.5 281.8 248.4 283.2L192.1 318.7L191.4 294.8Z" />
							<path id="XMLID_23_" class="shp13" d="M251.4 275L251.7 247.1C251.7 246.5 251.2 246 250.6 246L250.6 246C250 246 249.6 246.4 249.5 247L241.9 280L251.4 275Z" />
							<path id="XMLID_22_" class="shp17" d="M251.6 246.6L251.8 276.4" />
							<path id="XMLID_21_" class="shp17" d="M207.9 288.7L197.2 293.1" />
						</g>
					</g>
				</g>
				<g id="XMLID_101_">
					<path id="XMLID_20_" class="shp13" d="M243 222L225.4 229.1C225.4 229.1 236.7 235.6 250.9 235.6C266.9 235.6 278.3 229.4 278.3 229.4L260 221.2L243 222Z" />
					<path id="XMLID_19_" class="shp13" d="M260 204.6C260 204.6 257.3 204.7 253.5 205.4C249.7 206.1 246.6 204.1 245.9 206.7C245.9 206.8 242.8 204.1 242.8 204.1L241.2 229.3C241.2 229.3 251.2 235.4 262.2 229L260 204.6Z" />
					<path id="XMLID_18_" class="shp18" d="M240.4 201.3C240.4 201.3 245 212.6 260.8 213.4L259.5 198.3L240.4 201.3Z" />
					<g id="XMLID_122_">
						<path id="XMLID_17_" class="shp15" d="M277.3 172.8C277.3 187.2 266.1 198.9 252.2 198.9C238.4 198.9 227.1 187.2 227.1 172.8C227.1 158.4 238.3 148.6 252.2 148.6C266.1 148.6 277.3 158.4 277.3 172.8Z" />
					</g>
					<path id="XMLID_16_" class="shp13" d="M271.9 173.3C271.9 181.5 270.7 188.6 269.5 193.6C268.3 198.5 265.1 202 260.5 204.7L259.7 205.2C254.8 208.1 248.5 208.2 243.5 205.4L243.5 205.4C238.5 202.6 235 198.8 233.9 193.5C231.9 183.9 231.7 173.3 231.7 173.3C231.7 173.3 229.8 152.6 251.5 153C273.2 153.4 271.9 173.3 271.9 173.3Z" />
					<g id="XMLID_119_">
						<path id="XMLID_15_" class="shp13" d="M234.1 194C230.4 197.5 221.3 187.2 224.7 183C227.8 179.2 232.2 183.5 232.2 183.5L232.9 187.4L234 192.6L234.3 193.8L234.1 194Z" />
					</g>
					<g id="XMLID_117_">
						<path id="XMLID_14_" class="shp13" d="M269.5 193.7C273.4 196.7 282.8 185.5 279 182.2C275.2 178.9 271.2 183.2 271.2 183.2L270.5 187.1L269.5 192.4L269.2 193.6L269.5 193.7Z" />
					</g>
					<path id="XMLID_13_" class="shp15" d="M228 179.9L232.6 185.8L231.7 171.6L228 179.9Z" />
					<path id="XMLID_12_" class="shp15" d="M275.1 179.9L270.9 185.6L271.9 171.6L275.1 179.9Z" />
					<g id="XMLID_106_">
						<path id="XMLID_11_" class="shp19" d="M252.1 185.1L252.5 187.7L251.3 188.5" />
						<g id="XMLID_111_">
							<path id="XMLID_10_" class="shp20" d="M245.2 193.7L257.9 193.7C257.9 193.7 256.5 195.8 251.6 195.8C246.2 195.8 245.2 193.7 245.2 193.7Z" />
							<path id="XMLID_9_" class="shp20" d="M245.2 193.7L248.1 192.2C248.7 191.9 249.5 191.9 250.1 192.1L251.6 192.7L253 192.2C253.6 192 254.4 192 255 192.3L257.9 193.8L245.2 193.8L245.2 193.7Z" />
						</g>
						<path id="XMLID_8_" class="shp19" d="M245.2 181C245.2 181 242.8 183.1 239.8 181" />
						<path id="XMLID_7_" class="shp19" d="M263 181C263 181 260.6 183.1 257.6 181" />
						<path id="XMLID_6_" class="shp18" d="M255.6 174.6C255.6 174.6 262.1 174.9 266.4 177.6C266.4 177.6 266.4 174.9 262.3 173.7C258.1 172.5 255.6 174.6 255.6 174.6Z" />
						<path id="XMLID_5_" class="shp18" d="M247.3 174.6C247.3 174.6 240.8 174.9 236.5 177.6C236.5 177.6 236.5 174.9 240.6 173.7C244.7 172.5 247.3 174.6 247.3 174.6Z" />
					</g>
					<path id="XMLID_4_" class="shp15" d="M234.1 157.2C234.1 157.2 241.6 172.5 274.2 173.2C274.2 173.2 277.7 158.7 261 153C244.3 147.3 234.1 157.2 234.1 157.2Z" />
					<path id="XMLID_3_" class="shp15" d="M229.5 175.7C229.5 175.7 239.5 172.7 240.8 156.1C240.8 156.2 230.6 157.7 229.5 175.7Z" />
					<path id="XMLID_2_" class="shp14" d="M232.2 189.1C232.2 189.1 231.7 186.3 227.9 186.4" />
					<path id="XMLID_1_" class="shp14" d="M271.1 189.1C271.1 189.1 271.6 186.3 275.4 186.4" />
				</g>
			</g>
		</g>
	</g>
</svg>