<svg xmlns="http://www.w3.org/2000/svg" viewBox="0 0 960 391" width="960" height="391">
	<style>
		tspan { white-space:pre }
		.shp0 { fill: #ffffff } 
		.shp1 { opacity: 0.502;fill: #ffffff } 
		.shp2 { opacity: 0.22;fill: #ffffff } 
	</style>
	<g id="Layer">
		<path id="Layer" class="shp0" d="M0 -69.6C0 -69.6 107.8 -168.3 207.4 -153.4C307 -138.4 293.1 -124.3 367.2 -126.1C441.3 -127.9 470.5 -142.1 470.5 -142.1C470.5 -142.1 492.4 -149.2 537.7 -194.5C583.1 -239.9 652.9 -256.4 673 -256.4C693.1 -256.4 850.3 -293.1 960 -199.2L960 -309L0 -309L0 -69.6Z" />
		<path id="Layer" class="shp1" d="M0 38.4C0 38.4 107.8 137.1 207.4 122.2C307 107.3 293.1 93.1 367.2 94.9C441.3 96.7 470.5 110.9 470.5 110.9C470.5 110.9 492.4 118 537.7 163.3C583.1 208.7 652.9 225.2 672.9 225.2C693 225.2 850.2 261.9 959.9 168L959.9 390.3L0 390.3L0 38.4Z" />
		<path id="Layer" class="shp0" d="M960 124.4C960 124.4 907 178.4 800.2 201.4C800.2 201.4 747.9 208.5 695.2 191C643.1 173.7 553.1 181.2 553.1 181.2C553.1 181.2 493.7 179.8 465.5 203.2C465.5 203.2 451.9 212.5 434.3 228.6C423.7 238.3 402.5 254.5 381.1 251.4C381.1 251.4 343.8 241.1 307.5 280C307.5 280 277.2 308.2 257.5 338C257.5 338 229 370.2 204.6 389.8L960 389.8L960 124.4Z" />
		<path id="Layer" class="shp2" d="M960 23.3C960 23.3 907 -30.7 800.2 -53.7C800.2 -53.7 747.9 -60.8 695.2 -43.3C643.1 -26 553.1 -33.5 553.1 -33.5C553.1 -33.5 493.7 -32.1 465.5 -55.5C465.5 -55.5 451.9 -64.8 434.3 -80.9C423.7 -90.6 402.5 -106.8 381.1 -103.7C381.1 -103.7 343.8 -93.4 307.5 -132.3C307.5 -132.3 277.2 -160.5 257.5 -190.3C257.5 -190.3 229 -289.5 204.6 -309.1L960 -309.1L960 23.3Z" />
	</g>
</svg>