<svg xmlns="http://www.w3.org/2000/svg" viewBox="0 0 624 636" width="624" height="636">
	<style>
		tspan { white-space:pre }
		.shp0 { opacity: 0.38;fill: #7c7c7c } 
		.shp1 { opacity: 0.729;fill: #7c7c7c } 
		.shp2 { opacity: 0.102;fill: #3f3f3f } 
		.shp3 { opacity: 0.2;fill: #7c7c7c } 
		.shp4 { fill: #ffffff } 
		.shp5 { opacity: 0.22;fill: #ffffff } 
		.shp6 { opacity: 0.431;fill: #7f7f80 } 
		.shp7 { opacity: 0.502;fill: #ffffff } 
	</style>
	<g id="Layer">
		<path id="Layer" class="shp0" d="M-680.4 1021.2L-1640.4 1021.2L-1640.4 683.6L-1230.8 671.2C-1230.8 671.2 -1035.4 626.2 -956.9 757.3C-956.9 757.3 -905.6 842.5 -837.3 842.5C-837.3 842.5 -730.3 847.3 -680.3 889.7L-680.3 1021.2L-680.4 1021.2Z" />
		<path id="Layer" class="shp1" d="M-680.4 837.5C-680.4 837.5 -765.5 916.7 -869.4 915.1C-869.4 915.1 -923 907.7 -939.5 905.2C-939.5 905.2 -1075.6 872.3 -1171.3 915.1C-1171.3 915.1 -1195.2 935.7 -1210.1 946.4C-1210.1 946.4 -1235.7 962.1 -1249.7 962.9C-1249.7 962.9 -1300.9 956.3 -1333.9 991.8C-1366.9 1027.3 -1399.1 1068.5 -1399.1 1068.5C-1399.1 1068.5 -1429.6 1120.5 -1525.3 1136.2C-1621 1151.9 -1640.4 1165.9 -1640.4 1165.9L-1640.4 1450L-682.5 1450L-680.4 837.5Z" />
	</g>
	<g id="Layer">
		<path id="Layer" class="shp2" d="M0 187.1C0 187.1 90.1 271.4 194.1 270C194.1 270 247.7 263.9 264.2 261.9C264.2 261.9 368.9 225.2 464.6 260.2C464.6 260.2 503.7 273.9 534.8 295.6C534.8 295.6 544.2 299.9 570.8 316.5C580 322.2 590.7 324.9 601.5 323.9C615.2 322.7 635.8 323.7 652.8 336.4C687.9 362.8 716.1 399.2 716.1 399.2C716.1 399.2 765 467.4 822.5 476C918 490.3 960 508 960 508L960 636.2L0.1 636.2L0 187.1Z" />
		<path id="Layer" class="shp3" d="M960 187.3C960 187.3 869.9 271.6 765.9 270.2C765.9 270.2 712.3 264.1 695.8 262.1C695.8 262.1 591.1 225.4 495.4 260.4C495.4 260.4 456.3 274.1 425.2 295.8C425.2 295.8 415.8 300.1 389.2 316.7C380 322.4 369.3 325.1 358.5 324.1C344.8 322.9 324.2 323.9 307.2 336.6C272.1 363 243.9 399.4 243.9 399.4C243.9 399.4 195 467.5 137.5 476.2C42 490.5 0 508.2 0 508.2L0 636.4L959.9 636.4L960 187.3Z" />
	</g>
	<g id="Layer">
		<path id="Layer" class="shp4" d="M-56.6 1969.1L-56.6 1822.7C-56.6 1822.7 -108.1 1892.2 -215 1915.2C-215 1915.2 -273.8 1920.8 -326.4 1903.3C-378.5 1886 -463.5 1891.3 -463.5 1891.3C-463.5 1891.3 -526.6 1886.3 -554.8 1909.6C-554.8 1909.6 -567.2 1920.3 -584.8 1936.5C-595.4 1946.2 -612.4 1972.2 -633.8 1969.1" />
		<path id="Layer" class="shp5" d="M-680.4 1334.1L-56.6 1334.1L-56.6 1528C-56.6 1528 -106.5 1472.1 -209.1 1474.9C-209.1 1474.9 -268.7 1484.4 -321.4 1501.8C-373.5 1519.1 -463.5 1511.6 -463.5 1511.6C-463.5 1511.6 -521.3 1516.6 -549.5 1493.3C-549.5 1493.3 -564.7 1480.4 -582.4 1464.2C-593 1454.5 -607.7 1431 -615.3 1420.4C-615.3 1420.4 -649.8 1433.5 -680.4 1431" />
		<path id="Layer" class="shp6" d="M-680.4 1738C-680.4 1738 -483.6 1734.4 -437 1779.8C-390.5 1825.1 -339.2 1832.3 -303.4 1834.7C-267.6 1837.1 -198.4 1852.6 -162.6 1917C-162.6 1917 -144.7 1949.8 -137.5 1969.2L-680.3 1969.2L-680.3 1738L-680.4 1738Z" />
		<path id="Layer" class="shp4" d="M-273.6 1334.1C-273.6 1334.1 -340.4 1350.3 -352.3 1355C-352.3 1355 -434.6 1396.8 -490.7 1402.7C-546.8 1408.6 -508.5 1393.1 -583.7 1411.1C-659 1429.1 -651.7 1430.7 -680.3 1431L-680.3 1334.1L-273.6 1334.1L-273.6 1334.1Z" />
	</g>
	<g id="Layer">
		<path id="Layer" class="shp4" d="M-1444.6 83.6C-1444.6 83.6 -1336.8 -15.1 -1237.2 -0.2C-1137.6 14.7 -1151.5 28.9 -1077.4 27.1C-1003.3 25.3 -974.1 11.1 -974.1 11.1C-974.1 11.1 -952.2 4 -906.9 -41.3C-861.5 -86.7 -791.7 -103.2 -771.7 -103.2C-751.6 -103.2 -594.4 -139.9 -484.7 -46L-484.7 -155.7L-1444.7 -155.7L-1444.7 83.6L-1444.6 83.6Z" />
		<path id="Layer" class="shp7" d="M-1444.6 191.6C-1444.6 191.6 -1336.8 290.3 -1237.2 275.4C-1137.6 260.4 -1151.5 246.3 -1077.4 248.1C-1003.3 249.9 -974.1 264.1 -974.1 264.1C-974.1 264.1 -952.2 271.2 -906.9 316.5C-861.5 361.9 -791.7 378.4 -771.7 378.4C-751.6 378.4 -594.4 415.1 -484.7 321.2L-484.7 543.5L-1444.7 543.5L-1444.6 191.6Z" />
		<path id="Layer" class="shp4" d="M-484.6 277.6C-484.6 277.6 -537.6 331.6 -644.4 354.6C-644.4 354.6 -696.7 361.7 -749.4 344.2C-801.5 326.9 -891.5 334.4 -891.5 334.4C-891.5 334.4 -950.9 333 -979.1 356.4C-979.1 356.4 -992.7 365.7 -1010.3 381.8C-1020.9 391.5 -1042.1 407.7 -1063.5 404.6C-1063.5 404.6 -1100.8 394.3 -1137.1 433.2C-1137.1 433.2 -1167.4 461.4 -1187.1 491.2C-1187.1 491.2 -1215.6 523.4 -1240 543L-484.6 543L-484.6 277.6L-484.6 277.6Z" />
		<path id="Layer" class="shp5" d="M-484.6 176.5C-484.6 176.5 -537.6 122.5 -644.4 99.5C-644.4 99.5 -696.7 92.4 -749.4 109.9C-801.5 127.2 -891.5 119.7 -891.5 119.7C-891.5 119.7 -950.9 121.1 -979.1 97.7C-979.1 97.7 -992.7 88.4 -1010.3 72.3C-1020.9 62.6 -1042.1 46.4 -1063.5 49.5C-1063.5 49.5 -1100.8 59.8 -1137.1 20.9C-1137.1 20.9 -1167.4 -7.3 -1187.1 -37.1C-1187.1 -37.1 -1215.6 -136.3 -1240 -155.9L-484.6 -155.9L-484.6 176.5L-484.6 176.5Z" />
	</g>
</svg>