<?xml version="1.0" encoding="utf-8"?>
<!-- Generator: Adobe Illustrator 25.0.0, SVG Export Plug-In . SVG Version: 6.00 Build 0)  -->
<svg version="1.1" id="Layer_1" xmlns="http://www.w3.org/2000/svg" xmlns:xlink="http://www.w3.org/1999/xlink" x="0px" y="0px"
	 viewBox="0 0 623.8 635.3" style="enable-background:new 0 0 623.8 635.3;" xml:space="preserve">
<style type="text/css">
	.st0{opacity:0.38;fill:#7C7C7C;}
	.st1{opacity:0.73;fill:#7C7C7C;}
	.st2{opacity:0.73;fill:#3F3F3F;}
	.st3{fill:#FFFFFF;}
	.st4{opacity:0.22;fill:#FFFFFF;}
	.st5{opacity:0.43;fill:#7F7F80;}
	.st6{opacity:0.5;fill:#FFFFFF;}
</style>
<g>
	<path class="st0" d="M-680.4,1021.2h-960V683.6l409.6-12.4c0,0,195.4-45,273.9,86.1c0,0,51.3,85.2,119.6,85.2c0,0,107,4.8,157,47.2
		V1021.2z"/>
	<path class="st1" d="M-680.4,837.5c0,0-85.1,79.2-189,77.6c0,0-53.6-7.4-70.1-9.9c0,0-136.1-32.9-231.8,9.9
		c0,0-23.9,20.6-38.8,31.3c0,0-25.6,15.7-39.6,16.5c0,0-51.2-6.6-84.2,28.9c-33,35.5-65.2,76.7-65.2,76.7s-30.5,52-126.2,67.7
		c-95.7,15.7-115.1,29.7-115.1,29.7v284.1h957.9L-680.4,837.5z"/>
</g>
<g>
	<path class="st2" d="M0,164.1c0,0,90.1,84.3,194.1,82.9c0,0,53.6-6.1,70.1-8.1c0,0,104.7-36.7,200.4-1.7c0,0,39.1,13.7,70.2,35.4
		c0,0,9.4,4.3,36,20.9c9.2,5.7,19.9,8.4,30.7,7.4c13.7-1.2,34.3-0.2,51.3,12.5c35.1,26.4,63.3,62.8,63.3,62.8S765,444.4,822.5,453
		C918,467.3,960,485,960,485v128.2H0.1L0,164.1z"/>
	<path class="st1" d="M960,187.3c0,0-90.1,84.3-194.1,82.9c0,0-53.6-6.1-70.1-8.1c0,0-104.7-36.7-200.4-1.7c0,0-39.1,13.7-70.2,35.4
		c0,0-9.4,4.3-36,20.9c-9.2,5.7-19.9,8.4-30.7,7.4c-13.7-1.2-34.3-0.2-51.3,12.5c-35.1,26.4-63.3,62.8-63.3,62.8
		s-48.9,68.1-106.4,76.8C42,490.5,0,508.2,0,508.2v128.2h959.9L960,187.3z"/>
</g>
<g>
	<path class="st3" d="M-56.6,1969.1v-146.4c0,0-51.5,69.5-158.4,92.5c0,0-58.8,5.6-111.4-11.9c-52.1-17.3-137.1-12-137.1-12
		s-63.1-5-91.3,18.3c0,0-12.4,10.7-30,26.9c-10.6,9.7-27.6,35.7-49,32.6"/>
	<path class="st4" d="M-680.4,1334.1h623.8V1528c0,0-49.9-55.9-152.5-53.1c0,0-59.6,9.5-112.3,26.9c-52.1,17.3-142.1,9.8-142.1,9.8
		s-57.8,5-86-18.3c0,0-15.2-12.9-32.9-29.1c-10.6-9.7-25.3-33.2-32.9-43.8c0,0-34.5,13.1-65.1,10.6"/>
	<path class="st5" d="M-680.4,1738c0,0,196.8-3.6,243.4,41.8c46.5,45.3,97.8,52.5,133.6,54.9s105,17.9,140.8,82.3
		c0,0,17.9,32.8,25.1,52.2h-542.8V1738z"/>
	<path class="st3" d="M-273.6,1334.1c0,0-66.8,16.2-78.7,20.9c0,0-82.3,41.8-138.4,47.7s-17.8-9.6-93,8.4
		c-75.3,18-68,19.6-96.6,19.9v-96.9H-273.6z"/>
</g>
<g>
	<path class="st3" d="M-1444.6,83.6c0,0,107.8-98.7,207.4-83.8s85.7,29.1,159.8,27.3c74.1-1.8,103.3-16,103.3-16s21.9-7.1,67.2-52.4
		c45.4-45.4,115.2-61.9,135.2-61.9c20.1,0,177.3-36.7,287,57.2v-109.7h-960V83.6z"/>
	<path class="st6" d="M-1444.6,191.6c0,0,107.8,98.7,207.4,83.8c99.6-15,85.7-29.1,159.8-27.3c74.1,1.8,103.3,16,103.3,16
		s21.9,7.1,67.2,52.4c45.4,45.4,115.2,61.9,135.2,61.9c20.1,0,177.3,36.7,287-57.2l0,222.3h-960L-1444.6,191.6z"/>
	<path class="st3" d="M-484.6,277.6c0,0-53,54-159.8,77c0,0-52.3,7.1-105-10.4c-52.1-17.3-142.1-9.8-142.1-9.8s-59.4-1.4-87.6,22
		c0,0-13.6,9.3-31.2,25.4c-10.6,9.7-31.8,25.9-53.2,22.8c0,0-37.3-10.3-73.6,28.6c0,0-30.3,28.2-50,58c0,0-28.5,32.2-52.9,51.8
		h755.4V277.6z"/>
	<path class="st4" d="M-484.6,176.5c0,0-53-54-159.8-77c0,0-52.3-7.1-105,10.4c-52.1,17.3-142.1,9.8-142.1,9.8s-59.4,1.4-87.6-22
		c0,0-13.6-9.3-31.2-25.4c-10.6-9.7-31.8-25.9-53.2-22.8c0,0-37.3,10.3-73.6-28.6c0,0-30.3-28.2-50-58c0,0-28.5-99.2-52.9-118.8
		h755.4V176.5z"/>
</g>
</svg>
