<svg xmlns="http://www.w3.org/2000/svg" viewBox="0 0 960 325" width="960" height="325">
	<style>
		tspan { white-space:pre }
		.shp0 { opacity: 0.502;fill: #ffffff } 
		.shp1 { opacity: 0.22;fill: #ffffff } 
	</style>
	<g id="Layer">
		<path id="Layer" class="shp0" d="M0 240.4C0 240.4 107.8 141.7 207.4 156.6C307 171.6 293.1 185.7 367.2 183.9C441.3 182.1 470.5 167.9 470.5 167.9C470.5 167.9 492.4 160.8 537.7 115.5C583.1 70.1 652.9 53.6 673 53.6C693.1 53.6 850.3 16.9 960 110.8L960 1L0 1L0 240.4Z" />
		<path id="Layer" class="shp1" d="M960 333.3C960 333.3 907 279.3 800.2 256.3C800.2 256.3 747.9 249.2 695.2 266.7C643.1 284 553.1 276.5 553.1 276.5C553.1 276.5 493.7 277.9 465.5 254.5C465.5 254.5 451.9 245.2 434.3 229.1C423.7 219.4 402.5 203.2 381.1 206.3C381.1 206.3 343.8 216.6 307.5 177.7C307.5 177.7 277.2 149.5 257.5 119.7C257.5 119.7 229 20.5 204.6 0.9L960 0.9L960 333.3Z" />
	</g>
</svg>