<svg xmlns="http://www.w3.org/2000/svg" viewBox="0 0 624 222" width="624" height="222">
	<style>
		tspan { white-space:pre }
		.shp0 { opacity: 0.149;fill: #ffffff } 
		.shp1 { fill: #ffffff } 
	</style>
	<g id="Layer">
		<path id="Layer" class="shp0" d="M0 0L623.8 0L623.8 193.8C623.8 193.8 573.9 137.9 471.3 140.7C471.3 140.7 411.7 150.2 359 167.6C306.9 184.9 216.9 177.4 216.9 177.4C216.9 177.4 159.1 182.4 130.9 159.1C130.9 159.1 115.7 146.2 98 130C87.4 120.3 72.7 96.8 65.1 86.2C65.1 86.2 30.6 99.3 0 96.8" />
		<path id="Layer" class="shp1" d="M406.8 0C406.8 0 340 16.2 328.1 20.9C328.1 20.9 245.8 62.7 189.7 68.6C133.6 74.5 171.9 59 96.7 77C21.5 95 28.6 96.5 0 96.9L0 0L406.8 0Z" />
	</g>
</svg>