<?xml version="1.0" encoding="utf-8"?>
<!-- Generator: Adobe Illustrator 25.0.0, SVG Export Plug-In . SVG Version: 6.00 Build 0)  -->
<svg version="1.1" id="Layer_1" xmlns="http://www.w3.org/2000/svg" xmlns:xlink="http://www.w3.org/1999/xlink" x="0px" y="0px"
	 viewBox="0 0 623.8 635.3" style="enable-background:new 0 0 623.8 635.3;" xml:space="preserve">
<style type="text/css">
	.st0{fill:#FFFFFF;}
	.st1{opacity:0.22;fill:#FFFFFF;}
	.st2{opacity:0.43;fill:#7F7F80;}
</style>
<g>
	<path class="st0" d="M623.8,635V488.6c0,0-51.5,69.5-158.4,92.5c0,0-58.8,5.6-111.4-11.9c-52.1-17.3-137.1-12-137.1-12
		s-63.1-5-91.3,18.3c0,0-12.4,10.7-30,26.9C85,612.1,68,638.2,46.5,635"/>
	<path class="st1" d="M0,0h623.8v193.8c0,0-49.9-55.9-152.5-53.1c0,0-59.6,9.5-112.3,26.9c-52.1,17.3-142.1,9.8-142.1,9.8
		s-57.8,5-86-18.3c0,0-15.2-12.9-32.9-29.1c-10.6-9.7-25.3-33.2-32.9-43.8c0,0-34.5,13.1-65.1,10.6"/>
	<path class="st2" d="M0,403.9c0,0,196.8-3.6,243.4,41.8s97.8,52.5,133.6,54.9s105,17.9,140.8,82.3c0,0,17.9,32.8,25.1,52.2H0V403.9
		z"/>
	<path class="st0" d="M406.8,0c0,0-66.8,16.2-78.7,20.9c0,0-82.3,41.8-138.4,47.7s-17.8-9.6-93,8.4S28.6,96.5,0,96.9V0H406.8z"/>
</g>
</svg>
