<svg xmlns="http://www.w3.org/2000/svg" viewBox="0 0 624 252" width="624" height="252">
	<style>
		tspan { white-space:pre }
		.shp0 { fill: #ffffff } 
		.shp1 { opacity: 0.149;fill: #ffffff } 
		.shp2 { opacity: 0.251;fill: #ffffff } 
	</style>
	<g id="Layer">
		<path id="Layer" class="shp0" d="M623.8 251L623.8 104.6C623.8 104.6 572.3 174.1 465.4 197.1C465.4 197.1 406.6 202.7 354 185.2C301.9 167.9 216.9 173.2 216.9 173.2C216.9 173.2 153.8 168.2 125.6 191.5C125.6 191.5 113.2 202.2 95.6 218.4C85 228.1 68 254.2 46.5 251" />
		<path id="Layer" class="shp1" d="M0 -384L623.8 -384L623.8 -190.2C623.8 -190.2 573.9 -246.1 471.3 -243.3C471.3 -243.3 411.7 -233.8 359 -216.4C306.9 -199.1 216.9 -206.6 216.9 -206.6C216.9 -206.6 159.1 -201.6 130.9 -224.9C130.9 -224.9 115.7 -237.8 98 -254C87.4 -263.7 72.7 -287.2 65.1 -297.8C65.1 -297.8 30.6 -284.7 0 -287.2" />
		<path id="Layer" class="shp2" d="M0 19.9C0 19.9 196.8 16.3 243.4 61.7C290 107.1 341.2 114.2 377 116.6C412.8 119 482 134.5 517.8 198.9C517.8 198.9 535.7 231.7 542.9 251.1L0 251.1L0 19.9Z" />
		<path id="Layer" class="shp0" d="M406.8 -384C406.8 -384 340 -367.8 328.1 -363.1C328.1 -363.1 245.8 -321.3 189.7 -315.4C133.6 -309.5 171.9 -325 96.7 -307C21.5 -289 28.6 -287.5 0 -287.1L0 -384L406.8 -384Z" />
	</g>
</svg>