<svg xmlns="http://www.w3.org/2000/svg" viewBox="0 0 960 806" width="960" height="806">
	<style>
		tspan { white-space:pre }
		.shp0 { opacity: 0.2;fill: #7c7c7c } 
		.shp1 { opacity: 0.502;fill: #7c7c7c } 
	</style>
	<g id="Layer">
		<path id="Layer" class="shp0" d="M960 376.5L0 376.5L0 38.8L409.6 26.4C409.6 26.4 605 -18.6 683.5 112.5C683.5 112.5 734.8 197.7 803.1 197.7C803.1 197.7 910.1 202.5 960.1 244.9L960.1 376.5L960 376.5Z" />
		<path id="Layer" class="shp1" d="M960 192.7C960 192.7 874.9 271.9 771 270.3C771 270.3 717.4 262.9 700.9 260.4C700.9 260.4 564.8 227.5 469.1 270.3C469.1 270.3 445.2 290.9 430.3 301.6C430.3 301.6 404.7 317.3 390.7 318.1C390.7 318.1 339.5 311.5 306.5 347C273.5 382.5 241.3 423.7 241.3 423.7C241.3 423.7 210.8 475.7 115.1 491.4C19.4 507.1 0 521.1 0 521.1L0 805.2L957.9 805.2L960 192.7Z" />
	</g>
</svg>