<?xml version="1.0" encoding="utf-8"?>
<!-- Generator: Adobe Illustrator 25.0.0, SVG Export Plug-In . SVG Version: 6.00 Build 0)  -->
<svg version="1.1" id="Layer_1" xmlns="http://www.w3.org/2000/svg" xmlns:xlink="http://www.w3.org/1999/xlink" x="0px" y="0px"
	 viewBox="0 0 960 699.1" style="enable-background:new 0 0 960 699.1;" xml:space="preserve">
<style type="text/css">
	.st0{fill:#FFFFFF;}
	.st1{opacity:0.5;fill:#FFFFFF;}
	.st2{opacity:0.22;fill:#FFFFFF;}
</style>
<g>
	<path class="st0" d="M0,239.4c0,0,107.8-98.7,207.4-83.8c99.6,15,85.7,29.1,159.8,27.3s103.3-16,103.3-16s21.9-7.1,67.2-52.4
		C583.1,69.1,652.9,52.6,673,52.6c20.1,0,177.3-36.7,287,57.2V0H0V239.4z"/>
	<path class="st1" d="M0,347.4c0,0,107.8,98.7,207.4,83.8s85.7-29.1,159.8-27.3c74.1,1.8,103.3,16,103.3,16s21.9,7.1,67.2,52.4
		c45.4,45.4,115.2,61.9,135.2,61.9c20.1,0,177.3,36.7,287-57.2l0,222.3H0L0,347.4z"/>
	<path class="st0" d="M960,433.4c0,0-53,54-159.8,77c0,0-52.3,7.1-105-10.4c-52.1-17.3-142.1-9.8-142.1-9.8s-59.4-1.4-87.6,22
		c0,0-13.6,9.3-31.2,25.4c-10.6,9.7-31.8,25.9-53.2,22.8c0,0-37.3-10.3-73.6,28.6c0,0-30.3,28.2-50,58c0,0-28.5,32.2-52.9,51.8H960
		V433.4z"/>
	<path class="st2" d="M960,332.3c0,0-53-54-159.8-77c0,0-52.3-7.1-105,10.4c-52.1,17.3-142.1,9.8-142.1,9.8s-59.4,1.4-87.6-22
		c0,0-13.6-9.3-31.2-25.4c-10.6-9.7-31.8-25.9-53.2-22.8c0,0-37.3,10.3-73.6-28.6c0,0-30.3-28.2-50-58c0,0-28.5-99.2-52.9-118.8H960
		V332.3z"/>
</g>
</svg>
