<svg xmlns="http://www.w3.org/2000/svg" viewBox="0 0 778 762" width="778" height="762">
	<defs>
		<linearGradient id="grd1" gradientUnits="userSpaceOnUse"  x1="398.82" y1="708.65" x2="398.82" y2="275.65">
			<stop offset="0" stop-color="#808080" stop-opacity="0.25" />
			<stop offset="0.54" stop-color="#808080" stop-opacity="0.12" />
			<stop offset="1" stop-color="#808080" stop-opacity="0.1" />
		</linearGradient>
	</defs>
	<style>
		tspan { white-space:pre }
		.shp0 { opacity: 0.051;fill: #ffffff } 
		.shp1 { fill: #f55f44 } 
		.shp2 { fill: none;stroke: #f55f44 } 
		.shp3 { fill: #47e6b1 } 
		.shp4 { opacity: 0.502;fill: #4d8af0 } 
		.shp5 { fill: url(#grd1) } 
		.shp6 { fill: #000000 } 
		.shp7 { fill: #575988 } 
		.shp8 { opacity: 0.051;fill: #000000 } 
		.shp9 { fill: #f7c4a7 } 
		.shp10 { opacity: 0.102;fill: #000000 } 
		.shp11 { opacity: 0.071;fill: #ffffff } 
	</style>
	<path id="Layer" class="shp0" d="M0 651.69L778 651.69L778 661.96L0 661.96L0 651.69Z" />
	<path id="Layer" class="shp0" d="M0 675.65L778 675.65L778 685.92L0 685.92L0 675.65Z" />
	<path id="Layer" class="shp0" d="M0 699.61L778 699.61L778 709.88L0 709.88L0 699.61Z" />
	<path id="Layer" class="shp0" d="M0 723.57L778 723.57L778 733.84L0 733.84L0 723.57Z" />
	<g id="Layer" style="opacity: 0.502">
		<path id="Layer" class="shp1" d="M660.14 209.08C659.08 208.32 657.9 207.76 656.64 207.42C655.39 207.08 654.08 206.97 652.79 207.09C651.49 207.21 650.23 207.56 649.06 208.13C647.89 208.69 646.83 209.46 645.93 210.4C644.96 211.46 644.2 212.69 643.7 214.04C643.2 215.38 642.96 216.81 643 218.24C643.04 219.68 643.36 221.09 643.94 222.41C644.51 223.72 645.34 224.91 646.37 225.91L659.95 239.41C660.16 239.62 660.41 239.79 660.69 239.9C660.96 240.02 661.26 240.07 661.56 240.07C661.85 240.07 662.15 240.02 662.42 239.9C662.7 239.79 662.95 239.62 663.16 239.41L676.66 225.83C677.68 224.82 678.5 223.63 679.07 222.31C679.64 221 679.95 219.58 679.99 218.15C680.02 216.71 679.78 215.29 679.27 213.94C678.76 212.6 678 211.37 677.02 210.32C676.12 209.39 675.05 208.62 673.88 208.06C672.71 207.5 671.45 207.16 670.15 207.05C668.86 206.93 667.56 207.05 666.3 207.4C665.05 207.74 663.87 208.31 662.82 209.07C662.63 209.21 662.41 209.32 662.18 209.39C661.96 209.47 661.72 209.5 661.48 209.51C661.24 209.51 661.01 209.47 660.78 209.4C660.55 209.33 660.33 209.22 660.14 209.08L660.14 209.08Z" />
		<path id="Layer" class="shp2" d="M661.65 238.88C661.57 239.02 661.51 239.18 661.47 239.34C661.43 239.5 661.41 239.66 661.41 239.82C661.41 239.99 661.43 240.15 661.47 240.31C661.51 240.47 661.57 240.63 661.65 240.77C661.7 240.84 661.75 240.91 661.79 240.98C661.84 241.06 661.88 241.13 661.93 241.2C661.97 241.28 662.01 241.35 662.06 241.42C662.1 241.5 662.14 241.57 662.18 241.65C662.53 242.52 661.92 243.47 661.3 244.18C660.91 244.63 660.48 245.23 660.73 245.78C660.76 245.83 660.79 245.88 660.83 245.92C660.86 245.97 660.9 246.02 660.94 246.06C660.98 246.1 661.02 246.14 661.06 246.19C661.1 246.23 661.14 246.26 661.19 246.3C661.61 246.7 661.91 247.2 662.08 247.75C662.24 248.3 662.26 248.89 662.13 249.45C662 250.01 661.73 250.53 661.35 250.96C660.96 251.38 660.47 251.7 659.92 251.88" />
	</g>
	<g id="Layer" style="opacity: 0.502">
		<path id="Layer" class="shp1" d="M80.14 283.08C79.08 282.32 77.9 281.76 76.64 281.42C75.39 281.08 74.08 280.97 72.79 281.09C71.49 281.21 70.23 281.56 69.06 282.13C67.89 282.69 66.83 283.46 65.93 284.4C64.96 285.46 64.2 286.69 63.7 288.04C63.2 289.38 62.96 290.81 63 292.24C63.04 293.68 63.36 295.09 63.94 296.41C64.51 297.72 65.34 298.91 66.37 299.91L79.95 313.41C80.16 313.62 80.41 313.79 80.69 313.9C80.96 314.02 81.26 314.07 81.56 314.07C81.85 314.07 82.15 314.02 82.42 313.9C82.7 313.79 82.95 313.62 83.16 313.41L96.66 299.83C97.68 298.82 98.5 297.63 99.07 296.31C99.64 295 99.95 293.58 99.99 292.15C100.02 290.71 99.78 289.29 99.27 287.94C98.76 286.6 98 285.37 97.02 284.32C96.12 283.39 95.05 282.62 93.88 282.06C92.71 281.5 91.45 281.16 90.15 281.05C88.86 280.93 87.56 281.05 86.3 281.4C85.05 281.74 83.87 282.31 82.82 283.07C82.63 283.21 82.41 283.32 82.18 283.39C81.96 283.47 81.72 283.5 81.48 283.51C81.24 283.51 81.01 283.47 80.78 283.4C80.55 283.33 80.33 283.22 80.14 283.08L80.14 283.08Z" />
		<path id="Layer" class="shp2" d="M81.65 312.88C81.57 313.02 81.51 313.18 81.47 313.34C81.43 313.5 81.41 313.66 81.41 313.82C81.41 313.99 81.43 314.15 81.47 314.31C81.51 314.47 81.57 314.63 81.65 314.77C81.7 314.84 81.75 314.91 81.79 314.98C81.84 315.06 81.88 315.13 81.93 315.2C81.97 315.28 82.01 315.35 82.06 315.42C82.1 315.5 82.14 315.57 82.18 315.65C82.53 316.52 81.92 317.47 81.3 318.18C80.91 318.63 80.48 319.23 80.73 319.78C80.76 319.83 80.79 319.88 80.83 319.92C80.86 319.97 80.9 320.02 80.94 320.06C80.98 320.1 81.02 320.14 81.06 320.19C81.1 320.23 81.14 320.26 81.19 320.3C81.61 320.7 81.91 321.2 82.08 321.75C82.24 322.3 82.26 322.89 82.13 323.45C82 324.01 81.73 324.53 81.35 324.96C80.96 325.38 80.47 325.7 79.92 325.88" />
	</g>
	<g id="Layer" style="opacity: 0.502">
		<path id="Layer" class="shp1" d="M460.14 2.08C459.08 1.32 457.9 0.76 456.64 0.42C455.39 0.08 454.08 -0.03 452.79 0.09C451.49 0.21 450.23 0.56 449.06 1.13C447.89 1.69 446.83 2.46 445.93 3.4C444.96 4.46 444.2 5.69 443.7 7.04C443.2 8.38 442.96 9.81 443 11.24C443.04 12.68 443.36 14.09 443.94 15.41C444.51 16.72 445.34 17.91 446.37 18.91L459.95 32.41C460.16 32.62 460.41 32.79 460.69 32.9C460.96 33.02 461.26 33.07 461.56 33.07C461.85 33.07 462.15 33.02 462.42 32.9C462.7 32.79 462.95 32.62 463.16 32.41L476.66 18.83C477.68 17.82 478.5 16.63 479.07 15.31C479.64 14 479.95 12.58 479.99 11.15C480.02 9.71 479.78 8.29 479.27 6.94C478.76 5.6 478 4.37 477.02 3.32C476.12 2.39 475.05 1.62 473.88 1.06C472.71 0.5 471.45 0.16 470.15 0.05C468.86 -0.07 467.56 0.05 466.3 0.4C465.05 0.74 463.87 1.31 462.82 2.07C462.63 2.21 462.41 2.32 462.18 2.39C461.96 2.47 461.72 2.5 461.48 2.51C461.24 2.51 461.01 2.47 460.78 2.4C460.55 2.33 460.33 2.22 460.14 2.08Z" />
		<path id="Layer" class="shp2" d="M461.65 31.88C461.57 32.02 461.51 32.18 461.47 32.34C461.43 32.5 461.41 32.66 461.41 32.83C461.41 32.99 461.43 33.15 461.47 33.31C461.51 33.47 461.57 33.63 461.65 33.77C461.7 33.84 461.75 33.91 461.79 33.98C461.84 34.06 461.88 34.13 461.93 34.2C461.97 34.28 462.01 34.35 462.06 34.42C462.1 34.5 462.14 34.57 462.18 34.65C462.53 35.52 461.92 36.47 461.3 37.18C460.91 37.63 460.48 38.18 460.73 38.78C460.76 38.83 460.79 38.88 460.83 38.92C460.86 38.97 460.9 39.02 460.94 39.06C460.98 39.1 461.02 39.14 461.06 39.19C461.1 39.23 461.14 39.26 461.19 39.3C461.61 39.7 461.91 40.2 462.08 40.75C462.24 41.3 462.26 41.89 462.13 42.45C462 43.01 461.73 43.53 461.35 43.96C460.96 44.38 460.47 44.7 459.92 44.88" />
	</g>
	<g id="Layer" style="opacity: 0.502">
		<path id="Layer" class="shp3" d="M552 141.18L555 141.18L555 158.18L552 158.18L552 141.18Z" />
		<path id="Layer" class="shp3" d="M562 148.18L562 151.18L545 151.18L545 148.18L562 148.18Z" />
	</g>
	<g id="Layer" style="opacity: 0.502">
		<path id="Layer" class="shp3" d="M206 402.18L209 402.18L209 419.18L206 419.18L206 402.18Z" />
		<path id="Layer" class="shp3" d="M216 409.18L216 412.18L199 412.18L199 409.18L216 409.18Z" />
	</g>
	<g id="Layer" style="opacity: 0.502">
		<path id="Layer" class="shp3" d="M128 120.18L131 120.18L131 137.18L128 137.18L128 120.18Z" />
		<path id="Layer" class="shp3" d="M138 127.18L138 130.18L121 130.18L121 127.18L138 127.18Z" />
	</g>
	<g id="Layer" style="opacity: 0.502">
		<path id="Layer" class="shp3" d="M661 383.18L664 383.18L664 400.18L661 400.18L661 383.18Z" />
		<path id="Layer" class="shp3" d="M671 390.18L671 393.18L654 393.18L654 390.18L671 390.18Z" />
	</g>
	<path id="Layer" class="shp4" d="M548.09 261.79C547.68 261.61 547.32 261.35 547 261.04C546.69 260.72 546.43 260.35 546.25 259.95C546.07 259.54 545.96 259.11 545.93 258.66C545.91 258.22 545.96 257.77 546.09 257.35C546.1 257.32 546.11 257.28 546.12 257.25C546.13 257.22 546.14 257.18 546.15 257.15C546.15 257.11 546.16 257.08 546.16 257.04C546.17 257.01 546.17 256.97 546.17 256.94L546.17 256.94C546.21 256.53 546.11 256.13 545.89 255.78C545.67 255.44 545.35 255.18 544.96 255.04C544.58 254.9 544.16 254.89 543.77 255.02C543.39 255.14 543.05 255.39 542.82 255.73L542.82 255.73C542.8 255.76 542.78 255.79 542.76 255.82C542.75 255.85 542.73 255.87 542.71 255.91C542.69 255.94 542.68 255.97 542.66 256C542.65 256.03 542.63 256.06 542.62 256.09C542.44 256.5 542.18 256.86 541.87 257.18C541.55 257.49 541.18 257.75 540.78 257.93C540.37 258.11 539.94 258.22 539.49 258.25C539.05 258.27 538.6 258.22 538.18 258.09C538.15 258.08 538.11 258.07 538.08 258.06C538.05 258.05 538.01 258.05 537.98 258.04C537.94 258.03 537.91 258.03 537.87 258.02C537.84 258.02 537.8 258.01 537.77 258.01L537.77 258.01C537.37 257.98 536.98 258.09 536.65 258.3C536.32 258.52 536.06 258.84 535.93 259.21C535.79 259.58 535.77 259.99 535.89 260.37C536 260.75 536.23 261.08 536.55 261.32L536.55 261.32C536.58 261.34 536.61 261.36 536.64 261.38C536.66 261.4 536.69 261.41 536.72 261.43C536.75 261.45 536.78 261.46 536.82 261.48C536.85 261.49 536.88 261.51 536.91 261.52C537.32 261.7 537.69 261.96 538 262.27C538.31 262.59 538.57 262.95 538.75 263.36C538.94 263.77 539.04 264.2 539.07 264.65C539.1 265.09 539.04 265.54 538.91 265.96C538.9 265.99 538.89 266.03 538.88 266.06C538.87 266.09 538.87 266.13 538.86 266.16C538.85 266.2 538.85 266.23 538.84 266.27C538.84 266.3 538.83 266.34 538.83 266.37L538.83 266.37C538.8 266.77 538.91 267.16 539.12 267.49C539.34 267.82 539.66 268.08 540.03 268.21C540.4 268.35 540.81 268.37 541.19 268.25C541.57 268.14 541.9 267.91 542.14 267.59L542.14 267.59C542.16 267.56 542.18 267.53 542.2 267.51C542.22 267.48 542.24 267.45 542.25 267.42C542.27 267.39 542.28 267.36 542.3 267.32C542.31 267.29 542.33 267.26 542.34 267.23C542.52 266.82 542.77 266.45 543.09 266.13C543.4 265.81 543.77 265.55 544.18 265.36C544.58 265.17 545.02 265.06 545.47 265.03C545.91 265 546.36 265.05 546.79 265.18C546.82 265.19 546.86 265.2 546.89 265.21C546.92 265.22 546.95 265.22 546.99 265.23C547.02 265.24 547.05 265.24 547.09 265.25C547.12 265.25 547.16 265.26 547.19 265.26L547.19 265.26C547.59 265.29 547.98 265.18 548.31 264.97C548.64 264.75 548.9 264.43 549.03 264.06C549.17 263.69 549.19 263.28 549.07 262.9C548.96 262.52 548.73 262.19 548.41 261.95L548.41 261.95C548.38 261.93 548.36 261.92 548.33 261.9C548.31 261.89 548.28 261.87 548.25 261.86C548.23 261.85 548.2 261.83 548.17 261.82C548.15 261.81 548.12 261.8 548.09 261.79Z" />
	<path id="Layer" class="shp4" d="M183.09 223.79C182.68 223.61 182.32 223.35 182 223.04C181.69 222.72 181.43 222.35 181.25 221.95C181.07 221.54 180.96 221.11 180.93 220.66C180.91 220.22 180.96 219.77 181.09 219.35C181.1 219.32 181.11 219.28 181.12 219.25C181.13 219.22 181.14 219.18 181.15 219.15C181.15 219.11 181.16 219.08 181.16 219.04C181.17 219.01 181.17 218.97 181.17 218.94L181.17 218.94C181.21 218.53 181.11 218.13 180.89 217.78C180.67 217.44 180.35 217.18 179.96 217.04C179.58 216.9 179.16 216.89 178.77 217.02C178.39 217.14 178.05 217.39 177.82 217.73L177.82 217.73C177.8 217.76 177.78 217.79 177.76 217.82C177.75 217.85 177.73 217.87 177.71 217.91C177.69 217.94 177.68 217.97 177.66 218C177.65 218.03 177.63 218.06 177.62 218.09C177.44 218.5 177.18 218.86 176.87 219.18C176.55 219.49 176.18 219.75 175.78 219.93C175.37 220.11 174.94 220.22 174.49 220.25C174.05 220.27 173.6 220.22 173.18 220.09C173.15 220.08 173.11 220.07 173.08 220.06C173.05 220.05 173.01 220.05 172.98 220.04C172.94 220.03 172.91 220.03 172.87 220.02C172.84 220.02 172.8 220.01 172.77 220.01L172.77 220.01C172.37 219.98 171.98 220.09 171.65 220.3C171.32 220.52 171.06 220.84 170.93 221.21C170.79 221.58 170.77 221.99 170.89 222.37C171 222.75 171.23 223.08 171.55 223.32L171.55 223.32C171.58 223.34 171.61 223.36 171.64 223.38C171.66 223.4 171.69 223.41 171.72 223.43C171.75 223.45 171.78 223.46 171.82 223.48C171.85 223.49 171.88 223.51 171.91 223.52C172.32 223.7 172.69 223.95 173.01 224.26C173.33 224.57 173.59 224.94 173.78 225.35C173.97 225.75 174.08 226.19 174.11 226.64C174.14 227.08 174.09 227.53 173.96 227.96C173.95 227.99 173.94 228.03 173.93 228.06C173.92 228.09 173.92 228.13 173.91 228.16C173.9 228.2 173.9 228.23 173.89 228.27C173.89 228.3 173.88 228.34 173.88 228.37L173.88 228.37C173.85 228.77 173.96 229.16 174.17 229.49C174.39 229.82 174.71 230.08 175.08 230.21C175.45 230.35 175.86 230.37 176.24 230.25C176.62 230.14 176.95 229.91 177.19 229.59L177.19 229.59C177.21 229.56 177.23 229.53 177.25 229.51C177.27 229.48 177.29 229.45 177.3 229.42C177.32 229.39 177.33 229.36 177.35 229.32C177.36 229.29 177.38 229.26 177.39 229.23C177.57 228.82 177.82 228.45 178.14 228.13C178.45 227.81 178.82 227.55 179.23 227.36C179.63 227.17 180.07 227.06 180.52 227.03C180.96 227 181.41 227.05 181.84 227.18C181.87 227.19 181.91 227.2 181.94 227.21C181.97 227.22 182 227.22 182.04 227.23C182.07 227.24 182.1 227.24 182.14 227.25C182.17 227.25 182.21 227.26 182.24 227.26L182.24 227.26C182.64 227.29 183.03 227.18 183.36 226.97C183.69 226.75 183.95 226.43 184.08 226.06C184.22 225.69 184.24 225.28 184.12 224.9C184.01 224.52 183.78 224.19 183.46 223.95L183.46 223.95C183.43 223.93 183.4 223.92 183.37 223.9C183.34 223.89 183.31 223.87 183.28 223.86C183.25 223.84 183.22 223.83 183.19 223.82C183.15 223.81 183.12 223.8 183.09 223.79Z" />
	<path id="Layer" class="shp4" d="M327.09 28.79C326.68 28.61 326.32 28.35 326 28.04C325.69 27.72 325.43 27.35 325.25 26.95C325.07 26.54 324.96 26.11 324.93 25.66C324.91 25.22 324.96 24.77 325.09 24.35C325.1 24.32 325.11 24.28 325.12 24.25C325.13 24.22 325.14 24.18 325.15 24.15C325.15 24.11 325.16 24.08 325.16 24.04C325.17 24.01 325.17 23.97 325.17 23.94L325.17 23.94C325.21 23.53 325.11 23.13 324.89 22.78C324.67 22.44 324.35 22.18 323.96 22.04C323.58 21.9 323.16 21.89 322.77 22.02C322.39 22.14 322.05 22.39 321.82 22.73L321.82 22.73C321.8 22.76 321.78 22.79 321.76 22.82C321.75 22.85 321.73 22.87 321.71 22.91C321.69 22.94 321.68 22.97 321.66 23C321.65 23.03 321.63 23.06 321.62 23.09C321.44 23.5 321.19 23.87 320.88 24.19C320.56 24.51 320.2 24.77 319.79 24.96C319.38 25.15 318.95 25.26 318.5 25.29C318.06 25.32 317.61 25.27 317.18 25.14C317.15 25.13 317.11 25.12 317.08 25.11C317.05 25.1 317.01 25.1 316.98 25.09C316.94 25.08 316.91 25.08 316.87 25.07C316.84 25.07 316.8 25.06 316.77 25.06L316.77 25.06C316.37 25.03 315.98 25.14 315.65 25.35C315.32 25.57 315.06 25.89 314.93 26.26C314.79 26.63 314.77 27.04 314.89 27.42C315 27.8 315.23 28.13 315.55 28.37L315.55 28.37C315.58 28.39 315.61 28.41 315.64 28.43C315.66 28.45 315.69 28.46 315.72 28.48C315.75 28.5 315.78 28.51 315.82 28.53C315.85 28.54 315.88 28.56 315.91 28.57C316.32 28.75 316.69 29 317.01 29.31C317.33 29.62 317.59 29.99 317.78 30.4C317.97 30.8 318.08 31.24 318.11 31.69C318.14 32.13 318.09 32.58 317.96 33.01C317.95 33.04 317.94 33.08 317.93 33.11C317.92 33.14 317.92 33.18 317.91 33.21C317.9 33.25 317.9 33.28 317.89 33.32C317.89 33.35 317.88 33.39 317.88 33.42L317.88 33.42C317.85 33.82 317.96 34.21 318.17 34.54C318.39 34.87 318.71 35.13 319.08 35.26C319.45 35.4 319.86 35.42 320.24 35.3C320.62 35.19 320.95 34.96 321.19 34.64L321.19 34.64C321.21 34.61 321.23 34.58 321.25 34.56C321.27 34.53 321.29 34.5 321.3 34.47C321.32 34.44 321.33 34.41 321.35 34.37C321.36 34.34 321.38 34.31 321.39 34.28C321.57 33.87 321.82 33.5 322.14 33.18C322.45 32.86 322.82 32.6 323.23 32.41C323.63 32.22 324.07 32.11 324.52 32.08C324.96 32.05 325.41 32.1 325.84 32.23C325.87 32.24 325.91 32.25 325.94 32.26C325.97 32.27 326 32.27 326.04 32.28C326.07 32.29 326.1 32.29 326.14 32.3C326.17 32.3 326.21 32.31 326.24 32.31L326.24 32.31C326.64 32.34 327.03 32.23 327.36 32.02C327.69 31.8 327.95 31.48 328.08 31.11C328.22 30.74 328.24 30.33 328.12 29.95C328.01 29.57 327.78 29.24 327.46 29L327.46 29C327.43 28.98 327.4 28.96 327.37 28.94C327.34 28.92 327.31 28.9 327.28 28.88C327.25 28.86 327.22 28.85 327.19 28.83C327.16 28.82 327.12 28.8 327.09 28.79Z" />
	<path id="Layer" fill-rule="evenodd" class="shp5" d="M629.08 608.97C626.71 624.36 606.11 629.42 588.02 630.86C604.18 636.04 617.62 647.28 604.74 671.64C579.63 719.12 440.63 707.44 440.63 707.44C440.63 707.44 440.34 706.8 439.92 705.8C418.25 707.96 391.23 704.37 372.4 700.96L371.67 700.96C327.32 710.9 231.37 706.27 231.37 706.27C231.37 706.27 206.21 694.6 197.21 677.47C191.48 666.61 198.25 650.57 210.48 641.89C191.08 637.57 161.68 628.08 169.73 611.31C181.51 586.79 229.41 628.43 229.41 628.43L296.93 581.73C314.99 572.73 312.64 500.73 312.64 500.73C312.64 500.73 311.82 456.73 318.16 443.86C320.03 440.03 325.97 436.47 333.37 433.37C333.97 422.81 334.72 412.42 329.19 404.6C325.75 399.74 320.51 397.1 316.82 392.5C312.17 386.75 310.54 378.56 310.17 370.68C309.4 353.89 315.21 335.22 328.29 328.22C331.76 326.36 335.69 325.38 338.76 322.68C349.08 313.55 344.23 291.16 354.94 282.68C358.06 280.22 361.93 279.52 365.67 279.01C376.13 277.56 386.58 277.43 397.13 277.43C403.94 277.45 410.96 275.18 417.69 275.67C435.8 276.99 444.9 300.19 453.69 315.44C459.12 324.85 466.08 333.86 475.36 337.16C478.29 338.2 481.58 338.76 483.69 341.37C484.02 341.85 484.32 342.35 484.59 342.86C484.86 343.37 485.1 343.9 485.31 344.44C485.52 344.98 485.7 345.53 485.85 346.09C486 346.66 486.11 347.23 486.19 347.8C489.58 364.28 487.31 382.49 493.95 397.54C499.33 409.76 509.63 417.68 517.81 427.54C525.99 437.4 532.45 452.1 527.45 464.54C526.73 466.27 525.81 467.9 524.71 469.42C523.61 470.93 522.34 472.31 520.92 473.53C519.5 474.76 517.95 475.81 516.29 476.67C514.63 477.54 512.87 478.21 511.06 478.67C510.61 478.8 510.09 478.92 509.61 479.02C509.52 480.06 509.41 481.11 509.27 482.15C509.14 483.18 508.98 484.22 508.79 485.25C508.61 486.28 508.4 487.31 508.17 488.33C507.94 489.35 507.68 490.37 507.4 491.38C507.4 491.38 509.76 538.08 511.33 548.98C512.9 559.88 516.82 575.44 516.82 575.44L565.48 612.81C565.48 612.81 633.4 580.89 629.08 608.97ZM498.69 608.91C488.09 603.86 482.99 586.34 482.99 586.34C482.99 586.34 476.71 508.11 479.06 496.05C479.18 495.35 479.25 494.65 479.27 493.94C479.29 493.23 479.26 492.52 479.18 491.82C479.1 491.11 478.98 490.41 478.8 489.73C478.63 489.04 478.41 488.37 478.14 487.71C478.24 488.19 478.33 488.67 478.4 489.15C478.48 489.64 478.54 490.12 478.58 490.61C478.63 491.1 478.66 491.58 478.68 492.07C478.7 492.56 478.71 493.05 478.7 493.54C478.7 494 478.7 494.47 478.7 494.94C478.92 501.35 476.98 509.8 470.44 520.57C467.39 525.57 466.04 532.23 465.89 539.85C466.48 574 489 625.01 494.4 636.79C505.4 637.48 526.04 636.96 551.48 627.7L498.69 608.91ZM247.06 638.56C272.82 642.13 318.85 643.85 338.6 644.45L339.45 644.4C339.47 644.29 339.53 644.15 339.53 643.98L339.39 643.98C339.39 643.98 351.4 585.43 351.71 550.14C351.59 542.9 351.01 536.82 349.59 532.67C349.37 532.02 349.16 531.36 348.96 530.7C348.76 530.04 348.57 529.37 348.39 528.7C348.21 528.04 348.04 527.37 347.88 526.69C347.72 526.02 347.58 525.35 347.44 524.67L339.39 587.9C338.21 601.13 326.82 606.58 326.82 606.58L302.4 622.15L247.06 638.56ZM253.82 659.12L259.82 659.12L259.82 659L253.82 659.12Z" />
	<path id="Layer" class="shp6" d="M451.82 321.79C457.06 330.97 463.82 339.79 472.82 342.96C475.65 343.96 478.82 344.53 480.82 347.08C481.14 347.55 481.43 348.03 481.69 348.53C481.96 349.03 482.19 349.55 482.4 350.07C482.6 350.6 482.78 351.14 482.92 351.69C483.06 352.23 483.17 352.79 483.25 353.35C486.52 369.41 484.33 387.16 490.75 401.85C495.95 413.74 505.9 421.48 513.81 431.07C521.72 440.66 527.92 455 523.13 467.12C522.44 468.8 521.55 470.39 520.49 471.86C519.43 473.34 518.2 474.68 516.83 475.88C515.46 477.07 513.95 478.1 512.35 478.94C510.74 479.79 509.04 480.45 507.28 480.9C500.66 482.7 493.75 481.95 487.03 480.76C478.17 479.19 469.15 476.76 461.77 470.76C449 460.38 443.6 441.76 436.92 425.19C433.78 417.43 429.61 409.3 422.71 406.53C414.81 403.35 405.92 408.66 400.79 416.45C395.66 424.24 393.39 434.03 390.9 443.45C388.1 454.09 384.56 465.13 377.19 472.09C375.6 473.64 373.8 474.95 371.84 475.98C369.87 477.02 367.77 477.76 365.6 478.2C363.42 478.63 361.2 478.75 358.99 478.55C356.78 478.35 354.61 477.83 352.55 477.01C344.35 473.6 337.87 464.95 335.98 454.92C333.08 439.47 340.04 420.92 331.49 408.7C328.17 403.97 323.1 401.39 319.54 396.91C315.09 391.3 313.47 383.31 313.12 375.64C312.37 359.26 317.98 341.01 330.63 334.23C334.01 332.42 337.78 331.47 340.75 328.83C350.75 319.94 346.03 298.11 356.38 289.83C359.38 287.42 363.14 286.75 366.76 286.24C376.9 284.84 386.97 284.68 397.16 284.71C403.75 284.71 410.54 282.51 417.04 282.99C434.54 284.3 443.33 306.92 451.82 321.79Z" />
	<path id="Layer" class="shp7" d="M264.1 652.85L267.93 698.22L535.82 696.62L530.71 647.09L440.14 636.55L281.32 646.14L264.1 652.85L264.1 652.85Z" />
	<path id="Layer" class="shp8" d="M264.1 652.85L267.93 698.22L535.82 696.62L530.71 647.09L440.14 636.55L281.32 646.14L264.1 652.85L264.1 652.85Z" />
	<path id="Layer" class="shp9" d="M440.37 684.55L351.19 692.9C351.19 692.9 412.29 708.46 447.96 700.9L440.37 684.55Z" />
	<path id="Layer" class="shp10" d="M440.37 684.55L351.19 692.9C351.19 692.9 412.29 708.46 447.96 700.9L440.37 684.55Z" />
	<path id="Layer" class="shp9" d="M372.44 365.02C372.44 365.02 389.9 410.94 364.09 431.43C338.28 451.92 359.54 509.23 359.54 509.23L458.97 504.67C458.97 504.67 468.83 440.16 463.52 426.5C463.52 426.5 439.99 433.33 434.68 418.91C429.37 404.49 425.57 365.02 425.57 365.02L372.44 365.02Z" />
	<path id="Layer" class="shp7" d="M349.67 642.81C349.67 642.81 265.8 640.91 241.14 634.81C216.48 628.71 195.22 657.99 203.95 674.73C212.68 691.47 236.95 702.81 236.95 702.81C236.95 702.81 361.81 708.88 388.75 691.81C388.75 691.81 399 662.59 388.75 656.9L258.59 656.9L354.59 655L349.67 642.81Z" />
	<path id="Layer" class="shp7" d="M482.87 634.08C482.87 634.08 510.96 640.15 549.66 624.97C549.66 624.97 622.15 622.7 597.86 668.97C573.57 715.24 439.23 703.89 439.23 703.89C439.23 703.89 431.23 686.81 439.23 682.26C447.23 677.71 516.65 648.48 538.28 650L478.28 661.76L482.87 634.08Z" />
	<path id="Layer" class="shp10" d="M429.01 387.11C427.56 376.3 426.71 367.49 426.71 367.49L373.58 367.49C374.19 369.23 374.76 370.98 375.28 372.75C375.8 374.52 376.27 376.3 376.69 378.09C377.12 379.89 377.49 381.69 377.82 383.51C378.15 385.32 378.43 387.14 378.66 388.97C382.36 391.56 386.46 393.53 390.79 394.81C395.12 396.09 399.63 396.66 404.15 396.49C408.66 396.32 413.12 395.43 417.34 393.83C421.57 392.24 425.51 389.97 429.01 387.11Z" />
	<path id="Layer" class="shp9" d="M401.47 394.05C378.39 394.05 359.73 375.39 359.73 352.31C359.73 329.23 378.39 310.57 401.47 310.57C424.55 310.57 443.21 329.23 443.21 352.31C443.21 375.39 424.55 394.05 401.47 394.05Z" />
	<path id="Layer" class="shp9" d="M376.99 424.98C376.99 424.98 326.9 434.47 320.83 446.98C314.76 459.49 315.52 502.39 315.52 502.39C315.52 502.39 317.79 572.59 300.34 581.32L235.06 626.86C235.06 626.86 188.77 586.26 177.38 610.16C165.99 634.06 232.03 642.8 232.03 642.8L305.65 620.8L329.18 605.62C329.18 605.62 340.18 600.31 341.32 587.4L351.19 509.23L390.66 497.84L454.41 497.84L462.95 473.46C462.95 473.46 478.7 486.08 476.42 497.84C474.14 509.6 480.22 585.84 480.22 585.84C480.22 585.84 485.15 602.91 495.4 607.84L554.6 629.09C554.6 629.09 617.21 635.16 621.39 607.84C625.57 580.52 559.91 611.73 559.91 611.73L512.82 575.26C512.82 575.26 509.03 560.08 507.51 549.45C505.99 538.82 503.72 493.29 503.72 493.29C503.72 493.29 518.14 445.47 476.39 437.13L422.5 420.43L376.99 424.98Z" />
	<path id="Layer" class="shp10" d="M343.41 434.66L351.19 486.08C351.19 486.08 343.19 509.99 351.19 533.52C359.19 557.05 341.32 644.73 341.32 644.73C341.32 644.73 435.06 674.73 492.32 640.17C492.32 640.17 450.2 551.37 468.03 521.77C485.86 492.17 468.33 480.59 468.33 480.59L471.07 426.14L458.17 422.34L450.58 476.23C450.58 476.23 398.21 512.66 359.5 480.79L351.15 422.34L343.41 434.66Z" />
	<path id="Layer" class="shp11" d="M397.55 495.73C395.54 492.52 392.95 489.71 389.92 487.44C386.89 485.16 383.46 483.47 379.81 482.45C376.16 481.42 372.36 481.08 368.59 481.44C364.81 481.8 361.14 482.85 357.75 484.54C370.46 494.09 384.48 496.64 397.55 495.73Z" />
	<path id="Layer" class="shp11" d="M419.06 490.08C421.07 486.87 423.65 484.06 426.68 481.79C429.71 479.52 433.13 477.82 436.78 476.8C440.42 475.77 444.22 475.43 447.99 475.79C451.76 476.15 455.43 477.2 458.82 478.89C446.14 488.4 432.13 490.94 419.06 490.08Z" />
	<path id="Layer" class="shp10" d="M343.41 434.66L351.19 483.42C351.19 483.42 343.19 507.33 351.19 530.86C359.19 554.39 341.32 642.05 341.32 642.05C341.32 642.05 435.06 672.05 492.32 637.5C492.32 637.5 450.2 548.7 468.03 519.1C485.86 489.5 468.33 477.92 468.33 477.92L471.07 423.46L458.17 419.67L450.58 473.56C450.58 473.56 398.21 509.99 359.5 478.11L351.15 419.67L343.41 434.66Z" />
	<path id="Layer" class="shp6" d="M343.03 434.28L351.19 484.18C351.19 484.18 343.19 508.09 351.19 531.62C359.19 555.15 341.32 642.81 341.32 642.81C341.32 642.81 435.06 672.81 492.32 638.26C492.32 638.26 450.2 549.45 468.03 519.85C485.86 490.25 468.33 478.68 468.33 478.68L471.07 424.22L458.17 420.43L450.58 474.32C450.58 474.32 398.21 510.75 359.5 478.87L351.15 420.43L343.03 434.28Z" />
	<path id="Layer" class="shp9" d="M381.55 661.4L401.28 658.73C401.28 658.73 424.05 629.51 440.37 651.9C440.37 651.9 447.2 666.32 455.55 668.97C456.98 669.4 458.41 669.81 459.85 670.18C461.3 670.56 462.75 670.9 464.2 671.22C465.66 671.54 467.12 671.82 468.59 672.08C470.06 672.34 471.53 672.57 473.01 672.77L439.23 682.26C439.23 682.26 424.43 690.99 408.87 688.71C406.59 688.36 404.29 688.15 401.99 688.07C399.68 687.99 397.37 688.05 395.08 688.24C392.78 688.43 390.49 688.76 388.23 689.22C385.97 689.68 383.74 690.27 381.55 690.99L381.55 661.4Z" />
	<path id="Layer" class="shp10" d="M359.73 537.5C359.73 537.5 395.4 542.81 401.47 533.33" />
	<path id="Layer" class="shp10" d="M427.28 531.43C427.28 531.43 434.11 538.26 461.43 533.33" />
	<path id="Layer" class="shp10" d="M357.82 425.55C357.82 425.55 384.01 429.35 388.94 427.07" />
	<path id="Layer" class="shp10" d="M415.51 425.55C415.51 425.55 441.7 429.35 446.63 427.07" />
	<path id="Layer" class="shp10" d="M384.39 658.56C384.39 658.56 391.61 692.56 384.39 693.76C377.17 694.96 366.94 688.16 366.94 687.4C366.94 686.64 371.49 665.01 371.49 665.01L384.39 658.56Z" />
	<path id="Layer" class="shp7" d="M383.64 658.56C383.64 658.56 390.85 692.56 383.64 693.76C376.43 694.96 366.18 688.16 366.18 687.4C366.18 686.64 370.73 665.01 370.73 665.01L383.64 658.56Z" />
	<path id="Layer" class="shp10" d="M348.41 420.57C345.22 427.96 344.09 436.68 347.47 443.98C350.05 449.55 355.1 454.06 356.07 460.12C357.29 467.73 351.65 475.45 353.76 482.86C354.56 485.69 356.43 488.09 358.33 490.34C364.11 497.17 371.79 503.79 380.71 503.26C382.13 489.48 370.21 476.11 374.11 462.82C375.51 458.06 378.79 454.1 380.77 449.56C384.06 442.03 383.59 433.43 382.4 425.3C380.67 413.5 376.29 399.04 364.59 393.52C359.22 390.98 351.59 390.79 349.68 397.69C348.63 401.37 351.08 404.83 351.41 408.43C351.82 413 350.18 416.47 348.41 420.57Z" />
	<path id="Layer" class="shp6" d="M354.41 419.44C351.22 426.83 350.09 435.54 353.47 442.85C356.05 448.41 361.1 452.93 362.07 458.98C363.29 466.59 357.65 474.31 359.76 481.72C360.56 484.55 362.43 486.96 364.33 489.21C370.11 496.03 377.79 502.65 386.71 502.12C388.13 488.34 376.21 474.97 380.11 461.68C381.51 456.92 384.79 452.96 386.77 448.42C390.06 440.89 389.59 432.29 388.4 424.16C386.67 412.36 382.29 397.9 370.59 392.38C365.22 389.84 357.59 389.66 355.68 396.55C354.63 400.23 357.08 403.69 357.41 407.29C357.82 411.86 356.18 415.33 354.41 419.44Z" />
	<path id="Layer" class="shp10" d="M351.38 331.82C351.38 331.82 406.78 324.23 408.3 335.61C409.82 346.99 458.78 365.61 458.78 365.61L446.63 335.61L424.24 298.42C424.24 298.42 383.24 295.42 381.36 298.42C379.48 301.42 357.82 311.32 357.82 311.32L351.38 331.82Z" />
	<path id="Layer" class="shp6" d="M351.38 331.06C351.38 331.06 406.78 323.47 408.3 334.85C409.82 346.23 458.78 364.85 458.78 364.85L446.63 334.85L424.24 297.66C424.24 297.66 383.24 294.66 381.36 297.66C379.48 300.66 357.82 310.56 357.82 310.56L351.38 331.06Z" />
	<path id="Layer" class="shp10" d="M447.82 412.15C448.49 412.95 449.11 413.79 449.69 414.67C450.26 415.55 450.78 416.45 451.25 417.39C451.72 418.33 452.13 419.29 452.49 420.27C452.84 421.26 453.14 422.26 453.38 423.28C454.3 427.2 454.38 431.28 455.21 435.2C457.07 443.55 462.6 450.57 468.36 456.89C468.83 457.46 469.32 458.01 469.84 458.54C470.35 459.06 470.9 459.56 471.46 460.04C472.02 460.51 472.61 460.96 473.22 461.38C473.82 461.8 474.45 462.19 475.09 462.55C477.73 463.85 481.09 464.12 483.53 462.55C481.21 460.64 479.95 457.73 479.12 454.85C478.83 453.84 478.58 452.83 478.37 451.8C478.15 450.78 477.98 449.75 477.86 448.71C477.73 447.67 477.64 446.62 477.59 445.58C477.55 444.53 477.54 443.49 477.58 442.44C477.83 435.44 479.88 428.05 476.97 421.67C475.29 417.98 472.16 415.18 468.97 412.67C468.42 412.22 467.85 411.79 467.27 411.37C466.7 410.95 466.11 410.54 465.52 410.15C464.92 409.76 464.31 409.38 463.7 409.02C463.09 408.66 462.46 408.31 461.83 407.98C457.11 405.63 451.71 404.6 446.5 404.08C439.72 403.39 445.65 409.59 447.82 412.15Z" />
	<path id="Layer" class="shp6" d="M450.82 411.02C451.49 411.82 452.12 412.66 452.69 413.54C453.26 414.41 453.78 415.32 454.25 416.25C454.72 417.19 455.13 418.15 455.49 419.13C455.84 420.12 456.14 421.12 456.38 422.14C457.3 426.06 457.38 430.14 458.21 434.06C460.07 442.41 465.6 449.43 471.36 455.75C471.83 456.32 472.32 456.87 472.84 457.4C473.35 457.92 473.9 458.42 474.46 458.9C475.02 459.37 475.61 459.82 476.22 460.24C476.82 460.66 477.45 461.05 478.09 461.41C480.73 462.71 484.09 462.98 486.53 461.41C484.21 459.5 482.95 456.6 482.12 453.71C481.83 452.7 481.58 451.69 481.37 450.66C481.15 449.64 480.98 448.61 480.86 447.57C480.73 446.53 480.64 445.48 480.59 444.44C480.55 443.39 480.54 442.35 480.58 441.3C480.83 434.3 482.88 426.91 479.97 420.53C478.29 416.85 475.16 414.05 471.97 411.53C471.42 411.08 470.85 410.64 470.28 410.22C469.7 409.8 469.11 409.39 468.52 409C467.92 408.61 467.32 408.23 466.7 407.87C466.09 407.51 465.46 407.16 464.83 406.83C460.11 404.48 454.71 403.45 449.5 402.93C442.72 402.25 448.65 408.45 450.82 411.02Z" />
</svg>