<?xml version="1.0" encoding="utf-8"?>
<!-- Generator: Adobe Illustrator 19.0.0, SVG Export Plug-In . SVG Version: 6.00 Build 0)  -->
<svg version="1.1" id="Layer_1" xmlns="http://www.w3.org/2000/svg" xmlns:xlink="http://www.w3.org/1999/xlink" x="0px" y="0px"
	 viewBox="0 0 534 535.3" style="enable-background:new 0 0 534 535.3;" xml:space="preserve">
<style type="text/css">
	.st0{fill:none;stroke:#CCCACB;stroke-width:3;stroke-miterlimit:10;stroke-dasharray:7.0052,7.0052;}
	.st1{fill:none;stroke:#CCCACB;stroke-width:3;stroke-miterlimit:10;stroke-dasharray:7;}
	.st2{fill:#CCCACB;}
</style>
<g id="XMLID_1_">
	<circle id="XMLID_10_" class="st0" cx="266.2" cy="266.5" r="247.5"/>
</g>
<circle id="XMLID_2_" class="st1" cx="335.9" cy="266.5" r="153.3"/>
<circle id="XMLID_6_" class="st2" cx="51.4" cy="367.8" r="34"/>
<circle id="XMLID_11_" class="st2" cx="400" cy="471.1" r="34"/>
<circle id="XMLID_13_" class="st2" cx="481.7" cy="266.5" r="34"/>
<circle id="XMLID_15_" class="st2" cx="446" cy="97.1" r="34"/>
<circle id="XMLID_17_" class="st2" cx="300.1" cy="113.2" r="34"/>
<circle id="XMLID_19_" class="st2" cx="182.6" cy="280.5" r="34"/>
<circle id="XMLID_21_" class="st2" cx="300.1" cy="410.5" r="34"/>
<circle id="XMLID_5_" class="st2" cx="105.3" cy="80.5" r="34"/>
<g id="XMLID_338_">
	<path id="XMLID_339_" d="M78.8,78c-0.8,0-1.4-0.3-1.9-0.8c-0.5-0.5-0.7-1.2-0.7-2c0-0.9,0.3-1.6,0.8-2.1c0.5-0.5,1.2-0.8,2-0.8
		c0.8,0,1.4,0.3,1.9,0.8c0.5,0.5,0.7,1.2,0.7,2c0,0.9-0.3,1.6-0.7,2.1C80.3,77.7,79.6,78,78.8,78z M78.9,73.4c-0.4,0-0.8,0.2-1,0.5
		s-0.4,0.8-0.4,1.3c0,0.5,0.1,1,0.4,1.3c0.3,0.3,0.6,0.5,1,0.5c0.4,0,0.8-0.2,1-0.5c0.2-0.3,0.4-0.7,0.4-1.3c0-0.6-0.1-1-0.4-1.3
		S79.3,73.4,78.9,73.4z"/>
	<path id="XMLID_342_" d="M86.3,77.7c-0.4,0.2-0.9,0.3-1.6,0.3c-0.8,0-1.5-0.2-2-0.7c-0.5-0.5-0.7-1.2-0.7-2c0-0.9,0.3-1.6,0.8-2.1
		c0.5-0.5,1.2-0.8,2.1-0.8c0.5,0,1,0.1,1.4,0.2v1.2c-0.4-0.2-0.8-0.3-1.3-0.3c-0.5,0-0.9,0.2-1.2,0.5c-0.3,0.3-0.5,0.8-0.5,1.3
		c0,0.5,0.1,1,0.4,1.3c0.3,0.3,0.7,0.5,1.2,0.5c0.5,0,0.9-0.1,1.3-0.4V77.7z"/>
	<path id="XMLID_344_" d="M91,77.7c-0.4,0.2-0.9,0.3-1.6,0.3c-0.8,0-1.5-0.2-2-0.7c-0.5-0.5-0.7-1.2-0.7-2c0-0.9,0.3-1.6,0.8-2.1
		c0.5-0.5,1.2-0.8,2.1-0.8c0.5,0,1,0.1,1.4,0.2v1.2c-0.4-0.2-0.8-0.3-1.3-0.3c-0.5,0-0.9,0.2-1.2,0.5c-0.3,0.3-0.5,0.8-0.5,1.3
		c0,0.5,0.1,1,0.4,1.3c0.3,0.3,0.7,0.5,1.2,0.5c0.5,0,0.9-0.1,1.3-0.4V77.7z"/>
	<path id="XMLID_346_" d="M96.4,75.5c0,1.6-0.8,2.5-2.3,2.5c-1.5,0-2.2-0.8-2.2-2.4v-3.2h1.2v3.2c0,0.9,0.3,1.3,1,1.3
		c0.7,0,1-0.4,1-1.3v-3.2h1.2V75.5z"/>
	<path id="XMLID_348_" d="M98.8,76v1.9h-1.2v-5.5h1.9c1.4,0,2.1,0.6,2.1,1.7c0,0.5-0.2,1-0.6,1.3s-0.9,0.5-1.6,0.5H98.8z M98.8,73.3
		v1.7h0.5c0.7,0,1-0.3,1-0.9c0-0.6-0.3-0.8-1-0.8H98.8z"/>
	<path id="XMLID_351_" d="M106.6,77.9h-1.3l-0.4-1.2h-1.9l-0.4,1.2h-1.3l2-5.5h1.5L106.6,77.9z M104.6,75.7l-0.6-1.8
		c0-0.1-0.1-0.3-0.1-0.5h0c0,0.2,0,0.3-0.1,0.5l-0.6,1.9H104.6z"/>
	<path id="XMLID_354_" d="M110.6,73.4H109v4.5h-1.2v-4.5h-1.6v-1h4.3V73.4z"/>
	<path id="XMLID_356_" d="M112.6,77.9h-1.2v-5.5h1.2V77.9z"/>
	<path id="XMLID_358_" d="M116.1,78c-0.8,0-1.4-0.3-1.9-0.8c-0.5-0.5-0.7-1.2-0.7-2c0-0.9,0.3-1.6,0.8-2.1c0.5-0.5,1.2-0.8,2-0.8
		c0.8,0,1.4,0.3,1.9,0.8c0.5,0.5,0.7,1.2,0.7,2c0,0.9-0.3,1.6-0.7,2.1C117.6,77.7,116.9,78,116.1,78z M116.2,73.4
		c-0.4,0-0.8,0.2-1,0.5s-0.4,0.8-0.4,1.3c0,0.5,0.1,1,0.4,1.3c0.3,0.3,0.6,0.5,1,0.5c0.4,0,0.8-0.2,1-0.5c0.2-0.3,0.4-0.7,0.4-1.3
		c0-0.6-0.1-1-0.4-1.3S116.6,73.4,116.2,73.4z"/>
	<path id="XMLID_361_" d="M124.6,77.9h-1.2l-2.3-3.4c-0.1-0.2-0.2-0.4-0.3-0.5h0c0,0.2,0,0.5,0,0.9v3h-1.2v-5.5h1.3l2.2,3.3
		c0.1,0.1,0.2,0.3,0.3,0.4h0c0-0.1,0-0.4,0-0.8v-3h1.2V77.9z"/>
	<path id="XMLID_363_" d="M130.7,77.9h-1.3l-0.4-1.2H127l-0.4,1.2h-1.3l2-5.5h1.5L130.7,77.9z M128.7,75.7l-0.6-1.8
		c0-0.1-0.1-0.3-0.1-0.5h0c0,0.2,0,0.3-0.1,0.5l-0.6,1.9H128.7z"/>
	<path id="XMLID_366_" d="M134.7,77.9h-3.3v-5.5h1.2v4.5h2V77.9z"/>
	<path id="XMLID_368_" d="M93.6,81.8l-1.4,5.5h-1.4l-0.9-3.5c0-0.2-0.1-0.4-0.1-0.6h0c0,0.2-0.1,0.5-0.1,0.6l-0.9,3.5h-1.4l-1.4-5.5
		h1.3l0.8,3.6c0,0.2,0.1,0.4,0.1,0.6h0c0-0.2,0-0.4,0.1-0.6l1-3.6h1.3l0.9,3.7c0,0.1,0.1,0.3,0.1,0.6h0c0-0.2,0-0.4,0.1-0.6l0.8-3.7
		H93.6z"/>
	<path id="XMLID_370_" d="M97.5,87.2h-3.3v-5.5h3.2v1h-1.9V84h1.8v1h-1.8v1.3h2V87.2z"/>
	<path id="XMLID_372_" d="M101.7,87.2h-3.3v-5.5h1.2v4.5h2V87.2z"/>
	<path id="XMLID_374_" d="M105.7,87.2h-3.3v-5.5h1.2v4.5h2V87.2z"/>
	<path id="XMLID_376_" d="M111.3,87.2h-1.2l-2.3-3.4c-0.1-0.2-0.2-0.4-0.3-0.5h0c0,0.2,0,0.5,0,0.9v3h-1.2v-5.5h1.3l2.2,3.3
		c0.1,0.1,0.2,0.3,0.3,0.4h0c0-0.1,0-0.4,0-0.8v-3h1.2V87.2z"/>
	<path id="XMLID_378_" d="M115.9,87.2h-3.3v-5.5h3.2v1h-1.9V84h1.8v1h-1.8v1.3h2V87.2z"/>
	<path id="XMLID_380_" d="M116.5,87v-1.2c0.2,0.2,0.5,0.3,0.7,0.4c0.3,0.1,0.5,0.1,0.8,0.1c0.2,0,0.3,0,0.4,0s0.2-0.1,0.3-0.1
		c0.1,0,0.1-0.1,0.2-0.2c0-0.1,0.1-0.1,0.1-0.2c0-0.1,0-0.2-0.1-0.3s-0.1-0.2-0.3-0.2c-0.1-0.1-0.2-0.1-0.4-0.2
		c-0.1-0.1-0.3-0.1-0.5-0.2c-0.4-0.2-0.7-0.4-1-0.7c-0.2-0.3-0.3-0.6-0.3-0.9c0-0.3,0.1-0.5,0.2-0.7c0.1-0.2,0.3-0.4,0.5-0.5
		c0.2-0.1,0.4-0.2,0.7-0.3c0.3-0.1,0.5-0.1,0.8-0.1c0.3,0,0.5,0,0.8,0.1c0.2,0,0.4,0.1,0.6,0.2V83c-0.1-0.1-0.2-0.1-0.3-0.2
		c-0.1,0-0.2-0.1-0.3-0.1s-0.2-0.1-0.3-0.1c-0.1,0-0.2,0-0.3,0c-0.1,0-0.3,0-0.4,0c-0.1,0-0.2,0.1-0.3,0.1c-0.1,0-0.1,0.1-0.2,0.2
		c0,0.1-0.1,0.1-0.1,0.2c0,0.1,0,0.2,0.1,0.2c0,0.1,0.1,0.1,0.2,0.2c0.1,0.1,0.2,0.1,0.3,0.2c0.1,0.1,0.3,0.1,0.4,0.2
		c0.2,0.1,0.4,0.2,0.6,0.3s0.3,0.2,0.4,0.3c0.1,0.1,0.2,0.3,0.3,0.4c0.1,0.2,0.1,0.4,0.1,0.6c0,0.3-0.1,0.6-0.2,0.8
		c-0.1,0.2-0.3,0.4-0.5,0.5s-0.4,0.2-0.7,0.3c-0.3,0.1-0.5,0.1-0.8,0.1c-0.3,0-0.6,0-0.9-0.1C116.9,87.2,116.7,87.1,116.5,87z"/>
	<path id="XMLID_382_" d="M120.9,87v-1.2c0.2,0.2,0.5,0.3,0.7,0.4c0.3,0.1,0.5,0.1,0.8,0.1c0.2,0,0.3,0,0.4,0s0.2-0.1,0.3-0.1
		c0.1,0,0.1-0.1,0.2-0.2c0-0.1,0.1-0.1,0.1-0.2c0-0.1,0-0.2-0.1-0.3s-0.1-0.2-0.3-0.2c-0.1-0.1-0.2-0.1-0.4-0.2
		c-0.1-0.1-0.3-0.1-0.5-0.2c-0.4-0.2-0.7-0.4-1-0.7c-0.2-0.3-0.3-0.6-0.3-0.9c0-0.3,0.1-0.5,0.2-0.7c0.1-0.2,0.3-0.4,0.5-0.5
		c0.2-0.1,0.4-0.2,0.7-0.3c0.3-0.1,0.5-0.1,0.8-0.1c0.3,0,0.5,0,0.8,0.1c0.2,0,0.4,0.1,0.6,0.2V83c-0.1-0.1-0.2-0.1-0.3-0.2
		c-0.1,0-0.2-0.1-0.3-0.1s-0.2-0.1-0.3-0.1c-0.1,0-0.2,0-0.3,0c-0.1,0-0.3,0-0.4,0c-0.1,0-0.2,0.1-0.3,0.1c-0.1,0-0.1,0.1-0.2,0.2
		c0,0.1-0.1,0.1-0.1,0.2c0,0.1,0,0.2,0.1,0.2c0,0.1,0.1,0.1,0.2,0.2c0.1,0.1,0.2,0.1,0.3,0.2c0.1,0.1,0.3,0.1,0.4,0.2
		c0.2,0.1,0.4,0.2,0.6,0.3s0.3,0.2,0.4,0.3c0.1,0.1,0.2,0.3,0.3,0.4c0.1,0.2,0.1,0.4,0.1,0.6c0,0.3-0.1,0.6-0.2,0.8
		c-0.1,0.2-0.3,0.4-0.5,0.5s-0.4,0.2-0.7,0.3c-0.3,0.1-0.5,0.1-0.8,0.1c-0.3,0-0.6,0-0.9-0.1C121.3,87.2,121.1,87.1,120.9,87z"/>
</g>
<g id="XMLID_292_">
	<path id="XMLID_293_" d="M22.1,365.1h-3.3v-5.5h3.2v1H20v1.2h1.8v1H20v1.3h2V365.1z"/>
	<path id="XMLID_295_" d="M27.9,365.1h-1.2l-2.3-3.4c-0.1-0.2-0.2-0.4-0.3-0.5h0c0,0.2,0,0.5,0,0.9v3h-1.2v-5.5h1.3l2.2,3.3
		c0.1,0.1,0.2,0.3,0.3,0.4h0c0-0.1,0-0.4,0-0.8v-3h1.2V365.1z"/>
	<path id="XMLID_297_" d="M33.7,359.7l-1.9,5.5h-1.4l-1.9-5.5h1.3l1.1,3.8c0.1,0.2,0.1,0.4,0.1,0.5h0c0-0.2,0.1-0.4,0.1-0.6l1.1-3.8
		H33.7z"/>
	<path id="XMLID_299_" d="M35.6,365.1h-1.2v-5.5h1.2V365.1z"/>
	<path id="XMLID_301_" d="M41.4,365.1H40l-0.9-1.4c-0.1-0.1-0.1-0.2-0.2-0.3s-0.1-0.2-0.2-0.2c-0.1-0.1-0.1-0.1-0.2-0.1
		c-0.1,0-0.1,0-0.2,0H38v2.1h-1.2v-5.5h2c1.3,0,2,0.5,2,1.5c0,0.2,0,0.4-0.1,0.5c-0.1,0.2-0.1,0.3-0.2,0.4s-0.2,0.2-0.4,0.3
		c-0.2,0.1-0.3,0.2-0.5,0.2v0c0.1,0,0.2,0.1,0.2,0.1s0.1,0.1,0.2,0.2s0.1,0.2,0.2,0.2s0.1,0.2,0.2,0.3L41.4,365.1z M38,360.6v1.5
		h0.5c0.3,0,0.5-0.1,0.6-0.2c0.2-0.2,0.2-0.3,0.2-0.6c0-0.5-0.3-0.7-0.9-0.7H38z"/>
	<path id="XMLID_304_" d="M44.1,365.2c-0.8,0-1.4-0.3-1.9-0.8c-0.5-0.5-0.7-1.2-0.7-2c0-0.9,0.3-1.6,0.8-2.1c0.5-0.5,1.2-0.8,2-0.8
		c0.8,0,1.4,0.3,1.9,0.8c0.5,0.5,0.7,1.2,0.7,2c0,0.9-0.3,1.6-0.7,2.1C45.6,365,44.9,365.2,44.1,365.2z M44.2,360.6
		c-0.4,0-0.8,0.2-1,0.5s-0.4,0.8-0.4,1.3c0,0.5,0.1,1,0.4,1.3c0.3,0.3,0.6,0.5,1,0.5c0.4,0,0.8-0.2,1-0.5c0.2-0.3,0.4-0.7,0.4-1.3
		c0-0.6-0.1-1-0.4-1.3S44.6,360.6,44.2,360.6z"/>
	<path id="XMLID_307_" d="M52.7,365.1h-1.2l-2.3-3.4c-0.1-0.2-0.2-0.4-0.3-0.5h0c0,0.2,0,0.5,0,0.9v3h-1.2v-5.5h1.3l2.2,3.3
		c0.1,0.1,0.2,0.3,0.3,0.4h0c0-0.1,0-0.4,0-0.8v-3h1.2V365.1z"/>
	<path id="XMLID_309_" d="M60.2,365.1h-1.2v-3.3c0-0.4,0-0.7,0-1.2h0c-0.1,0.3-0.1,0.6-0.2,0.7l-1.3,3.7h-1l-1.3-3.7
		c0-0.1-0.1-0.4-0.2-0.8h0c0,0.5,0,1,0,1.4v3h-1.1v-5.5h1.8l1.1,3.2c0.1,0.3,0.2,0.5,0.2,0.8h0c0.1-0.3,0.1-0.6,0.2-0.8l1.1-3.2h1.8
		V365.1z"/>
	<path id="XMLID_311_" d="M64.7,365.1h-3.3v-5.5h3.2v1h-1.9v1.2h1.8v1h-1.8v1.3h2V365.1z"/>
	<path id="XMLID_313_" d="M70.5,365.1h-1.2l-2.3-3.4c-0.1-0.2-0.2-0.4-0.3-0.5h0c0,0.2,0,0.5,0,0.9v3h-1.2v-5.5h1.3l2.2,3.3
		c0.1,0.1,0.2,0.3,0.3,0.4h0c0-0.1,0-0.4,0-0.8v-3h1.2V365.1z"/>
	<path id="XMLID_315_" d="M75.6,360.7H74v4.5h-1.2v-4.5h-1.6v-1h4.3V360.7z"/>
	<path id="XMLID_317_" d="M80.5,365.1h-1.3l-0.4-1.2h-1.9l-0.4,1.2h-1.3l2-5.5h1.5L80.5,365.1z M78.5,363l-0.6-1.8
		c0-0.1-0.1-0.3-0.1-0.5h0c0,0.2,0,0.3-0.1,0.5l-0.6,1.9H78.5z"/>
	<path id="XMLID_320_" d="M84.5,365.1h-3.3v-5.5h1.2v4.5h2V365.1z"/>
	<path id="XMLID_322_" d="M39.6,369l-1.4,5.5h-1.4l-0.9-3.5c0-0.2-0.1-0.4-0.1-0.6h0c0,0.2-0.1,0.5-0.1,0.6l-0.9,3.5h-1.4l-1.4-5.5
		h1.3l0.8,3.6c0,0.2,0.1,0.4,0.1,0.6h0c0-0.2,0-0.4,0.1-0.6l1-3.6h1.3l0.9,3.7c0,0.1,0.1,0.3,0.1,0.6h0c0-0.2,0-0.4,0.1-0.6l0.8-3.7
		H39.6z"/>
	<path id="XMLID_324_" d="M43.6,374.5h-3.3V369h3.2v1h-1.9v1.2h1.8v1h-1.8v1.3h2V374.5z"/>
	<path id="XMLID_326_" d="M47.7,374.5h-3.3V369h1.2v4.5h2V374.5z"/>
	<path id="XMLID_328_" d="M51.7,374.5h-3.3V369h1.2v4.5h2V374.5z"/>
	<path id="XMLID_330_" d="M57.4,374.5h-1.2l-2.3-3.4c-0.1-0.2-0.2-0.4-0.3-0.5h0c0,0.2,0,0.5,0,0.9v3h-1.2V369h1.3l2.2,3.3
		c0.1,0.1,0.2,0.3,0.3,0.4h0c0-0.1,0-0.4,0-0.8v-3h1.2V374.5z"/>
	<path id="XMLID_332_" d="M61.9,374.5h-3.3V369h3.2v1h-1.9v1.2h1.8v1h-1.8v1.3h2V374.5z"/>
	<path id="XMLID_334_" d="M62.5,374.3v-1.2c0.2,0.2,0.5,0.3,0.7,0.4c0.3,0.1,0.5,0.1,0.8,0.1c0.2,0,0.3,0,0.4,0
		c0.1,0,0.2-0.1,0.3-0.1c0.1,0,0.1-0.1,0.2-0.2c0-0.1,0.1-0.1,0.1-0.2c0-0.1,0-0.2-0.1-0.3s-0.1-0.2-0.3-0.2
		c-0.1-0.1-0.2-0.1-0.4-0.2s-0.3-0.1-0.5-0.2c-0.4-0.2-0.7-0.4-1-0.7c-0.2-0.3-0.3-0.6-0.3-0.9c0-0.3,0.1-0.5,0.2-0.7
		c0.1-0.2,0.3-0.4,0.5-0.5c0.2-0.1,0.4-0.2,0.7-0.3c0.3-0.1,0.5-0.1,0.8-0.1c0.3,0,0.5,0,0.8,0.1c0.2,0,0.4,0.1,0.6,0.2v1.1
		c-0.1-0.1-0.2-0.1-0.3-0.2c-0.1,0-0.2-0.1-0.3-0.1c-0.1,0-0.2-0.1-0.3-0.1c-0.1,0-0.2,0-0.3,0c-0.1,0-0.3,0-0.4,0
		c-0.1,0-0.2,0.1-0.3,0.1c-0.1,0-0.1,0.1-0.2,0.2c0,0.1-0.1,0.1-0.1,0.2c0,0.1,0,0.2,0.1,0.2s0.1,0.1,0.2,0.2
		c0.1,0.1,0.2,0.1,0.3,0.2c0.1,0.1,0.3,0.1,0.4,0.2c0.2,0.1,0.4,0.2,0.6,0.3c0.2,0.1,0.3,0.2,0.4,0.3s0.2,0.3,0.3,0.4
		c0.1,0.2,0.1,0.4,0.1,0.6c0,0.3-0.1,0.6-0.2,0.8s-0.3,0.4-0.5,0.5c-0.2,0.1-0.4,0.2-0.7,0.3s-0.5,0.1-0.8,0.1c-0.3,0-0.6,0-0.9-0.1
		C63,374.5,62.7,374.4,62.5,374.3z"/>
	<path id="XMLID_336_" d="M66.9,374.3v-1.2c0.2,0.2,0.5,0.3,0.7,0.4c0.3,0.1,0.5,0.1,0.8,0.1c0.2,0,0.3,0,0.4,0
		c0.1,0,0.2-0.1,0.3-0.1c0.1,0,0.1-0.1,0.2-0.2c0-0.1,0.1-0.1,0.1-0.2c0-0.1,0-0.2-0.1-0.3s-0.1-0.2-0.3-0.2
		c-0.1-0.1-0.2-0.1-0.4-0.2s-0.3-0.1-0.5-0.2c-0.4-0.2-0.7-0.4-1-0.7c-0.2-0.3-0.3-0.6-0.3-0.9c0-0.3,0.1-0.5,0.2-0.7
		c0.1-0.2,0.3-0.4,0.5-0.5c0.2-0.1,0.4-0.2,0.7-0.3s0.5-0.1,0.8-0.1c0.3,0,0.5,0,0.8,0.1c0.2,0,0.4,0.1,0.6,0.2v1.1
		c-0.1-0.1-0.2-0.1-0.3-0.2c-0.1,0-0.2-0.1-0.3-0.1c-0.1,0-0.2-0.1-0.3-0.1c-0.1,0-0.2,0-0.3,0c-0.1,0-0.3,0-0.4,0
		c-0.1,0-0.2,0.1-0.3,0.1c-0.1,0-0.1,0.1-0.2,0.2c0,0.1-0.1,0.1-0.1,0.2c0,0.1,0,0.2,0.1,0.2s0.1,0.1,0.2,0.2
		c0.1,0.1,0.2,0.1,0.3,0.2c0.1,0.1,0.3,0.1,0.4,0.2c0.2,0.1,0.4,0.2,0.6,0.3c0.2,0.1,0.3,0.2,0.4,0.3s0.2,0.3,0.3,0.4
		c0.1,0.2,0.1,0.4,0.1,0.6c0,0.3-0.1,0.6-0.2,0.8s-0.3,0.4-0.5,0.5c-0.2,0.1-0.4,0.2-0.7,0.3s-0.5,0.1-0.8,0.1c-0.3,0-0.6,0-0.9-0.1
		C67.3,374.5,67.1,374.4,66.9,374.3z"/>
</g>
<g id="XMLID_255_">
	<path id="XMLID_256_" d="M383.2,464h-1.9v1.3h1.8v1h-1.8v2.1h-1.2V463h3.2V464z"/>
	<path id="XMLID_258_" d="M385.4,468.5h-1.2V463h1.2V468.5z"/>
	<path id="XMLID_260_" d="M391.5,468.5h-1.2L388,465c-0.1-0.2-0.2-0.4-0.3-0.5h0c0,0.2,0,0.5,0,0.9v3h-1.2V463h1.3l2.2,3.3
		c0.1,0.2,0.2,0.3,0.3,0.4h0c0-0.1,0-0.4,0-0.8v-3h1.2V468.5z"/>
	<path id="XMLID_262_" d="M397.6,468.5h-1.3l-0.4-1.2h-1.9l-0.4,1.2h-1.3l2-5.5h1.5L397.6,468.5z M395.6,466.3l-0.6-1.8
		c0-0.1-0.1-0.3-0.1-0.5h0c0,0.2,0,0.3-0.1,0.5l-0.6,1.9H395.6z"/>
	<path id="XMLID_265_" d="M403.2,468.5h-1.2l-2.3-3.4c-0.1-0.2-0.2-0.4-0.3-0.5h0c0,0.2,0,0.5,0,0.9v3h-1.2V463h1.3l2.2,3.3
		c0.1,0.2,0.2,0.3,0.3,0.4h0c0-0.1,0-0.4,0-0.8v-3h1.2V468.5z"/>
	<path id="XMLID_267_" d="M408.4,468.3c-0.4,0.2-0.9,0.3-1.6,0.3c-0.8,0-1.5-0.2-2-0.7c-0.5-0.5-0.7-1.2-0.7-2
		c0-0.9,0.3-1.6,0.8-2.1c0.5-0.5,1.2-0.8,2.1-0.8c0.5,0,1,0.1,1.4,0.2v1.2c-0.4-0.2-0.8-0.3-1.3-0.3c-0.5,0-0.9,0.2-1.2,0.5
		c-0.3,0.3-0.5,0.8-0.5,1.3c0,0.5,0.1,1,0.4,1.3c0.3,0.3,0.7,0.5,1.2,0.5c0.5,0,0.9-0.1,1.3-0.4V468.3z"/>
	<path id="XMLID_269_" d="M410.5,468.5h-1.2V463h1.2V468.5z"/>
	<path id="XMLID_271_" d="M416.6,468.5h-1.3l-0.4-1.2h-1.9l-0.4,1.2h-1.3l2-5.5h1.5L416.6,468.5z M414.6,466.3l-0.6-1.8
		c0-0.1-0.1-0.3-0.1-0.5h0c0,0.2,0,0.3-0.1,0.5l-0.6,1.9H414.6z"/>
	<path id="XMLID_274_" d="M420.5,468.5h-3.3V463h1.2v4.5h2V468.5z"/>
	<path id="XMLID_276_" d="M388.3,472.4l-1.4,5.5h-1.4l-0.9-3.5c0-0.2-0.1-0.4-0.1-0.6h0c0,0.2-0.1,0.5-0.1,0.6l-0.9,3.5H382
		l-1.4-5.5h1.3l0.8,3.6c0,0.2,0.1,0.4,0.1,0.6h0c0-0.2,0-0.4,0.1-0.6l1-3.6h1.3l0.9,3.7c0,0.1,0.1,0.3,0.1,0.6h0
		c0-0.2,0-0.4,0.1-0.6l0.8-3.7H388.3z"/>
	<path id="XMLID_278_" d="M392.3,477.8H389v-5.5h3.2v1h-1.9v1.2h1.8v1h-1.8v1.3h2V477.8z"/>
	<path id="XMLID_280_" d="M396.4,477.8h-3.3v-5.5h1.2v4.5h2V477.8z"/>
	<path id="XMLID_282_" d="M400.4,477.8h-3.3v-5.5h1.2v4.5h2V477.8z"/>
	<path id="XMLID_284_" d="M406,477.8h-1.2l-2.3-3.4c-0.1-0.2-0.2-0.4-0.3-0.5h0c0,0.2,0,0.5,0,0.9v3h-1.2v-5.5h1.3l2.2,3.3
		c0.1,0.2,0.2,0.3,0.3,0.4h0c0-0.1,0-0.4,0-0.8v-3h1.2V477.8z"/>
	<path id="XMLID_286_" d="M410.6,477.8h-3.3v-5.5h3.2v1h-1.9v1.2h1.8v1h-1.8v1.3h2V477.8z"/>
	<path id="XMLID_288_" d="M411.2,477.6v-1.2c0.2,0.2,0.5,0.3,0.7,0.4c0.3,0.1,0.5,0.1,0.8,0.1c0.2,0,0.3,0,0.4,0
		c0.1,0,0.2-0.1,0.3-0.1c0.1,0,0.1-0.1,0.2-0.2s0.1-0.1,0.1-0.2c0-0.1,0-0.2-0.1-0.3c-0.1-0.1-0.1-0.2-0.3-0.2s-0.2-0.1-0.4-0.2
		c-0.1-0.1-0.3-0.1-0.5-0.2c-0.4-0.2-0.7-0.4-1-0.7s-0.3-0.6-0.3-0.9c0-0.3,0.1-0.5,0.2-0.7c0.1-0.2,0.3-0.4,0.5-0.5
		c0.2-0.1,0.4-0.2,0.7-0.3c0.3-0.1,0.5-0.1,0.8-0.1c0.3,0,0.5,0,0.8,0.1c0.2,0,0.4,0.1,0.6,0.2v1.1c-0.1-0.1-0.2-0.1-0.3-0.2
		c-0.1,0-0.2-0.1-0.3-0.1c-0.1,0-0.2-0.1-0.3-0.1c-0.1,0-0.2,0-0.3,0c-0.1,0-0.3,0-0.4,0s-0.2,0.1-0.3,0.1c-0.1,0-0.1,0.1-0.2,0.2
		c0,0.1-0.1,0.1-0.1,0.2c0,0.1,0,0.2,0.1,0.2c0,0.1,0.1,0.1,0.2,0.2c0.1,0.1,0.2,0.1,0.3,0.2s0.3,0.1,0.4,0.2
		c0.2,0.1,0.4,0.2,0.6,0.3c0.2,0.1,0.3,0.2,0.4,0.3c0.1,0.1,0.2,0.3,0.3,0.4c0.1,0.2,0.1,0.4,0.1,0.6c0,0.3-0.1,0.6-0.2,0.8
		c-0.1,0.2-0.3,0.4-0.5,0.5c-0.2,0.1-0.4,0.2-0.7,0.3c-0.3,0.1-0.5,0.1-0.8,0.1c-0.3,0-0.6,0-0.9-0.1S411.4,477.7,411.2,477.6z"/>
	<path id="XMLID_290_" d="M415.6,477.6v-1.2c0.2,0.2,0.5,0.3,0.7,0.4c0.3,0.1,0.5,0.1,0.8,0.1c0.2,0,0.3,0,0.4,0
		c0.1,0,0.2-0.1,0.3-0.1c0.1,0,0.1-0.1,0.2-0.2s0.1-0.1,0.1-0.2c0-0.1,0-0.2-0.1-0.3c-0.1-0.1-0.1-0.2-0.3-0.2s-0.2-0.1-0.4-0.2
		c-0.1-0.1-0.3-0.1-0.5-0.2c-0.4-0.2-0.7-0.4-1-0.7s-0.3-0.6-0.3-0.9c0-0.3,0.1-0.5,0.2-0.7c0.1-0.2,0.3-0.4,0.5-0.5
		c0.2-0.1,0.4-0.2,0.7-0.3c0.3-0.1,0.5-0.1,0.8-0.1c0.3,0,0.5,0,0.8,0.1c0.2,0,0.4,0.1,0.6,0.2v1.1c-0.1-0.1-0.2-0.1-0.3-0.2
		c-0.1,0-0.2-0.1-0.3-0.1c-0.1,0-0.2-0.1-0.3-0.1c-0.1,0-0.2,0-0.3,0c-0.1,0-0.3,0-0.4,0s-0.2,0.1-0.3,0.1c-0.1,0-0.1,0.1-0.2,0.2
		c0,0.1-0.1,0.1-0.1,0.2c0,0.1,0,0.2,0.1,0.2c0,0.1,0.1,0.1,0.2,0.2c0.1,0.1,0.2,0.1,0.3,0.2s0.3,0.1,0.4,0.2
		c0.2,0.1,0.4,0.2,0.6,0.3c0.2,0.1,0.3,0.2,0.4,0.3c0.1,0.1,0.2,0.3,0.3,0.4c0.1,0.2,0.1,0.4,0.1,0.6c0,0.3-0.1,0.6-0.2,0.8
		c-0.1,0.2-0.3,0.4-0.5,0.5c-0.2,0.1-0.4,0.2-0.7,0.3c-0.3,0.1-0.5,0.1-0.8,0.1c-0.3,0-0.6,0-0.9-0.1S415.8,477.7,415.6,477.6z"/>
</g>
<g id="XMLID_224_">
	<path id="XMLID_225_" d="M432.8,94.3V93c0.2,0.2,0.5,0.3,0.7,0.4c0.3,0.1,0.5,0.1,0.8,0.1c0.2,0,0.3,0,0.4,0c0.1,0,0.2-0.1,0.3-0.1
		c0.1,0,0.1-0.1,0.2-0.2c0-0.1,0.1-0.1,0.1-0.2c0-0.1,0-0.2-0.1-0.3c-0.1-0.1-0.1-0.2-0.3-0.2c-0.1-0.1-0.2-0.1-0.4-0.2
		c-0.1-0.1-0.3-0.1-0.5-0.2c-0.4-0.2-0.7-0.4-1-0.7c-0.2-0.3-0.3-0.6-0.3-0.9c0-0.3,0.1-0.5,0.2-0.7c0.1-0.2,0.3-0.4,0.5-0.5
		c0.2-0.1,0.4-0.2,0.7-0.3c0.3-0.1,0.5-0.1,0.8-0.1c0.3,0,0.5,0,0.8,0.1c0.2,0,0.4,0.1,0.6,0.2v1.1c-0.1-0.1-0.2-0.1-0.3-0.2
		c-0.1,0-0.2-0.1-0.3-0.1s-0.2-0.1-0.3-0.1c-0.1,0-0.2,0-0.3,0c-0.1,0-0.3,0-0.4,0c-0.1,0-0.2,0.1-0.3,0.1c-0.1,0-0.1,0.1-0.2,0.2
		s-0.1,0.1-0.1,0.2c0,0.1,0,0.2,0.1,0.2c0,0.1,0.1,0.1,0.2,0.2c0.1,0.1,0.2,0.1,0.3,0.2c0.1,0.1,0.3,0.1,0.4,0.2
		c0.2,0.1,0.4,0.2,0.6,0.3c0.2,0.1,0.3,0.2,0.4,0.3c0.1,0.1,0.2,0.3,0.3,0.4s0.1,0.4,0.1,0.6c0,0.3-0.1,0.6-0.2,0.8
		c-0.1,0.2-0.3,0.4-0.5,0.5s-0.4,0.2-0.7,0.3c-0.3,0.1-0.5,0.1-0.8,0.1c-0.3,0-0.6,0-0.9-0.1C433.3,94.4,433,94.4,432.8,94.3z"/>
	<path id="XMLID_227_" d="M439.8,94.6c-0.8,0-1.4-0.3-1.9-0.8c-0.5-0.5-0.7-1.2-0.7-2c0-0.9,0.3-1.6,0.8-2.1c0.5-0.5,1.2-0.8,2-0.8
		c0.8,0,1.4,0.3,1.9,0.8c0.5,0.5,0.7,1.2,0.7,2c0,0.9-0.3,1.6-0.8,2.1S440.6,94.6,439.8,94.6z M439.8,90c-0.4,0-0.8,0.2-1,0.5
		c-0.3,0.3-0.4,0.8-0.4,1.3c0,0.5,0.1,1,0.4,1.3c0.3,0.3,0.6,0.5,1,0.5c0.4,0,0.8-0.2,1-0.5c0.2-0.3,0.4-0.7,0.4-1.3
		c0-0.6-0.1-1-0.4-1.3C440.6,90.1,440.3,90,439.8,90z"/>
	<path id="XMLID_230_" d="M447.3,94.3c-0.4,0.2-0.9,0.3-1.6,0.3c-0.8,0-1.5-0.2-2-0.7c-0.5-0.5-0.7-1.2-0.7-2c0-0.9,0.3-1.6,0.8-2.1
		s1.2-0.8,2.1-0.8c0.5,0,1,0.1,1.4,0.2v1.2c-0.4-0.2-0.8-0.3-1.3-0.3c-0.5,0-0.9,0.2-1.2,0.5c-0.3,0.3-0.5,0.8-0.5,1.3
		c0,0.5,0.1,1,0.4,1.3c0.3,0.3,0.7,0.5,1.2,0.5c0.5,0,0.9-0.1,1.3-0.4V94.3z"/>
	<path id="XMLID_232_" d="M449.5,94.5h-1.2V89h1.2V94.5z"/>
	<path id="XMLID_234_" d="M455.6,94.5h-1.3l-0.4-1.2h-1.9l-0.4,1.2h-1.3l2-5.5h1.5L455.6,94.5z M453.5,92.3l-0.6-1.8
		c0-0.1-0.1-0.3-0.1-0.5h0c0,0.2,0,0.3-0.1,0.5l-0.6,1.9H453.5z"/>
	<path id="XMLID_237_" d="M459.5,94.5h-3.3V89h1.2v4.5h2V94.5z"/>
	<path id="XMLID_239_" d="M434.3,98.4l-1.4,5.5h-1.4l-0.9-3.5c0-0.2-0.1-0.4-0.1-0.6h0c0,0.2-0.1,0.5-0.1,0.6l-0.9,3.5H428l-1.4-5.5
		h1.3l0.8,3.6c0,0.2,0.1,0.4,0.1,0.6h0c0-0.2,0-0.4,0.1-0.6l1-3.6h1.3l0.9,3.7c0,0.1,0.1,0.3,0.1,0.6h0c0-0.2,0-0.4,0.1-0.6l0.8-3.7
		H434.3z"/>
	<path id="XMLID_241_" d="M438.3,103.8H435v-5.5h3.2v1h-1.9v1.2h1.8v1h-1.8v1.3h2V103.8z"/>
	<path id="XMLID_243_" d="M442.4,103.8h-3.3v-5.5h1.2v4.5h2V103.8z"/>
	<path id="XMLID_245_" d="M446.4,103.8h-3.3v-5.5h1.2v4.5h2V103.8z"/>
	<path id="XMLID_247_" d="M452,103.8h-1.2l-2.3-3.4c-0.1-0.2-0.2-0.4-0.3-0.5h0c0,0.2,0,0.5,0,0.9v3h-1.2v-5.5h1.3l2.2,3.3
		c0.1,0.1,0.2,0.3,0.3,0.4h0c0-0.1,0-0.4,0-0.8v-3h1.2V103.8z"/>
	<path id="XMLID_249_" d="M456.6,103.8h-3.3v-5.5h3.2v1h-1.9v1.2h1.8v1h-1.8v1.3h2V103.8z"/>
	<path id="XMLID_251_" d="M457.2,103.6v-1.2c0.2,0.2,0.5,0.3,0.7,0.4c0.3,0.1,0.5,0.1,0.8,0.1c0.2,0,0.3,0,0.4,0
		c0.1,0,0.2-0.1,0.3-0.1c0.1,0,0.1-0.1,0.2-0.2s0.1-0.1,0.1-0.2c0-0.1,0-0.2-0.1-0.3c-0.1-0.1-0.1-0.2-0.3-0.2s-0.2-0.1-0.4-0.2
		c-0.1-0.1-0.3-0.1-0.5-0.2c-0.4-0.2-0.7-0.4-1-0.7s-0.3-0.6-0.3-0.9c0-0.3,0.1-0.5,0.2-0.7c0.1-0.2,0.3-0.4,0.5-0.5
		s0.4-0.2,0.7-0.3c0.3-0.1,0.5-0.1,0.8-0.1c0.3,0,0.5,0,0.8,0.1c0.2,0,0.4,0.1,0.6,0.2v1.1c-0.1-0.1-0.2-0.1-0.3-0.2
		s-0.2-0.1-0.3-0.1s-0.2-0.1-0.3-0.1c-0.1,0-0.2,0-0.3,0c-0.1,0-0.3,0-0.4,0c-0.1,0-0.2,0.1-0.3,0.1s-0.1,0.1-0.2,0.2
		c0,0.1-0.1,0.1-0.1,0.2c0,0.1,0,0.2,0.1,0.2c0,0.1,0.1,0.1,0.2,0.2c0.1,0.1,0.2,0.1,0.3,0.2c0.1,0.1,0.3,0.1,0.4,0.2
		c0.2,0.1,0.4,0.2,0.6,0.3c0.2,0.1,0.3,0.2,0.4,0.3c0.1,0.1,0.2,0.3,0.3,0.4c0.1,0.2,0.1,0.4,0.1,0.6c0,0.3-0.1,0.6-0.2,0.8
		c-0.1,0.2-0.3,0.4-0.5,0.5s-0.4,0.2-0.7,0.3c-0.3,0.1-0.5,0.1-0.8,0.1c-0.3,0-0.6,0-0.9-0.1S457.4,103.7,457.2,103.6z"/>
	<path id="XMLID_253_" d="M461.6,103.6v-1.2c0.2,0.2,0.5,0.3,0.7,0.4c0.3,0.1,0.5,0.1,0.8,0.1c0.2,0,0.3,0,0.4,0
		c0.1,0,0.2-0.1,0.3-0.1c0.1,0,0.1-0.1,0.2-0.2s0.1-0.1,0.1-0.2c0-0.1,0-0.2-0.1-0.3c-0.1-0.1-0.1-0.2-0.3-0.2s-0.2-0.1-0.4-0.2
		c-0.1-0.1-0.3-0.1-0.5-0.2c-0.4-0.2-0.7-0.4-1-0.7s-0.3-0.6-0.3-0.9c0-0.3,0.1-0.5,0.2-0.7c0.1-0.2,0.3-0.4,0.5-0.5
		s0.4-0.2,0.7-0.3c0.3-0.1,0.5-0.1,0.8-0.1c0.3,0,0.5,0,0.8,0.1c0.2,0,0.4,0.1,0.6,0.2v1.1c-0.1-0.1-0.2-0.1-0.3-0.2
		s-0.2-0.1-0.3-0.1s-0.2-0.1-0.3-0.1c-0.1,0-0.2,0-0.3,0c-0.1,0-0.3,0-0.4,0c-0.1,0-0.2,0.1-0.3,0.1s-0.1,0.1-0.2,0.2
		c0,0.1-0.1,0.1-0.1,0.2c0,0.1,0,0.2,0.1,0.2c0,0.1,0.1,0.1,0.2,0.2c0.1,0.1,0.2,0.1,0.3,0.2c0.1,0.1,0.3,0.1,0.4,0.2
		c0.2,0.1,0.4,0.2,0.6,0.3c0.2,0.1,0.3,0.2,0.4,0.3c0.1,0.1,0.2,0.3,0.3,0.4c0.1,0.2,0.1,0.4,0.1,0.6c0,0.3-0.1,0.6-0.2,0.8
		c-0.1,0.2-0.3,0.4-0.5,0.5s-0.4,0.2-0.7,0.3c-0.3,0.1-0.5,0.1-0.8,0.1c-0.3,0-0.6,0-0.9-0.1S461.8,103.7,461.6,103.6z"/>
</g>
<g id="XMLID_186_">
	<path id="XMLID_187_" d="M281.1,110.5h-3.3V105h3.2v1h-1.9v1.2h1.8v1h-1.8v1.3h2V110.5z"/>
	<path id="XMLID_189_" d="M288.2,110.5H287v-3.3c0-0.4,0-0.7,0-1.2h0c-0.1,0.3-0.1,0.6-0.2,0.7l-1.3,3.7h-1l-1.3-3.7
		c0-0.1-0.1-0.4-0.2-0.8h0c0,0.5,0,1,0,1.4v3H282V105h1.8l1.1,3.2c0.1,0.3,0.2,0.5,0.2,0.8h0c0.1-0.3,0.1-0.6,0.2-0.8l1.1-3.2h1.8
		V110.5z"/>
	<path id="XMLID_191_" d="M291.8,110.6c-0.8,0-1.4-0.3-1.9-0.8c-0.5-0.5-0.7-1.2-0.7-2c0-0.9,0.3-1.6,0.8-2.1c0.5-0.5,1.2-0.8,2-0.8
		c0.8,0,1.4,0.3,1.9,0.8c0.5,0.5,0.7,1.2,0.7,2c0,0.9-0.3,1.6-0.7,2.1C293.2,110.3,292.6,110.6,291.8,110.6z M291.8,106
		c-0.4,0-0.8,0.2-1,0.5s-0.4,0.8-0.4,1.3c0,0.5,0.1,1,0.4,1.3c0.3,0.3,0.6,0.5,1,0.5c0.4,0,0.8-0.2,1-0.5c0.2-0.3,0.4-0.7,0.4-1.3
		c0-0.6-0.1-1-0.4-1.3C292.6,106.2,292.2,106,291.8,106z"/>
	<path id="XMLID_194_" d="M298.9,106h-1.6v4.5h-1.2V106h-1.6v-1h4.3V106z"/>
	<path id="XMLID_196_" d="M300.8,110.5h-1.2V105h1.2V110.5z"/>
	<path id="XMLID_198_" d="M304.4,110.6c-0.8,0-1.4-0.3-1.9-0.8c-0.5-0.5-0.7-1.2-0.7-2c0-0.9,0.3-1.6,0.8-2.1s1.2-0.8,2-0.8
		c0.8,0,1.4,0.3,1.9,0.8s0.7,1.2,0.7,2c0,0.9-0.3,1.6-0.7,2.1C305.9,110.3,305.2,110.6,304.4,110.6z M304.5,106
		c-0.4,0-0.8,0.2-1,0.5c-0.3,0.3-0.4,0.8-0.4,1.3c0,0.5,0.1,1,0.4,1.3c0.3,0.3,0.6,0.5,1,0.5c0.4,0,0.8-0.2,1-0.5
		c0.2-0.3,0.4-0.7,0.4-1.3c0-0.6-0.1-1-0.4-1.3S304.9,106,304.5,106z"/>
	<path id="XMLID_201_" d="M312.9,110.5h-1.2l-2.3-3.4c-0.1-0.2-0.2-0.4-0.3-0.5h0c0,0.2,0,0.5,0,0.9v3H308V105h1.3l2.2,3.3
		c0.1,0.1,0.2,0.3,0.3,0.4h0c0-0.1,0-0.4,0-0.8v-3h1.2V110.5z"/>
	<path id="XMLID_203_" d="M319,110.5h-1.3l-0.4-1.2h-1.9l-0.4,1.2h-1.3l2-5.5h1.5L319,110.5z M317,108.3l-0.6-1.8
		c0-0.1-0.1-0.3-0.1-0.5h0c0,0.2,0,0.3-0.1,0.5l-0.6,1.9H317z"/>
	<path id="XMLID_206_" d="M322.9,110.5h-3.3V105h1.2v4.5h2V110.5z"/>
	<path id="XMLID_208_" d="M288.4,114.4l-1.4,5.5h-1.4l-0.9-3.5c0-0.2-0.1-0.4-0.1-0.6h0c0,0.2-0.1,0.5-0.1,0.6l-0.9,3.5h-1.4
		l-1.4-5.5h1.3l0.8,3.6c0,0.2,0.1,0.4,0.1,0.6h0c0-0.2,0-0.4,0.1-0.6l1-3.6h1.3l0.9,3.7c0,0.1,0.1,0.3,0.1,0.6h0
		c0-0.2,0-0.4,0.1-0.6l0.8-3.7H288.4z"/>
	<path id="XMLID_210_" d="M292.3,119.9h-3.3v-5.5h3.2v1h-1.9v1.2h1.8v1h-1.8v1.3h2V119.9z"/>
	<path id="XMLID_212_" d="M296.5,119.9h-3.3v-5.5h1.2v4.5h2V119.9z"/>
	<path id="XMLID_214_" d="M300.5,119.9h-3.3v-5.5h1.2v4.5h2V119.9z"/>
	<path id="XMLID_216_" d="M306.1,119.9h-1.2l-2.3-3.4c-0.1-0.2-0.2-0.4-0.3-0.5h0c0,0.2,0,0.5,0,0.9v3h-1.2v-5.5h1.3l2.2,3.3
		c0.1,0.1,0.2,0.3,0.3,0.4h0c0-0.1,0-0.4,0-0.8v-3h1.2V119.9z"/>
	<path id="XMLID_218_" d="M310.7,119.9h-3.3v-5.5h3.2v1h-1.9v1.2h1.8v1h-1.8v1.3h2V119.9z"/>
	<path id="XMLID_220_" d="M311.3,119.7v-1.2c0.2,0.2,0.5,0.3,0.7,0.4c0.3,0.1,0.5,0.1,0.8,0.1c0.2,0,0.3,0,0.4,0
		c0.1,0,0.2-0.1,0.3-0.1c0.1,0,0.1-0.1,0.2-0.2c0-0.1,0.1-0.1,0.1-0.2c0-0.1,0-0.2-0.1-0.3s-0.1-0.2-0.3-0.2
		c-0.1-0.1-0.2-0.1-0.4-0.2c-0.1-0.1-0.3-0.1-0.5-0.2c-0.4-0.2-0.7-0.4-1-0.7s-0.3-0.6-0.3-0.9c0-0.3,0.1-0.5,0.2-0.7
		c0.1-0.2,0.3-0.4,0.5-0.5c0.2-0.1,0.4-0.2,0.7-0.3c0.3-0.1,0.5-0.1,0.8-0.1c0.3,0,0.5,0,0.8,0.1c0.2,0,0.4,0.1,0.6,0.2v1.1
		c-0.1-0.1-0.2-0.1-0.3-0.2c-0.1,0-0.2-0.1-0.3-0.1c-0.1,0-0.2-0.1-0.3-0.1c-0.1,0-0.2,0-0.3,0c-0.1,0-0.3,0-0.4,0
		c-0.1,0-0.2,0.1-0.3,0.1s-0.1,0.1-0.2,0.2s-0.1,0.1-0.1,0.2c0,0.1,0,0.2,0.1,0.2c0,0.1,0.1,0.1,0.2,0.2c0.1,0.1,0.2,0.1,0.3,0.2
		c0.1,0.1,0.3,0.1,0.4,0.2c0.2,0.1,0.4,0.2,0.6,0.3c0.2,0.1,0.3,0.2,0.4,0.3c0.1,0.1,0.2,0.3,0.3,0.4s0.1,0.4,0.1,0.6
		c0,0.3-0.1,0.6-0.2,0.8c-0.1,0.2-0.3,0.4-0.5,0.5s-0.4,0.2-0.7,0.3c-0.3,0.1-0.5,0.1-0.8,0.1c-0.3,0-0.6,0-0.9-0.1
		S311.5,119.8,311.3,119.7z"/>
	<path id="XMLID_222_" d="M315.7,119.7v-1.2c0.2,0.2,0.5,0.3,0.7,0.4c0.3,0.1,0.5,0.1,0.8,0.1c0.2,0,0.3,0,0.4,0
		c0.1,0,0.2-0.1,0.3-0.1c0.1,0,0.1-0.1,0.2-0.2c0-0.1,0.1-0.1,0.1-0.2c0-0.1,0-0.2-0.1-0.3s-0.1-0.2-0.3-0.2s-0.2-0.1-0.4-0.2
		c-0.1-0.1-0.3-0.1-0.5-0.2c-0.4-0.2-0.7-0.4-1-0.7c-0.2-0.3-0.3-0.6-0.3-0.9c0-0.3,0.1-0.5,0.2-0.7c0.1-0.2,0.3-0.4,0.5-0.5
		s0.4-0.2,0.7-0.3c0.3-0.1,0.5-0.1,0.8-0.1c0.3,0,0.5,0,0.8,0.1c0.2,0,0.4,0.1,0.6,0.2v1.1c-0.1-0.1-0.2-0.1-0.3-0.2
		c-0.1,0-0.2-0.1-0.3-0.1c-0.1,0-0.2-0.1-0.3-0.1c-0.1,0-0.2,0-0.3,0c-0.1,0-0.3,0-0.4,0c-0.1,0-0.2,0.1-0.3,0.1
		c-0.1,0-0.1,0.1-0.2,0.2c0,0.1-0.1,0.1-0.1,0.2c0,0.1,0,0.2,0.1,0.2c0,0.1,0.1,0.1,0.2,0.2c0.1,0.1,0.2,0.1,0.3,0.2
		c0.1,0.1,0.3,0.1,0.4,0.2c0.2,0.1,0.4,0.2,0.6,0.3c0.2,0.1,0.3,0.2,0.4,0.3c0.1,0.1,0.2,0.3,0.3,0.4c0.1,0.2,0.1,0.4,0.1,0.6
		c0,0.3-0.1,0.6-0.2,0.8c-0.1,0.2-0.3,0.4-0.5,0.5s-0.4,0.2-0.7,0.3c-0.3,0.1-0.5,0.1-0.8,0.1c-0.3,0-0.6,0-0.9-0.1
		C316.1,119.9,315.9,119.8,315.7,119.7z"/>
</g>
<g id="XMLID_151_">
	<path id="XMLID_152_" d="M166.1,276v1.9h-1.2v-5.5h1.9c1.4,0,2.1,0.6,2.1,1.7c0,0.5-0.2,1-0.6,1.3c-0.4,0.3-0.9,0.5-1.6,0.5H166.1z
		 M166.1,273.3v1.7h0.5c0.7,0,1-0.3,1-0.9c0-0.6-0.3-0.8-1-0.8H166.1z"/>
	<path id="XMLID_155_" d="M174.4,277.8h-1.2v-2.2h-2.3v2.2h-1.2v-5.5h1.2v2.2h2.3v-2.2h1.2V277.8z"/>
	<path id="XMLID_157_" d="M179.8,272.4l-1.8,3.5v1.9h-1.2v-1.9l-1.7-3.5h1.4l0.9,2c0,0,0.1,0.2,0.1,0.4h0c0-0.2,0.1-0.3,0.1-0.4
		l0.9-2.1H179.8z"/>
	<path id="XMLID_159_" d="M180.1,277.6v-1.2c0.2,0.2,0.5,0.3,0.7,0.4c0.3,0.1,0.5,0.1,0.8,0.1c0.2,0,0.3,0,0.4,0
		c0.1,0,0.2-0.1,0.3-0.1s0.1-0.1,0.2-0.2c0-0.1,0.1-0.1,0.1-0.2c0-0.1,0-0.2-0.1-0.3s-0.1-0.2-0.3-0.2c-0.1-0.1-0.2-0.1-0.4-0.2
		c-0.1-0.1-0.3-0.1-0.5-0.2c-0.4-0.2-0.7-0.4-1-0.7c-0.2-0.3-0.3-0.6-0.3-0.9c0-0.3,0.1-0.5,0.2-0.7c0.1-0.2,0.3-0.4,0.5-0.5
		c0.2-0.1,0.4-0.2,0.7-0.3c0.3-0.1,0.5-0.1,0.8-0.1c0.3,0,0.5,0,0.8,0.1c0.2,0,0.4,0.1,0.6,0.2v1.1c-0.1-0.1-0.2-0.1-0.3-0.2
		c-0.1,0-0.2-0.1-0.3-0.1c-0.1,0-0.2-0.1-0.3-0.1c-0.1,0-0.2,0-0.3,0c-0.1,0-0.3,0-0.4,0c-0.1,0-0.2,0.1-0.3,0.1
		c-0.1,0-0.1,0.1-0.2,0.2c0,0.1-0.1,0.1-0.1,0.2c0,0.1,0,0.2,0.1,0.2c0,0.1,0.1,0.1,0.2,0.2c0.1,0.1,0.2,0.1,0.3,0.2
		c0.1,0.1,0.3,0.1,0.4,0.2c0.2,0.1,0.4,0.2,0.6,0.3c0.2,0.1,0.3,0.2,0.4,0.3c0.1,0.1,0.2,0.3,0.3,0.4c0.1,0.2,0.1,0.4,0.1,0.6
		c0,0.3-0.1,0.6-0.2,0.8c-0.1,0.2-0.3,0.4-0.5,0.5c-0.2,0.1-0.4,0.2-0.7,0.3c-0.3,0.1-0.5,0.1-0.8,0.1c-0.3,0-0.6,0-0.9-0.1
		C180.5,277.8,180.3,277.7,180.1,277.6z"/>
	<path id="XMLID_161_" d="M185.9,277.8h-1.2v-5.5h1.2V277.8z"/>
	<path id="XMLID_163_" d="M191.1,277.6c-0.4,0.2-0.9,0.3-1.6,0.3c-0.8,0-1.5-0.2-2-0.7c-0.5-0.5-0.7-1.2-0.7-2
		c0-0.9,0.3-1.6,0.8-2.1c0.5-0.5,1.2-0.8,2.1-0.8c0.5,0,1,0.1,1.4,0.2v1.2c-0.4-0.2-0.8-0.3-1.3-0.3c-0.5,0-0.9,0.2-1.2,0.5
		c-0.3,0.3-0.5,0.8-0.5,1.3c0,0.5,0.1,1,0.4,1.3s0.7,0.5,1.2,0.5c0.5,0,0.9-0.1,1.3-0.4V277.6z"/>
	<path id="XMLID_165_" d="M196.9,277.8h-1.3l-0.4-1.2h-1.9l-0.4,1.2h-1.3l2-5.5h1.5L196.9,277.8z M194.8,275.7l-0.6-1.8
		c0-0.1-0.1-0.3-0.1-0.5h0c0,0.2,0,0.3-0.1,0.5l-0.6,1.9H194.8z"/>
	<path id="XMLID_168_" d="M200.8,277.8h-3.3v-5.5h1.2v4.5h2V277.8z"/>
	<path id="XMLID_170_" d="M170.8,281.7l-1.4,5.5H168l-0.9-3.5c0-0.2-0.1-0.4-0.1-0.6h0c0,0.2-0.1,0.5-0.1,0.6l-0.9,3.5h-1.4
		l-1.4-5.5h1.3l0.8,3.6c0,0.2,0.1,0.4,0.1,0.6h0c0-0.2,0-0.4,0.1-0.6l1-3.6h1.3l0.9,3.7c0,0.1,0.1,0.3,0.1,0.6h0
		c0-0.2,0-0.4,0.1-0.6l0.8-3.7H170.8z"/>
	<path id="XMLID_172_" d="M174.8,287.2h-3.3v-5.5h3.2v1h-1.9v1.2h1.8v1h-1.8v1.3h2V287.2z"/>
	<path id="XMLID_174_" d="M178.9,287.2h-3.3v-5.5h1.2v4.5h2V287.2z"/>
	<path id="XMLID_176_" d="M182.9,287.2h-3.3v-5.5h1.2v4.5h2V287.2z"/>
	<path id="XMLID_178_" d="M188.6,287.2h-1.2l-2.3-3.4c-0.1-0.2-0.2-0.4-0.3-0.5h0c0,0.2,0,0.5,0,0.9v3h-1.2v-5.5h1.3l2.2,3.3
		c0.1,0.2,0.2,0.3,0.3,0.4h0c0-0.1,0-0.4,0-0.8v-3h1.2V287.2z"/>
	<path id="XMLID_180_" d="M193.1,287.2h-3.3v-5.5h3.2v1h-1.9v1.2h1.8v1h-1.8v1.3h2V287.2z"/>
	<path id="XMLID_182_" d="M193.7,287v-1.2c0.2,0.2,0.5,0.3,0.7,0.4c0.3,0.1,0.5,0.1,0.8,0.1c0.2,0,0.3,0,0.4,0
		c0.1,0,0.2-0.1,0.3-0.1s0.1-0.1,0.2-0.2c0-0.1,0.1-0.1,0.1-0.2c0-0.1,0-0.2-0.1-0.3s-0.1-0.2-0.3-0.2c-0.1-0.1-0.2-0.1-0.4-0.2
		c-0.1-0.1-0.3-0.1-0.5-0.2c-0.4-0.2-0.7-0.4-1-0.7c-0.2-0.3-0.3-0.6-0.3-0.9c0-0.3,0.1-0.5,0.2-0.7c0.1-0.2,0.3-0.4,0.5-0.5
		c0.2-0.1,0.4-0.2,0.7-0.3c0.3-0.1,0.5-0.1,0.8-0.1c0.3,0,0.5,0,0.8,0.1c0.2,0,0.4,0.1,0.6,0.2v1.1c-0.1-0.1-0.2-0.1-0.3-0.2
		c-0.1,0-0.2-0.1-0.3-0.1c-0.1,0-0.2-0.1-0.3-0.1c-0.1,0-0.2,0-0.3,0c-0.1,0-0.3,0-0.4,0c-0.1,0-0.2,0.1-0.3,0.1
		c-0.1,0-0.1,0.1-0.2,0.2c0,0.1-0.1,0.1-0.1,0.2c0,0.1,0,0.2,0.1,0.2c0,0.1,0.1,0.1,0.2,0.2c0.1,0.1,0.2,0.1,0.3,0.2
		c0.1,0.1,0.3,0.1,0.4,0.2c0.2,0.1,0.4,0.2,0.6,0.3c0.2,0.1,0.3,0.2,0.4,0.3c0.1,0.1,0.2,0.3,0.3,0.4c0.1,0.2,0.1,0.4,0.1,0.6
		c0,0.3-0.1,0.6-0.2,0.8c-0.1,0.2-0.3,0.4-0.5,0.5c-0.2,0.1-0.4,0.2-0.7,0.3c-0.3,0.1-0.5,0.1-0.8,0.1c-0.3,0-0.6,0-0.9-0.1
		C194.2,287.2,193.9,287.1,193.7,287z"/>
	<path id="XMLID_184_" d="M198.1,287v-1.2c0.2,0.2,0.5,0.3,0.7,0.4c0.3,0.1,0.5,0.1,0.8,0.1c0.2,0,0.3,0,0.4,0
		c0.1,0,0.2-0.1,0.3-0.1s0.1-0.1,0.2-0.2c0-0.1,0.1-0.1,0.1-0.2c0-0.1,0-0.2-0.1-0.3s-0.1-0.2-0.3-0.2c-0.1-0.1-0.2-0.1-0.4-0.2
		c-0.1-0.1-0.3-0.1-0.5-0.2c-0.4-0.2-0.7-0.4-1-0.7c-0.2-0.3-0.3-0.6-0.3-0.9c0-0.3,0.1-0.5,0.2-0.7c0.1-0.2,0.3-0.4,0.5-0.5
		c0.2-0.1,0.4-0.2,0.7-0.3c0.3-0.1,0.5-0.1,0.8-0.1c0.3,0,0.5,0,0.8,0.1c0.2,0,0.4,0.1,0.6,0.2v1.1c-0.1-0.1-0.2-0.1-0.3-0.2
		c-0.1,0-0.2-0.1-0.3-0.1c-0.1,0-0.2-0.1-0.3-0.1c-0.1,0-0.2,0-0.3,0c-0.1,0-0.3,0-0.4,0c-0.1,0-0.2,0.1-0.3,0.1
		c-0.1,0-0.1,0.1-0.2,0.2c0,0.1-0.1,0.1-0.1,0.2c0,0.1,0,0.2,0.1,0.2c0,0.1,0.1,0.1,0.2,0.2c0.1,0.1,0.2,0.1,0.3,0.2
		c0.1,0.1,0.3,0.1,0.4,0.2c0.2,0.1,0.4,0.2,0.6,0.3c0.2,0.1,0.3,0.2,0.4,0.3c0.1,0.1,0.2,0.3,0.3,0.4c0.1,0.2,0.1,0.4,0.1,0.6
		c0,0.3-0.1,0.6-0.2,0.8c-0.1,0.2-0.3,0.4-0.5,0.5c-0.2,0.1-0.4,0.2-0.7,0.3c-0.3,0.1-0.5,0.1-0.8,0.1c-0.3,0-0.6,0-0.9-0.1
		C198.6,287.2,198.3,287.1,198.1,287z"/>
</g>
<g id="XMLID_113_">
	<path id="XMLID_114_" d="M281.1,407.6v-1.2c0.2,0.2,0.5,0.3,0.7,0.4c0.3,0.1,0.5,0.1,0.8,0.1c0.2,0,0.3,0,0.4,0
		c0.1,0,0.2-0.1,0.3-0.1c0.1,0,0.1-0.1,0.2-0.2c0-0.1,0.1-0.1,0.1-0.2c0-0.1,0-0.2-0.1-0.3c-0.1-0.1-0.1-0.2-0.3-0.2
		c-0.1-0.1-0.2-0.1-0.4-0.2c-0.1-0.1-0.3-0.1-0.5-0.2c-0.4-0.2-0.7-0.4-1-0.7c-0.2-0.3-0.3-0.6-0.3-0.9c0-0.3,0.1-0.5,0.2-0.7
		s0.3-0.4,0.5-0.5c0.2-0.1,0.4-0.2,0.7-0.3c0.3-0.1,0.5-0.1,0.8-0.1c0.3,0,0.5,0,0.8,0.1c0.2,0,0.4,0.1,0.6,0.2v1.1
		c-0.1-0.1-0.2-0.1-0.3-0.2c-0.1,0-0.2-0.1-0.3-0.1c-0.1,0-0.2-0.1-0.3-0.1c-0.1,0-0.2,0-0.3,0c-0.1,0-0.3,0-0.4,0
		c-0.1,0-0.2,0.1-0.3,0.1c-0.1,0-0.1,0.1-0.2,0.2s-0.1,0.1-0.1,0.2c0,0.1,0,0.2,0.1,0.2c0,0.1,0.1,0.1,0.2,0.2
		c0.1,0.1,0.2,0.1,0.3,0.2c0.1,0.1,0.3,0.1,0.4,0.2c0.2,0.1,0.4,0.2,0.6,0.3c0.2,0.1,0.3,0.2,0.4,0.3c0.1,0.1,0.2,0.3,0.3,0.4
		c0.1,0.2,0.1,0.4,0.1,0.6c0,0.3-0.1,0.6-0.2,0.8c-0.1,0.2-0.3,0.4-0.5,0.5c-0.2,0.1-0.4,0.2-0.7,0.3c-0.3,0.1-0.5,0.1-0.8,0.1
		c-0.3,0-0.6,0-0.9-0.1C281.5,407.8,281.3,407.7,281.1,407.6z"/>
	<path id="XMLID_116_" d="M287,406v1.9h-1.2v-5.5h1.9c1.4,0,2.1,0.6,2.1,1.7c0,0.5-0.2,1-0.6,1.3c-0.4,0.3-0.9,0.5-1.6,0.5H287z
		 M287,403.3v1.7h0.5c0.7,0,1-0.3,1-0.9c0-0.6-0.3-0.8-1-0.8H287z"/>
	<path id="XMLID_119_" d="M291.8,407.8h-1.2v-5.5h1.2V407.8z"/>
	<path id="XMLID_121_" d="M297.6,407.8h-1.4l-0.9-1.4c-0.1-0.1-0.1-0.2-0.2-0.3s-0.1-0.2-0.2-0.2c-0.1-0.1-0.1-0.1-0.2-0.1
		c-0.1,0-0.1,0-0.2,0h-0.3v2.1H293v-5.5h2c1.3,0,2,0.5,2,1.5c0,0.2,0,0.4-0.1,0.5c-0.1,0.2-0.1,0.3-0.2,0.4
		c-0.1,0.1-0.2,0.2-0.4,0.3c-0.2,0.1-0.3,0.2-0.5,0.2v0c0.1,0,0.2,0.1,0.2,0.1c0.1,0.1,0.2,0.1,0.2,0.2c0.1,0.1,0.1,0.2,0.2,0.2
		c0.1,0.1,0.1,0.2,0.2,0.3L297.6,407.8z M294.2,403.3v1.5h0.5c0.3,0,0.5-0.1,0.6-0.2c0.2-0.2,0.2-0.3,0.2-0.6c0-0.5-0.3-0.7-0.9-0.7
		H294.2z"/>
	<path id="XMLID_124_" d="M299.3,407.8h-1.2v-5.5h1.2V407.8z"/>
	<path id="XMLID_126_" d="M304.4,403.4h-1.6v4.5h-1.2v-4.5h-1.6v-1h4.3V403.4z"/>
	<path id="XMLID_128_" d="M309.6,405.5c0,1.6-0.8,2.5-2.3,2.5c-1.5,0-2.2-0.8-2.2-2.4v-3.2h1.2v3.2c0,0.9,0.3,1.3,1,1.3
		c0.7,0,1-0.4,1-1.3v-3.2h1.2V405.5z"/>
	<path id="XMLID_130_" d="M315.5,407.8h-1.3l-0.4-1.2h-1.9l-0.4,1.2h-1.3l2-5.5h1.5L315.5,407.8z M313.5,405.7l-0.6-1.8
		c0-0.1-0.1-0.3-0.1-0.5h0c0,0.2,0,0.3-0.1,0.5l-0.6,1.9H313.5z"/>
	<path id="XMLID_133_" d="M319.4,407.8h-3.3v-5.5h1.2v4.5h2V407.8z"/>
	<path id="XMLID_135_" d="M288.4,411.7l-1.4,5.5h-1.4l-0.9-3.5c0-0.2-0.1-0.4-0.1-0.6h0c0,0.2-0.1,0.5-0.1,0.6l-0.9,3.5h-1.4
		l-1.4-5.5h1.3l0.8,3.6c0,0.2,0.1,0.4,0.1,0.6h0c0-0.2,0-0.4,0.1-0.6l1-3.6h1.3l0.9,3.7c0,0.1,0.1,0.3,0.1,0.6h0
		c0-0.2,0-0.4,0.1-0.6l0.8-3.7H288.4z"/>
	<path id="XMLID_137_" d="M292.3,417.2h-3.3v-5.5h3.2v1h-1.9v1.2h1.8v1h-1.8v1.3h2V417.2z"/>
	<path id="XMLID_139_" d="M296.5,417.2h-3.3v-5.5h1.2v4.5h2V417.2z"/>
	<path id="XMLID_141_" d="M300.5,417.2h-3.3v-5.5h1.2v4.5h2V417.2z"/>
	<path id="XMLID_143_" d="M306.1,417.2h-1.2l-2.3-3.4c-0.1-0.2-0.2-0.4-0.3-0.5h0c0,0.2,0,0.5,0,0.9v3h-1.2v-5.5h1.3l2.2,3.3
		c0.1,0.2,0.2,0.3,0.3,0.4h0c0-0.1,0-0.4,0-0.8v-3h1.2V417.2z"/>
	<path id="XMLID_145_" d="M310.7,417.2h-3.3v-5.5h3.2v1h-1.9v1.2h1.8v1h-1.8v1.3h2V417.2z"/>
	<path id="XMLID_147_" d="M311.3,417v-1.2c0.2,0.2,0.5,0.3,0.7,0.4c0.3,0.1,0.5,0.1,0.8,0.1c0.2,0,0.3,0,0.4,0
		c0.1,0,0.2-0.1,0.3-0.1c0.1,0,0.1-0.1,0.2-0.2s0.1-0.1,0.1-0.2c0-0.1,0-0.2-0.1-0.3c-0.1-0.1-0.1-0.2-0.3-0.2s-0.2-0.1-0.4-0.2
		c-0.1-0.1-0.3-0.1-0.5-0.2c-0.4-0.2-0.7-0.4-1-0.7s-0.3-0.6-0.3-0.9c0-0.3,0.1-0.5,0.2-0.7c0.1-0.2,0.3-0.4,0.5-0.5
		c0.2-0.1,0.4-0.2,0.7-0.3c0.3-0.1,0.5-0.1,0.8-0.1c0.3,0,0.5,0,0.8,0.1c0.2,0,0.4,0.1,0.6,0.2v1.1c-0.1-0.1-0.2-0.1-0.3-0.2
		c-0.1,0-0.2-0.1-0.3-0.1c-0.1,0-0.2-0.1-0.3-0.1c-0.1,0-0.2,0-0.3,0c-0.1,0-0.3,0-0.4,0s-0.2,0.1-0.3,0.1c-0.1,0-0.1,0.1-0.2,0.2
		c0,0.1-0.1,0.1-0.1,0.2c0,0.1,0,0.2,0.1,0.2c0,0.1,0.1,0.1,0.2,0.2c0.1,0.1,0.2,0.1,0.3,0.2s0.3,0.1,0.4,0.2
		c0.2,0.1,0.4,0.2,0.6,0.3c0.2,0.1,0.3,0.2,0.4,0.3c0.1,0.1,0.2,0.3,0.3,0.4c0.1,0.2,0.1,0.4,0.1,0.6c0,0.3-0.1,0.6-0.2,0.8
		c-0.1,0.2-0.3,0.4-0.5,0.5c-0.2,0.1-0.4,0.2-0.7,0.3c-0.3,0.1-0.5,0.1-0.8,0.1c-0.3,0-0.6,0-0.9-0.1S311.5,417.1,311.3,417z"/>
	<path id="XMLID_149_" d="M315.7,417v-1.2c0.2,0.2,0.5,0.3,0.7,0.4c0.3,0.1,0.5,0.1,0.8,0.1c0.2,0,0.3,0,0.4,0
		c0.1,0,0.2-0.1,0.3-0.1c0.1,0,0.1-0.1,0.2-0.2s0.1-0.1,0.1-0.2c0-0.1,0-0.2-0.1-0.3c-0.1-0.1-0.1-0.2-0.3-0.2s-0.2-0.1-0.4-0.2
		c-0.1-0.1-0.3-0.1-0.5-0.2c-0.4-0.2-0.7-0.4-1-0.7s-0.3-0.6-0.3-0.9c0-0.3,0.1-0.5,0.2-0.7c0.1-0.2,0.3-0.4,0.5-0.5
		c0.2-0.1,0.4-0.2,0.7-0.3c0.3-0.1,0.5-0.1,0.8-0.1c0.3,0,0.5,0,0.8,0.1c0.2,0,0.4,0.1,0.6,0.2v1.1c-0.1-0.1-0.2-0.1-0.3-0.2
		c-0.1,0-0.2-0.1-0.3-0.1c-0.1,0-0.2-0.1-0.3-0.1c-0.1,0-0.2,0-0.3,0c-0.1,0-0.3,0-0.4,0s-0.2,0.1-0.3,0.1c-0.1,0-0.1,0.1-0.2,0.2
		c0,0.1-0.1,0.1-0.1,0.2c0,0.1,0,0.2,0.1,0.2c0,0.1,0.1,0.1,0.2,0.2c0.1,0.1,0.2,0.1,0.3,0.2s0.3,0.1,0.4,0.2
		c0.2,0.1,0.4,0.2,0.6,0.3c0.2,0.1,0.3,0.2,0.4,0.3c0.1,0.1,0.2,0.3,0.3,0.4c0.1,0.2,0.1,0.4,0.1,0.6c0,0.3-0.1,0.6-0.2,0.8
		c-0.1,0.2-0.3,0.4-0.5,0.5c-0.2,0.1-0.4,0.2-0.7,0.3c-0.3,0.1-0.5,0.1-0.8,0.1c-0.3,0-0.6,0-0.9-0.1S315.9,417.1,315.7,417z"/>
</g>
<g id="XMLID_3_">
	<path id="XMLID_74_" d="M458.6,263.8h-1.2v-5.5h1.2V263.8z"/>
	<path id="XMLID_76_" d="M464.7,263.8h-1.2l-2.3-3.4c-0.1-0.2-0.2-0.4-0.3-0.5h0c0,0.2,0,0.5,0,0.9v3h-1.2v-5.5h1.3l2.2,3.3
		c0.1,0.1,0.2,0.3,0.3,0.4h0c0-0.1,0-0.4,0-0.8v-3h1.2V263.8z"/>
	<path id="XMLID_78_" d="M469.8,259.4h-1.6v4.5H467v-4.5h-1.6v-1h4.3V259.4z"/>
	<path id="XMLID_80_" d="M473.9,263.8h-3.3v-5.5h3.2v1h-1.9v1.2h1.8v1h-1.8v1.3h2V263.8z"/>
	<path id="XMLID_82_" d="M478,263.8h-3.3v-5.5h1.2v4.5h2V263.8z"/>
	<path id="XMLID_84_" d="M482,263.8h-3.3v-5.5h3.2v1H480v1.2h1.8v1H480v1.3h2V263.8z"/>
	<path id="XMLID_86_" d="M486.8,263.6c-0.4,0.2-0.9,0.3-1.6,0.3c-0.8,0-1.5-0.2-2-0.7c-0.5-0.5-0.7-1.2-0.7-2c0-0.9,0.3-1.6,0.8-2.1
		s1.2-0.8,2.1-0.8c0.5,0,1,0.1,1.4,0.2v1.2c-0.4-0.2-0.8-0.3-1.3-0.3c-0.5,0-0.9,0.2-1.2,0.5c-0.3,0.3-0.5,0.8-0.5,1.3
		c0,0.5,0.1,1,0.4,1.3c0.3,0.3,0.7,0.5,1.2,0.5c0.5,0,0.9-0.1,1.3-0.4V263.6z"/>
	<path id="XMLID_88_" d="M491.6,259.4H490v4.5h-1.2v-4.5h-1.6v-1h4.3V259.4z"/>
	<path id="XMLID_90_" d="M496.8,261.5c0,1.6-0.8,2.5-2.3,2.5c-1.5,0-2.2-0.8-2.2-2.4v-3.2h1.2v3.2c0,0.9,0.3,1.3,1,1.3
		c0.7,0,1-0.4,1-1.3v-3.2h1.2V261.5z"/>
	<path id="XMLID_92_" d="M502.6,263.8h-1.3l-0.4-1.2H499l-0.4,1.2h-1.3l2-5.5h1.5L502.6,263.8z M500.6,261.7l-0.6-1.8
		c0-0.1-0.1-0.3-0.1-0.5h0c0,0.2,0,0.3-0.1,0.5l-0.6,1.9H500.6z"/>
	<path id="XMLID_95_" d="M506.6,263.8h-3.3v-5.5h1.2v4.5h2V263.8z"/>
	<path id="XMLID_97_" d="M469.9,267.7l-1.4,5.5h-1.4l-0.9-3.5c0-0.2-0.1-0.4-0.1-0.6h0c0,0.2-0.1,0.5-0.1,0.6l-0.9,3.5h-1.4
		l-1.4-5.5h1.3l0.8,3.6c0,0.2,0.1,0.4,0.1,0.6h0c0-0.2,0-0.4,0.1-0.6l1-3.6h1.3l0.9,3.7c0,0.1,0.1,0.3,0.1,0.6h0
		c0-0.2,0-0.4,0.1-0.6l0.8-3.7H469.9z"/>
	<path id="XMLID_99_" d="M473.9,273.2h-3.3v-5.5h3.2v1h-1.9v1.2h1.8v1h-1.8v1.3h2V273.2z"/>
	<path id="XMLID_101_" d="M478.1,273.2h-3.3v-5.5h1.2v4.5h2V273.2z"/>
	<path id="XMLID_103_" d="M482.1,273.2h-3.3v-5.5h1.2v4.5h2V273.2z"/>
	<path id="XMLID_105_" d="M487.7,273.2h-1.2l-2.3-3.4c-0.1-0.2-0.2-0.4-0.3-0.5h0c0,0.2,0,0.5,0,0.9v3h-1.2v-5.5h1.3l2.2,3.3
		c0.1,0.2,0.2,0.3,0.3,0.4h0c0-0.1,0-0.4,0-0.8v-3h1.2V273.2z"/>
	<path id="XMLID_107_" d="M492.2,273.2H489v-5.5h3.2v1h-1.9v1.2h1.8v1h-1.8v1.3h2V273.2z"/>
	<path id="XMLID_109_" d="M492.9,273v-1.2c0.2,0.2,0.5,0.3,0.7,0.4c0.3,0.1,0.5,0.1,0.8,0.1c0.2,0,0.3,0,0.4,0
		c0.1,0,0.2-0.1,0.3-0.1c0.1,0,0.1-0.1,0.2-0.2c0-0.1,0.1-0.1,0.1-0.2c0-0.1,0-0.2-0.1-0.3c-0.1-0.1-0.1-0.2-0.3-0.2
		c-0.1-0.1-0.2-0.1-0.4-0.2c-0.1-0.1-0.3-0.1-0.5-0.2c-0.4-0.2-0.7-0.4-1-0.7c-0.2-0.3-0.3-0.6-0.3-0.9c0-0.3,0.1-0.5,0.2-0.7
		s0.3-0.4,0.5-0.5c0.2-0.1,0.4-0.2,0.7-0.3c0.3-0.1,0.5-0.1,0.8-0.1c0.3,0,0.5,0,0.8,0.1c0.2,0,0.4,0.1,0.6,0.2v1.1
		c-0.1-0.1-0.2-0.1-0.3-0.2c-0.1,0-0.2-0.1-0.3-0.1c-0.1,0-0.2-0.1-0.3-0.1c-0.1,0-0.2,0-0.3,0c-0.1,0-0.3,0-0.4,0
		c-0.1,0-0.2,0.1-0.3,0.1c-0.1,0-0.1,0.1-0.2,0.2s-0.1,0.1-0.1,0.2c0,0.1,0,0.2,0.1,0.2c0,0.1,0.1,0.1,0.2,0.2
		c0.1,0.1,0.2,0.1,0.3,0.2c0.1,0.1,0.3,0.1,0.4,0.2c0.2,0.1,0.4,0.2,0.6,0.3c0.2,0.1,0.3,0.2,0.4,0.3c0.1,0.1,0.2,0.3,0.3,0.4
		c0.1,0.2,0.1,0.4,0.1,0.6c0,0.3-0.1,0.6-0.2,0.8c-0.1,0.2-0.3,0.4-0.5,0.5c-0.2,0.1-0.4,0.2-0.7,0.3c-0.3,0.1-0.5,0.1-0.8,0.1
		c-0.3,0-0.6,0-0.9-0.1C493.3,273.2,493.1,273.1,492.9,273z"/>
	<path id="XMLID_111_" d="M497.2,273v-1.2c0.2,0.2,0.5,0.3,0.7,0.4c0.3,0.1,0.5,0.1,0.8,0.1c0.2,0,0.3,0,0.4,0
		c0.1,0,0.2-0.1,0.3-0.1c0.1,0,0.1-0.1,0.2-0.2c0-0.1,0.1-0.1,0.1-0.2c0-0.1,0-0.2-0.1-0.3c-0.1-0.1-0.1-0.2-0.3-0.2
		c-0.1-0.1-0.2-0.1-0.4-0.2c-0.1-0.1-0.3-0.1-0.5-0.2c-0.4-0.2-0.7-0.4-1-0.7c-0.2-0.3-0.3-0.6-0.3-0.9c0-0.3,0.1-0.5,0.2-0.7
		s0.3-0.4,0.5-0.5c0.2-0.1,0.4-0.2,0.7-0.3c0.3-0.1,0.5-0.1,0.8-0.1c0.3,0,0.5,0,0.8,0.1c0.2,0,0.4,0.1,0.6,0.2v1.1
		c-0.1-0.1-0.2-0.1-0.3-0.2c-0.1,0-0.2-0.1-0.3-0.1c-0.1,0-0.2-0.1-0.3-0.1c-0.1,0-0.2,0-0.3,0c-0.1,0-0.3,0-0.4,0
		c-0.1,0-0.2,0.1-0.3,0.1c-0.1,0-0.1,0.1-0.2,0.2s-0.1,0.1-0.1,0.2c0,0.1,0,0.2,0.1,0.2c0,0.1,0.1,0.1,0.2,0.2
		c0.1,0.1,0.2,0.1,0.3,0.2c0.1,0.1,0.3,0.1,0.4,0.2c0.2,0.1,0.4,0.2,0.6,0.3c0.2,0.1,0.3,0.2,0.4,0.3c0.1,0.1,0.2,0.3,0.3,0.4
		c0.1,0.2,0.1,0.4,0.1,0.6c0,0.3-0.1,0.6-0.2,0.8c-0.1,0.2-0.3,0.4-0.5,0.5c-0.2,0.1-0.4,0.2-0.7,0.3c-0.3,0.1-0.5,0.1-0.8,0.1
		c-0.3,0-0.6,0-0.9-0.1C497.7,273.2,497.4,273.1,497.2,273z"/>
</g>
</svg>
